<?xml version="1.0" encoding="UTF-8" standalone="no"?>
<svg
   xmlns:dc="http://purl.org/dc/elements/1.1/"
   xmlns:cc="http://creativecommons.org/ns#"
   xmlns:rdf="http://www.w3.org/1999/02/22-rdf-syntax-ns#"
   xmlns:svg="http://www.w3.org/2000/svg"
   xmlns="http://www.w3.org/2000/svg"
   xmlns:sodipodi="http://sodipodi.sourceforge.net/DTD/sodipodi-0.dtd"
   xmlns:inkscape="http://www.inkscape.org/namespaces/inkscape"
   width="142.26646cm"
   height="45.587708cm"
   version="1.1"
   id="svg2362"
   sodipodi:docname="C_LED.svg"
   inkscape:version="0.92.4 (5da689c313, 2019-01-14)">
  <metadata
     id="metadata2366">
    <rdf:RDF>
      <cc:Work
         rdf:about="">
        <dc:format>image/svg+xml</dc:format>
        <dc:type
           rdf:resource="http://purl.org/dc/dcmitype/StillImage" />
        <dc:title></dc:title>
      </cc:Work>
    </rdf:RDF>
  </metadata>
  <sodipodi:namedview
     pagecolor="#ffffff"
     bordercolor="#666666"
     borderopacity="1"
     objecttolerance="10"
     gridtolerance="10"
     guidetolerance="10"
     inkscape:pageopacity="0"
     inkscape:pageshadow="2"
     inkscape:window-width="1342"
     inkscape:window-height="972"
     id="namedview2364"
     showgrid="false"
     inkscape:zoom="0.10512065"
     inkscape:cx="3085.3504"
     inkscape:cy="127.88646"
     inkscape:window-x="90"
     inkscape:window-y="163"
     inkscape:window-maximized="0"
     inkscape:current-layer="g2360"
     inkscape:document-units="cm"
     units="cm" />
  <desc
     id="desc2174">C:\Users\Tracy\Downloads\C_LED.dxf - scale = 25.400000, origin = (0.000000, 0.000000), method = file</desc>
  <defs
     id="defs2188">
    <marker
       id="DistanceX"
       orient="auto"
       refX="0"
       refY="0"
       style="overflow:visible">
      <path
         d="M 3,-3 -3,3 M 0,-5 V 5"
         style="stroke:#000000;stroke-width:0.5"
         id="path2176"
         inkscape:connector-curvature="0" />
    </marker>
    <pattern
       height="8"
       id="Hatch"
       patternUnits="userSpaceOnUse"
       width="8"
       x="0"
       y="0">
      <path
         d="M8 4 l-4,4"
         linecap="square"
         stroke="#000000"
         stroke-width="0.25"
         id="path2179" />
      <path
         d="M6 2 l-4,4"
         linecap="square"
         stroke="#000000"
         stroke-width="0.25"
         id="path2181" />
      <path
         d="M4 0 l-4,4"
         linecap="square"
         stroke="#000000"
         stroke-width="0.25"
         id="path2183" />
    </pattern>
    <symbol
       id="*MODEL_SPACE" />
    <symbol
       id="*PAPER_SPACE" />
  </defs>
  <g
     inkscape:groupmode="layer"
     inkscape:label="0"
     id="g2190"
     transform="translate(2688.5,9405.1867)" />
  <g
     inkscape:groupmode="layer"
     inkscape:label="SECTION_CUTTING_LINE"
     id="g2192"
     transform="translate(2688.5,9405.1867)" />
  <g
     inkscape:groupmode="layer"
     inkscape:label="DETAIL_VIEW_BORDER"
     id="g2194"
     transform="translate(2688.5,9405.1867)" />
  <g
     inkscape:groupmode="layer"
     inkscape:label="DETAIL_VIEW_PARENT_BORDER"
     id="g2196"
     transform="translate(2688.5,9405.1867)" />
  <g
     inkscape:groupmode="layer"
     inkscape:label="TEXT"
     id="g2198"
     transform="translate(2688.5,9405.1867)" />
  <g
     inkscape:groupmode="layer"
     inkscape:label="SKETCHED_GEOMETRY"
     id="g2200"
     transform="translate(2688.5,9405.1867)" />
  <g
     inkscape:groupmode="layer"
     inkscape:label="VIRTUAL_SHARPS"
     id="g2202"
     transform="translate(2688.5,9405.1867)" />
  <g
     inkscape:groupmode="layer"
     inkscape:label="CENTERLINES"
     id="g2204"
     transform="translate(2688.5,9405.1867)" />
  <g
     inkscape:groupmode="layer"
     inkscape:label="CENTERMARKS"
     id="g2206"
     transform="translate(2688.5,9405.1867)" />
  <g
     inkscape:groupmode="layer"
     inkscape:label="TABLES"
     id="g2208"
     transform="translate(2688.5,9405.1867)" />
  <g
     inkscape:groupmode="layer"
     inkscape:label="IMAGES"
     id="g2210"
     transform="translate(2688.5,9405.1867)" />
  <g
     inkscape:groupmode="layer"
     inkscape:label="ANNOTATION_LINES"
     id="g2212"
     transform="translate(2688.5,9405.1867)" />
  <g
     inkscape:groupmode="layer"
     inkscape:label="ANNOTATION_TEXT"
     id="g2214"
     transform="translate(2688.5,9405.1867)" />
  <g
     inkscape:groupmode="layer"
     inkscape:label="SIDE_THREAD_SYMBOLS"
     id="g2216"
     transform="translate(2688.5,9405.1867)" />
  <g
     inkscape:groupmode="layer"
     inkscape:label="SIDE_THREAD_SYMBOLS_HIDDEN"
     id="g2218"
     transform="translate(2688.5,9405.1867)" />
  <g
     inkscape:groupmode="layer"
     inkscape:label="SURFACE_THREAD_SYMBOLS"
     id="g2220"
     transform="translate(2688.5,9405.1867)" />
  <g
     inkscape:groupmode="layer"
     inkscape:label="SURFACE_THREAD_SYMBOLS_ON_"
     id="g2222"
     transform="translate(2688.5,9405.1867)" />
  <g
     inkscape:groupmode="layer"
     inkscape:label="SURFACE_THREAD_SYMBOLS_HID"
     id="g2224"
     transform="translate(2688.5,9405.1867)" />
  <g
     inkscape:groupmode="layer"
     inkscape:label="BLIND_THREAD_SYMBOLS"
     id="g2226"
     transform="translate(2688.5,9405.1867)" />
  <g
     inkscape:groupmode="layer"
     inkscape:label="BLIND_THREAD_SYMBOLS_HIDDE"
     id="g2228"
     transform="translate(2688.5,9405.1867)" />
  <g
     inkscape:groupmode="layer"
     inkscape:label="EXPLODE_LINES"
     id="g2230"
     transform="translate(2688.5,9405.1867)" />
  <g
     inkscape:groupmode="layer"
     inkscape:label="BREAK_LINES"
     id="g2232"
     transform="translate(2688.5,9405.1867)" />
  <g
     inkscape:groupmode="layer"
     inkscape:label="SHEETMETAL_BEND_LINES_UP"
     id="g2234"
     transform="translate(2688.5,9405.1867)" />
  <g
     inkscape:groupmode="layer"
     inkscape:label="SHEETMETAL_BEND_LINES_DOWN"
     id="g2236"
     transform="translate(2688.5,9405.1867)" />
  <g
     inkscape:groupmode="layer"
     inkscape:label="SHEETMETAL_BEND_TANGENT_LI"
     id="g2238"
     transform="translate(2688.5,9405.1867)" />
  <g
     inkscape:groupmode="layer"
     inkscape:label="SHEETMETAL_CUT_LINES"
     id="g2240"
     transform="translate(2688.5,9405.1867)" />
  <g
     inkscape:groupmode="layer"
     inkscape:label="HIDDEN"
     id="g2242"
     transform="translate(2688.5,9405.1867)" />
  <g
     inkscape:groupmode="layer"
     inkscape:label="VISIBLE"
     id="g2344"
     transform="translate(2688.5,9405.1867)">
    <path
       d="m -1852.4573,-9208.6374 a 60,60 0 1 0 -120,0 60,60 0 1 0 120,0 z"
       style="fill:none;stroke:#000000"
       id="path2244"
       inkscape:connector-curvature="0" />
    <path
       d="m -1305.2573,-8287.0374 a 60,60 0 1 0 -120,0 60,60 0 1 0 120,0 z"
       style="fill:none;stroke:#000000"
       id="path2246"
       inkscape:connector-curvature="0" />
    <path
       d="m -1305.2573,-8747.8374 a 60,60 0 1 0 -120,0 60,60 0 1 0 120,0 z"
       style="fill:none;stroke:#000000"
       id="path2248"
       inkscape:connector-curvature="0" />
    <path
       d="m -1305.2573,-9208.6374 a 60,60 0 1 0 -120,0 60,60 0 1 0 120,0 z"
       style="fill:none;stroke:#000000"
       id="path2250"
       inkscape:connector-curvature="0" />
    <path
       d="m -1852.4573,-8747.8374 a 60,60 0 1 0 -120,0 60,60 0 1 0 120,0 z"
       style="fill:none;stroke:#000000"
       id="path2252"
       inkscape:connector-curvature="0" />
    <path
       d="m -1852.4573,-8287.0374 a 60,60 0 1 0 -120,0 60,60 0 1 0 120,0 z"
       style="fill:none;stroke:#000000"
       id="path2254"
       inkscape:connector-curvature="0" />
    <path
       d="m -2399.6573,-9208.6374 a 60,60 0 1 0 -120,0 60,60 0 1 0 120,0 z"
       style="fill:none;stroke:#000000"
       id="path2256"
       inkscape:connector-curvature="0" />
    <path
       d="m -2399.6573,-8747.8374 a 60,60 0 1 0 -120,0 60,60 0 1 0 120,0 z"
       style="fill:none;stroke:#000000"
       id="path2258"
       inkscape:connector-curvature="0" />
    <path
       d="m 336.34273,-8747.8374 a 60,60 0 1 0 -120,0 60,60 0 1 0 120,0 z"
       style="fill:none;stroke:#000000"
       id="path2260"
       inkscape:connector-curvature="0" />
    <path
       d="m 336.34273,-8287.0374 a 60,60 0 1 0 -120,0 60,60 0 1 0 120,0 z"
       style="fill:none;stroke:#000000"
       id="path2262"
       inkscape:connector-curvature="0" />
    <path
       d="m -210.85727,-9208.6374 a 60,60 0 1 0 -120,0 60,60 0 1 0 120,0 z"
       style="fill:none;stroke:#000000"
       id="path2264"
       inkscape:connector-curvature="0" />
    <path
       d="m -210.85727,-8747.8374 a 60,60 0 1 0 -120,0 60,60 0 1 0 120,0 z"
       style="fill:none;stroke:#000000"
       id="path2266"
       inkscape:connector-curvature="0" />
    <path
       d="m -758.05727,-8287.0374 a 60,60 0 1 0 -120,0 60,60 0 1 0 120,0 z"
       style="fill:none;stroke:#000000"
       id="path2268"
       inkscape:connector-curvature="0" />
    <path
       d="m -758.05727,-8747.8374 a 60,60 0 1 0 -120,0 60,60 0 1 0 120,0 z"
       style="fill:none;stroke:#000000"
       id="path2270"
       inkscape:connector-curvature="0" />
    <path
       d="m -758.05727,-9208.6374 a 60,60 0 1 0 -120,0 60,60 0 1 0 120,0 z"
       style="fill:none;stroke:#000000"
       id="path2272"
       inkscape:connector-curvature="0" />
    <path
       d="m -210.85727,-8287.0374 a 60,60 0 1 0 -120,0 60,60 0 1 0 120,0 z"
       style="fill:none;stroke:#000000"
       id="path2274"
       inkscape:connector-curvature="0" />
    <path
       d="m 1977.9427,-8747.8374 a 60,60 0 1 0 -120,0 60,60 0 1 0 120,0 z"
       style="fill:none;stroke:#000000"
       id="path2276"
       inkscape:connector-curvature="0" />
    <path
       d="m 1977.9427,-9208.6374 a 60,60 0 1 0 -120,0 60,60 0 1 0 120,0 z"
       style="fill:none;stroke:#000000"
       id="path2278"
       inkscape:connector-curvature="0" />
    <path
       d="m 2525.1427,-8287.0374 a 60,60 0 1 0 -120,0 60,60 0 1 0 120,0 z"
       style="fill:none;stroke:#000000"
       id="path2280"
       inkscape:connector-curvature="0" />
    <path
       d="m 2525.1427,-8747.8374 a 60,60 0 1 0 -120,0 60,60 0 1 0 120,0 z"
       style="fill:none;stroke:#000000"
       id="path2282"
       inkscape:connector-curvature="0" />
    <path
       d="m 2525.1427,-9208.6374 a 60,60 0 1 0 -120,0 60,60 0 1 0 120,0 z"
       style="fill:none;stroke:#000000"
       id="path2284"
       inkscape:connector-curvature="0" />
    <path
       d="m 1430.7427,-8287.0374 a 60,60 0 1 0 -120,0 60,60 0 1 0 120,0 z"
       style="fill:none;stroke:#000000"
       id="path2286"
       inkscape:connector-curvature="0" />
    <path
       d="m 1430.7427,-8747.8374 a 60,60 0 1 0 -120,0 60,60 0 1 0 120,0 z"
       style="fill:none;stroke:#000000"
       id="path2288"
       inkscape:connector-curvature="0" />
    <path
       d="m 1430.7427,-9208.6374 a 60,60 0 1 0 -120,0 60,60 0 1 0 120,0 z"
       style="fill:none;stroke:#000000"
       id="path2290"
       inkscape:connector-curvature="0" />
    <path
       d="m 1977.9427,-8287.0374 a 60,60 0 1 0 -120,0 60,60 0 1 0 120,0 z"
       style="fill:none;stroke:#000000"
       id="path2292"
       inkscape:connector-curvature="0" />
    <path
       d="m 336.34273,-9208.6374 a 60,60 0 1 0 -120,0 60,60 0 1 0 120,0 z"
       style="fill:none;stroke:#000000"
       id="path2294"
       inkscape:connector-curvature="0" />
    <path
       d="m 883.54273,-8287.0374 a 60,60 0 1 0 -120,0 60,60 0 1 0 120,0 z"
       style="fill:none;stroke:#000000"
       id="path2296"
       inkscape:connector-curvature="0" />
    <path
       d="m 883.54273,-8747.8374 a 60,60 0 1 0 -120,0 60,60 0 1 0 120,0 z"
       style="fill:none;stroke:#000000"
       id="path2298"
       inkscape:connector-curvature="0" />
    <path
       d="m 883.54273,-9208.6374 a 60,60 0 1 0 -120,0 60,60 0 1 0 120,0 z"
       style="fill:none;stroke:#000000"
       id="path2300"
       inkscape:connector-curvature="0" />
    <path
       d="m -2399.6573,-8287.0374 a 60,60 0 1 0 -120,0 60,60 0 1 0 120,0 z"
       style="fill:none;stroke:#000000"
       id="path2302"
       inkscape:connector-curvature="0" />
    <path
       d="M -2688,-9404.6867 H 2688"
       style="fill:none;stroke:#000000"
       id="path2304"
       inkscape:connector-curvature="0" />
    <path
       d="m -2688,-9404.6867 v 1722"
       style="fill:none;stroke:#000000"
       id="path2306"
       inkscape:connector-curvature="0" />
    <path
       d="M -2688,-7682.6867 H 2688"
       style="fill:none;stroke:#000000"
       id="path2308"
       inkscape:connector-curvature="0" />
    <path
       d="m 2688,-9404.6867 v 1722"
       style="fill:none;stroke:#000000"
       id="path2310"
       inkscape:connector-curvature="0" />
    <path
       d="m -1298.6521,-9032.6867 a 36,36 0 1 0 -72,0 36,36 0 1 0 72,0 z"
       style="fill:none;stroke:#000000"
       id="path2312"
       inkscape:connector-curvature="0" />
    <path
       d="m -1298.6521,-8438.6867 a 36,36 0 1 0 -72,0 36,36 0 1 0 72,0 z"
       style="fill:none;stroke:#000000"
       id="path2314"
       inkscape:connector-curvature="0" />
    <path
       d="m 1370.6521,-9032.6867 a 36,36 0 1 0 -72,0 36,36 0 1 0 72,0 z"
       style="fill:none;stroke:#000000"
       id="path2316"
       inkscape:connector-curvature="0" />
    <path
       d="m 1370.6521,-8438.6867 a 36,36 0 1 0 -72,0 36,36 0 1 0 72,0 z"
       style="fill:none;stroke:#000000"
       id="path2318"
       inkscape:connector-curvature="0" />
    <path
       d="m -1746,-9248.6867 a 30,30 0 1 0 -60,0 30,30 0 1 0 60,0 z"
       style="fill:none;stroke:#000000"
       id="path2320"
       inkscape:connector-curvature="0" />
    <path
       d="m -1194,-9248.6867 a 30,30 0 1 0 -60,0 30,30 0 1 0 60,0 z"
       style="fill:none;stroke:#000000"
       id="path2322"
       inkscape:connector-curvature="0" />
    <path
       d="m -642,-9248.6867 a 30,30 0 1 0 -60,0 30,30 0 1 0 60,0 z"
       style="fill:none;stroke:#000000"
       id="path2324"
       inkscape:connector-curvature="0" />
    <path
       d="m 702,-9248.6867 a 30,30 0 1 0 -60,0 30,30 0 1 0 60,0 z"
       style="fill:none;stroke:#000000"
       id="path2326"
       inkscape:connector-curvature="0" />
    <path
       d="m 1254,-9248.6867 a 30,30 0 1 0 -60,0 30,30 0 1 0 60,0 z"
       style="fill:none;stroke:#000000"
       id="path2328"
       inkscape:connector-curvature="0" />
    <path
       d="m 1806,-9248.6867 a 30,30 0 1 0 -60,0 30,30 0 1 0 60,0 z"
       style="fill:none;stroke:#000000"
       id="path2330"
       inkscape:connector-curvature="0" />
    <path
       d="m -1194,-7838.6867 a 30,30 0 1 0 -60,0 30,30 0 1 0 60,0 z"
       style="fill:none;stroke:#000000"
       id="path2332"
       inkscape:connector-curvature="0" />
    <path
       d="m -642,-7838.6867 a 30,30 0 1 0 -60,0 30,30 0 1 0 60,0 z"
       style="fill:none;stroke:#000000"
       id="path2334"
       inkscape:connector-curvature="0" />
    <path
       d="m -1746,-7838.6867 a 30,30 0 1 0 -60,0 30,30 0 1 0 60,0 z"
       style="fill:none;stroke:#000000"
       id="path2336"
       inkscape:connector-curvature="0" />
    <path
       d="m 702,-7838.6867 a 30,30 0 1 0 -60,0 30,30 0 1 0 60,0 z"
       style="fill:none;stroke:#000000"
       id="path2338"
       inkscape:connector-curvature="0" />
    <path
       d="m 1254,-7838.6867 a 30,30 0 1 0 -60,0 30,30 0 1 0 60,0 z"
       style="fill:none;stroke:#000000"
       id="path2340"
       inkscape:connector-curvature="0" />
    <path
       d="m 1806,-7838.6867 a 30,30 0 1 0 -60,0 30,30 0 1 0 60,0 z"
       style="fill:none;stroke:#000000"
       id="path2342"
       inkscape:connector-curvature="0" />
  </g>
  <g
     inkscape:groupmode="layer"
     inkscape:label="MODELSKETCH_VISIBLE"
     id="g2346"
     transform="translate(2688.5,9405.1867)" />
  <g
     inkscape:groupmode="layer"
     inkscape:label="MODELSKETCH_CONSTRUCTION"
     id="g2348"
     transform="translate(2688.5,9405.1867)" />
  <g
     inkscape:groupmode="layer"
     inkscape:label="HIDDEN_BASE_VIEW"
     id="g2350"
     transform="translate(2688.5,9405.1867)" />
  <g
     inkscape:groupmode="layer"
     inkscape:label="TANGENT_LINES"
     id="g2352"
     transform="translate(2688.5,9405.1867)" />
  <g
     inkscape:groupmode="layer"
     inkscape:label="TANGENT_HIDDEN"
     id="g2354"
     transform="translate(2688.5,9405.1867)" />
  <g
     inkscape:groupmode="layer"
     inkscape:label="INVISIBLE_LINES"
     id="g2356"
     transform="translate(2688.5,9405.1867)" />
  <g
     inkscape:groupmode="layer"
     inkscape:label="VIEW_HATCHES"
     id="g2358"
     transform="translate(2688.5,9405.1867)" />
  <g
     inkscape:groupmode="layer"
     inkscape:label="SECTION_JOG_LINES"
     id="g2360"
     transform="translate(2688.5,9405.1867)" />
</svg>
