<?xml version="1.0" encoding="UTF-8" standalone="no"?>
<svg
   xmlns:dc="http://purl.org/dc/elements/1.1/"
   xmlns:cc="http://creativecommons.org/ns#"
   xmlns:rdf="http://www.w3.org/1999/02/22-rdf-syntax-ns#"
   xmlns:svg="http://www.w3.org/2000/svg"
   xmlns="http://www.w3.org/2000/svg"
   xmlns:sodipodi="http://sodipodi.sourceforge.net/DTD/sodipodi-0.dtd"
   xmlns:inkscape="http://www.inkscape.org/namespaces/inkscape"
   width="285.60797"
   height="130.11426"
   version="1.1"
   id="svg930"
   sodipodi:docname="panel_D.svg"
   inkscape:version="0.92.4 (5da689c313, 2019-01-14)">
  <metadata
     id="metadata934">
    <rdf:RDF>
      <cc:Work
         rdf:about="">
        <dc:format>image/svg+xml</dc:format>
        <dc:type
           rdf:resource="http://purl.org/dc/dcmitype/StillImage" />
        <dc:title></dc:title>
      </cc:Work>
    </rdf:RDF>
  </metadata>
  <sodipodi:namedview
     pagecolor="#ffffff"
     bordercolor="#666666"
     borderopacity="1"
     objecttolerance="10"
     gridtolerance="10"
     guidetolerance="10"
     inkscape:pageopacity="0"
     inkscape:pageshadow="2"
     inkscape:window-width="1536"
     inkscape:window-height="1045"
     id="namedview932"
     showgrid="false"
     inkscape:zoom="1.1893044"
     inkscape:cx="86.36065"
     inkscape:cy="-136.72848"
     inkscape:window-x="0"
     inkscape:window-y="0"
     inkscape:window-maximized="0"
     inkscape:current-layer="g928" />
  <desc
     id="desc681">C:\Users\Tracy\Downloads\D.dxf - scale = 1.000000, origin = (0.000000, 0.000000), method = manual</desc>
  <defs
     id="defs696">
    <marker
       id="DistanceX"
       orient="auto"
       refX="0"
       refY="0"
       style="overflow:visible">
      <path
         d="M 3,-3 -3,3 M 0,-5 V 5"
         style="stroke:#000000;stroke-width:0.5"
         id="path683"
         inkscape:connector-curvature="0" />
    </marker>
    <pattern
       height="8"
       id="Hatch"
       patternUnits="userSpaceOnUse"
       width="8"
       x="0"
       y="0">
      <path
         d="M8 4 l-4,4"
         linecap="square"
         stroke="#000000"
         stroke-width="0.25"
         id="path686" />
      <path
         d="M6 2 l-4,4"
         linecap="square"
         stroke="#000000"
         stroke-width="0.25"
         id="path688" />
      <path
         d="M4 0 l-4,4"
         linecap="square"
         stroke="#000000"
         stroke-width="0.25"
         id="path690" />
    </pattern>
    <symbol
       id="*Model_Space" />
    <symbol
       id="*Paper_Space" />
    <symbol
       id="*Paper_Space0" />
  </defs>
  <g
     inkscape:groupmode="layer"
     inkscape:label="0"
     id="g698"
     transform="translate(142.80398,-1043.3156)" />
  <g
     inkscape:groupmode="layer"
     inkscape:label="SECTION_CUTTING_LINE"
     id="g700"
     transform="translate(142.80398,-1043.3156)" />
  <g
     inkscape:groupmode="layer"
     inkscape:label="DETAIL_VIEW_BORDER"
     id="g702"
     transform="translate(142.80398,-1043.3156)" />
  <g
     inkscape:groupmode="layer"
     inkscape:label="DETAIL_VIEW_PARENT_BORDER"
     id="g704"
     transform="translate(142.80398,-1043.3156)" />
  <g
     inkscape:groupmode="layer"
     inkscape:label="TEXT"
     id="g706"
     transform="translate(142.80398,-1043.3156)" />
  <g
     inkscape:groupmode="layer"
     inkscape:label="SKETCHED_GEOMETRY"
     id="g708"
     transform="translate(142.80398,-1043.3156)" />
  <g
     inkscape:groupmode="layer"
     inkscape:label="VIRTUAL_SHARPS"
     id="g710"
     transform="translate(142.80398,-1043.3156)" />
  <g
     inkscape:groupmode="layer"
     inkscape:label="CENTERLINES"
     id="g712"
     transform="translate(142.80398,-1043.3156)" />
  <g
     inkscape:groupmode="layer"
     inkscape:label="CENTERMARKS"
     id="g714"
     transform="translate(142.80398,-1043.3156)" />
  <g
     inkscape:groupmode="layer"
     inkscape:label="TABLES"
     id="g716"
     transform="translate(142.80398,-1043.3156)" />
  <g
     inkscape:groupmode="layer"
     inkscape:label="IMAGES"
     id="g718"
     transform="translate(142.80398,-1043.3156)" />
  <g
     inkscape:groupmode="layer"
     inkscape:label="ANNOTATION_LINES"
     id="g720"
     transform="translate(142.80398,-1043.3156)" />
  <g
     inkscape:groupmode="layer"
     inkscape:label="ANNOTATION_TEXT"
     id="g722"
     transform="translate(142.80398,-1043.3156)" />
  <g
     inkscape:groupmode="layer"
     inkscape:label="SIDE_THREAD_SYMBOLS"
     id="g724"
     transform="translate(142.80398,-1043.3156)" />
  <g
     inkscape:groupmode="layer"
     inkscape:label="SIDE_THREAD_SYMBOLS_HIDDEN"
     id="g726"
     transform="translate(142.80398,-1043.3156)" />
  <g
     inkscape:groupmode="layer"
     inkscape:label="SURFACE_THREAD_SYMBOLS"
     id="g728"
     transform="translate(142.80398,-1043.3156)" />
  <g
     inkscape:groupmode="layer"
     inkscape:label="SURFACE_THREAD_SYMBOLS_ON_AXIS"
     id="g730"
     transform="translate(142.80398,-1043.3156)" />
  <g
     inkscape:groupmode="layer"
     inkscape:label="SURFACE_THREAD_SYMBOLS_HIDDEN"
     id="g732"
     transform="translate(142.80398,-1043.3156)" />
  <g
     inkscape:groupmode="layer"
     inkscape:label="BLIND_THREAD_SYMBOLS"
     id="g734"
     transform="translate(142.80398,-1043.3156)" />
  <g
     inkscape:groupmode="layer"
     inkscape:label="BLIND_THREAD_SYMBOLS_HIDDEN"
     id="g736"
     transform="translate(142.80398,-1043.3156)" />
  <g
     inkscape:groupmode="layer"
     inkscape:label="EXPLODE_LINES"
     id="g738"
     transform="translate(142.80398,-1043.3156)" />
  <g
     inkscape:groupmode="layer"
     inkscape:label="BREAK_LINES"
     id="g740"
     transform="translate(142.80398,-1043.3156)" />
  <g
     inkscape:groupmode="layer"
     inkscape:label="SHEETMETAL_BEND_LINES_UP"
     id="g742"
     transform="translate(142.80398,-1043.3156)" />
  <g
     inkscape:groupmode="layer"
     inkscape:label="SHEETMETAL_BEND_LINES_DOWN"
     id="g744"
     transform="translate(142.80398,-1043.3156)" />
  <g
     inkscape:groupmode="layer"
     inkscape:label="SHEETMETAL_BEND_TANGENT_LINES"
     id="g746"
     transform="translate(142.80398,-1043.3156)" />
  <g
     inkscape:groupmode="layer"
     inkscape:label="SHEETMETAL_CUT_LINES"
     id="g748"
     transform="translate(142.80398,-1043.3156)" />
  <g
     inkscape:groupmode="layer"
     inkscape:label="Hidden"
     id="g750"
     transform="translate(142.80398,-1043.3156)" />
  <g
     inkscape:groupmode="layer"
     inkscape:label="Visible"
     id="g912"
     transform="translate(142.80398,-1043.3156)">
    <path
       d="m -89.351225,1069.9331 a 2.362205,2.362205 0 1 0 -4.72441,0 2.362205,2.362205 0 1 0 4.72441,0 z"
       style="fill:none;stroke:#000000"
       id="path752"
       inkscape:connector-curvature="0" />
    <path
       d="m -72.38093,1069.9331 a 2.362205,2.362205 0 1 0 -4.724409,0 2.362205,2.362205 0 1 0 4.724409,0 z"
       style="fill:none;stroke:#000000"
       id="path754"
       inkscape:connector-curvature="0" />
    <path
       d="m -55.410634,1069.9331 a 2.362205,2.362205 0 1 0 -4.72441,0 2.362205,2.362205 0 1 0 4.72441,0 z"
       style="fill:none;stroke:#000000"
       id="path756"
       inkscape:connector-curvature="0" />
    <path
       d="m -38.440339,1069.9331 a 2.362205,2.362205 0 1 0 -4.724409,0 2.362205,2.362205 0 1 0 4.724409,0 z"
       style="fill:none;stroke:#000000"
       id="path758"
       inkscape:connector-curvature="0" />
    <path
       d="m -21.470043,1069.9331 a 2.362205,2.362205 0 1 0 -4.724409,0 2.362205,2.362205 0 1 0 4.724409,0 z"
       style="fill:none;stroke:#000000"
       id="path760"
       inkscape:connector-curvature="0" />
    <path
       d="m -4.499747,1069.9331 a 2.362205,2.362205 0 1 0 -4.72441,0 2.362205,2.362205 0 1 0 4.72441,0 z"
       style="fill:none;stroke:#000000"
       id="path762"
       inkscape:connector-curvature="0" />
    <path
       d="m 12.470548,1069.9331 a 2.362205,2.362205 0 1 0 -4.724409,0 2.362205,2.362205 0 1 0 4.724409,0 z"
       style="fill:none;stroke:#000000"
       id="path764"
       inkscape:connector-curvature="0" />
    <path
       d="m 29.440844,1069.9331 a 2.362205,2.362205 0 1 0 -4.72441,0 2.362205,2.362205 0 1 0 4.72441,0 z"
       style="fill:none;stroke:#000000"
       id="path766"
       inkscape:connector-curvature="0" />
    <path
       d="m 46.411139,1069.9331 a 2.362205,2.362205 0 1 0 -4.724409,0 2.362205,2.362205 0 1 0 4.724409,0 z"
       style="fill:none;stroke:#000000"
       id="path768"
       inkscape:connector-curvature="0" />
    <path
       d="m 63.381435,1069.9331 a 2.362205,2.362205 0 1 0 -4.724409,0 2.362205,2.362205 0 1 0 4.724409,0 z"
       style="fill:none;stroke:#000000"
       id="path770"
       inkscape:connector-curvature="0" />
    <path
       d="m 80.351731,1069.9331 a 2.362205,2.362205 0 1 0 -4.72441,0 2.362205,2.362205 0 1 0 4.72441,0 z"
       style="fill:none;stroke:#000000"
       id="path772"
       inkscape:connector-curvature="0" />
    <path
       d="m 97.322026,1069.9331 a 2.362205,2.362205 0 1 0 -4.724409,0 2.362205,2.362205 0 1 0 4.724409,0 z"
       style="fill:none;stroke:#000000"
       id="path774"
       inkscape:connector-curvature="0" />
    <path
       d="m -95.005545,1089.9367 a 2.362205,2.362205 0 1 0 -4.72441,0 2.362205,2.362205 0 1 0 4.72441,0 z"
       style="fill:none;stroke:#000000"
       id="path776"
       inkscape:connector-curvature="0" />
    <path
       d="m -77.152302,1089.9367 a 2.362205,2.362205 0 1 0 -4.72441,0 2.362205,2.362205 0 1 0 4.72441,0 z"
       style="fill:none;stroke:#000000"
       id="path778"
       inkscape:connector-curvature="0" />
    <path
       d="m -59.29906,1089.9367 a 2.362205,2.362205 0 1 0 -4.724409,0 2.362205,2.362205 0 1 0 4.724409,0 z"
       style="fill:none;stroke:#000000"
       id="path780"
       inkscape:connector-curvature="0" />
    <path
       d="m -41.445817,1089.9367 a 2.362205,2.362205 0 1 0 -4.72441,0 2.362205,2.362205 0 1 0 4.72441,0 z"
       style="fill:none;stroke:#000000"
       id="path782"
       inkscape:connector-curvature="0" />
    <path
       d="m -23.592575,1089.9367 a 2.362205,2.362205 0 1 0 -4.724409,0 2.362205,2.362205 0 1 0 4.724409,0 z"
       style="fill:none;stroke:#000000"
       id="path784"
       inkscape:connector-curvature="0" />
    <path
       d="m -5.739332,1089.9367 a 2.362205,2.362205 0 1 0 -4.724409,0 2.362205,2.362205 0 1 0 4.724409,0 z"
       style="fill:none;stroke:#000000"
       id="path786"
       inkscape:connector-curvature="0" />
    <path
       d="m 12.113911,1089.9367 a 2.362205,2.362205 0 1 0 -4.72441,0 2.362205,2.362205 0 1 0 4.72441,0 z"
       style="fill:none;stroke:#000000"
       id="path788"
       inkscape:connector-curvature="0" />
    <path
       d="m 29.967153,1089.9367 a 2.362205,2.362205 0 1 0 -4.724409,0 2.362205,2.362205 0 1 0 4.724409,0 z"
       style="fill:none;stroke:#000000"
       id="path790"
       inkscape:connector-curvature="0" />
    <path
       d="m 47.820396,1089.9367 a 2.362205,2.362205 0 1 0 -4.72441,0 2.362205,2.362205 0 1 0 4.72441,0 z"
       style="fill:none;stroke:#000000"
       id="path792"
       inkscape:connector-curvature="0" />
    <path
       d="m 65.673639,1089.9367 a 2.362205,2.362205 0 1 0 -4.72441,0 2.362205,2.362205 0 1 0 4.72441,0 z"
       style="fill:none;stroke:#000000"
       id="path794"
       inkscape:connector-curvature="0" />
    <path
       d="m 83.526881,1089.9367 a 2.362205,2.362205 0 1 0 -4.724409,0 2.362205,2.362205 0 1 0 4.724409,0 z"
       style="fill:none;stroke:#000000"
       id="path796"
       inkscape:connector-curvature="0" />
    <path
       d="m 101.38012,1089.9367 a 2.362205,2.362205 0 1 0 -4.724406,0 2.362205,2.362205 0 1 0 4.724406,0 z"
       style="fill:none;stroke:#000000"
       id="path798"
       inkscape:connector-curvature="0" />
    <path
       d="m -100.65986,1109.9403 a 2.362205,2.362205 0 1 0 -4.72441,0 2.362205,2.362205 0 1 0 4.72441,0 z"
       style="fill:none;stroke:#000000"
       id="path800"
       inkscape:connector-curvature="0" />
    <path
       d="m -81.877736,1109.9403 a 2.362205,2.362205 0 1 0 -4.72441,0 2.362205,2.362205 0 1 0 4.72441,0 z"
       style="fill:none;stroke:#000000"
       id="path802"
       inkscape:connector-curvature="0" />
    <path
       d="m -63.095608,1109.9403 a 2.362205,2.362205 0 1 0 -4.724409,0 2.362205,2.362205 0 1 0 4.724409,0 z"
       style="fill:none;stroke:#000000"
       id="path804"
       inkscape:connector-curvature="0" />
    <path
       d="m -44.313479,1109.9403 a 2.362205,2.362205 0 1 0 -4.72441,0 2.362205,2.362205 0 1 0 4.72441,0 z"
       style="fill:none;stroke:#000000"
       id="path806"
       inkscape:connector-curvature="0" />
    <path
       d="m -25.531351,1109.9403 a 2.362205,2.362205 0 1 0 -4.724409,0 2.362205,2.362205 0 1 0 4.724409,0 z"
       style="fill:none;stroke:#000000"
       id="path808"
       inkscape:connector-curvature="0" />
    <path
       d="m -6.749222,1109.9403 a 2.362205,2.362205 0 1 0 -4.72441,0 2.362205,2.362205 0 1 0 4.72441,0 z"
       style="fill:none;stroke:#000000"
       id="path810"
       inkscape:connector-curvature="0" />
    <path
       d="m 12.032906,1109.9403 a 2.362205,2.362205 0 1 0 -4.724409,0 2.362205,2.362205 0 1 0 4.724409,0 z"
       style="fill:none;stroke:#000000"
       id="path812"
       inkscape:connector-curvature="0" />
    <path
       d="m 30.815035,1109.9403 a 2.362205,2.362205 0 1 0 -4.72441,0 2.362205,2.362205 0 1 0 4.72441,0 z"
       style="fill:none;stroke:#000000"
       id="path814"
       inkscape:connector-curvature="0" />
    <path
       d="m 49.597163,1109.9403 a 2.362205,2.362205 0 1 0 -4.724409,0 2.362205,2.362205 0 1 0 4.724409,0 z"
       style="fill:none;stroke:#000000"
       id="path816"
       inkscape:connector-curvature="0" />
    <path
       d="m 68.379291,1109.9403 a 2.362205,2.362205 0 1 0 -4.724409,0 2.362205,2.362205 0 1 0 4.724409,0 z"
       style="fill:none;stroke:#000000"
       id="path818"
       inkscape:connector-curvature="0" />
    <path
       d="m 87.16142,1109.9403 a 2.362205,2.362205 0 1 0 -4.72441,0 2.362205,2.362205 0 1 0 4.72441,0 z"
       style="fill:none;stroke:#000000"
       id="path820"
       inkscape:connector-curvature="0" />
    <path
       d="m 105.94355,1109.9403 a 2.362205,2.362205 0 1 0 -4.72441,0 2.362205,2.362205 0 1 0 4.72441,0 z"
       style="fill:none;stroke:#000000"
       id="path822"
       inkscape:connector-curvature="0" />
    <path
       d="m -106.31418,1129.944 a 2.362205,2.362205 0 1 0 -4.72441,0 2.362205,2.362205 0 1 0 4.72441,0 z"
       style="fill:none;stroke:#000000"
       id="path824"
       inkscape:connector-curvature="0" />
    <path
       d="m -86.554841,1129.944 a 2.362205,2.362205 0 1 0 -4.724409,0 2.362205,2.362205 0 1 0 4.724409,0 z"
       style="fill:none;stroke:#000000"
       id="path826"
       inkscape:connector-curvature="0" />
    <path
       d="m -66.795498,1129.944 a 2.362205,2.362205 0 1 0 -4.724409,0 2.362205,2.362205 0 1 0 4.724409,0 z"
       style="fill:none;stroke:#000000"
       id="path828"
       inkscape:connector-curvature="0" />
    <path
       d="m -47.036154,1129.944 a 2.362205,2.362205 0 1 0 -4.72441,0 2.362205,2.362205 0 1 0 4.72441,0 z"
       style="fill:none;stroke:#000000"
       id="path830"
       inkscape:connector-curvature="0" />
    <path
       d="m -27.276811,1129.944 a 2.362205,2.362205 0 1 0 -4.72441,0 2.362205,2.362205 0 1 0 4.72441,0 z"
       style="fill:none;stroke:#000000"
       id="path832"
       inkscape:connector-curvature="0" />
    <path
       d="m -7.517468,1129.944 a 2.362205,2.362205 0 1 0 -4.724409,0 2.362205,2.362205 0 1 0 4.724409,0 z"
       style="fill:none;stroke:#000000"
       id="path834"
       inkscape:connector-curvature="0" />
    <path
       d="m 12.241875,1129.944 a 2.362205,2.362205 0 1 0 -4.724409,0 2.362205,2.362205 0 1 0 4.724409,0 z"
       style="fill:none;stroke:#000000"
       id="path836"
       inkscape:connector-curvature="0" />
    <path
       d="m 32.001219,1129.944 a 2.362205,2.362205 0 1 0 -4.72441,0 2.362205,2.362205 0 1 0 4.72441,0 z"
       style="fill:none;stroke:#000000"
       id="path838"
       inkscape:connector-curvature="0" />
    <path
       d="m 51.760562,1129.944 a 2.362205,2.362205 0 1 0 -4.72441,0 2.362205,2.362205 0 1 0 4.72441,0 z"
       style="fill:none;stroke:#000000"
       id="path840"
       inkscape:connector-curvature="0" />
    <path
       d="m 71.519905,1129.944 a 2.362205,2.362205 0 1 0 -4.724409,0 2.362205,2.362205 0 1 0 4.724409,0 z"
       style="fill:none;stroke:#000000"
       id="path842"
       inkscape:connector-curvature="0" />
    <path
       d="m 91.279248,1129.944 a 2.362205,2.362205 0 1 0 -4.724409,0 2.362205,2.362205 0 1 0 4.724409,0 z"
       style="fill:none;stroke:#000000"
       id="path844"
       inkscape:connector-curvature="0" />
    <path
       d="m 111.03859,1129.944 a 2.362205,2.362205 0 1 0 -4.72441,0 2.362205,2.362205 0 1 0 4.72441,0 z"
       style="fill:none;stroke:#000000"
       id="path846"
       inkscape:connector-curvature="0" />
    <path
       d="m -111.9685,1149.9476 a 2.362205,2.362205 0 1 0 -4.72441,0 2.362205,2.362205 0 1 0 4.72441,0 z"
       style="fill:none;stroke:#000000"
       id="path848"
       inkscape:connector-curvature="0" />
    <path
       d="m -91.181102,1149.9476 a 2.362205,2.362205 0 1 0 -4.72441,0 2.362205,2.362205 0 1 0 4.72441,0 z"
       style="fill:none;stroke:#000000"
       id="path850"
       inkscape:connector-curvature="0" />
    <path
       d="m -70.393701,1149.9476 a 2.362205,2.362205 0 1 0 -4.724409,0 2.362205,2.362205 0 1 0 4.724409,0 z"
       style="fill:none;stroke:#000000"
       id="path852"
       inkscape:connector-curvature="0" />
    <path
       d="m -49.606299,1149.9476 a 2.362205,2.362205 0 1 0 -4.72441,0 2.362205,2.362205 0 1 0 4.72441,0 z"
       style="fill:none;stroke:#000000"
       id="path854"
       inkscape:connector-curvature="0" />
    <path
       d="m -28.818898,1149.9476 a 2.362205,2.362205 0 1 0 -4.724409,0 2.362205,2.362205 0 1 0 4.724409,0 z"
       style="fill:none;stroke:#000000"
       id="path856"
       inkscape:connector-curvature="0" />
    <path
       d="m -8.031496,1149.9476 a 2.362205,2.362205 0 1 0 -4.72441,0 2.362205,2.362205 0 1 0 4.72441,0 z"
       style="fill:none;stroke:#000000"
       id="path858"
       inkscape:connector-curvature="0" />
    <path
       d="m 12.755906,1149.9476 a 2.362205,2.362205 0 1 0 -4.72441,0 2.362205,2.362205 0 1 0 4.72441,0 z"
       style="fill:none;stroke:#000000"
       id="path860"
       inkscape:connector-curvature="0" />
    <path
       d="m 33.543307,1149.9476 a 2.362205,2.362205 0 1 0 -4.724409,0 2.362205,2.362205 0 1 0 4.724409,0 z"
       style="fill:none;stroke:#000000"
       id="path862"
       inkscape:connector-curvature="0" />
    <path
       d="m 54.330709,1149.9476 a 2.362205,2.362205 0 1 0 -4.72441,0 2.362205,2.362205 0 1 0 4.72441,0 z"
       style="fill:none;stroke:#000000"
       id="path864"
       inkscape:connector-curvature="0" />
    <path
       d="m 75.11811,1149.9476 a 2.362205,2.362205 0 1 0 -4.724409,0 2.362205,2.362205 0 1 0 4.724409,0 z"
       style="fill:none;stroke:#000000"
       id="path866"
       inkscape:connector-curvature="0" />
    <path
       d="m 95.905512,1149.9476 a 2.362205,2.362205 0 1 0 -4.72441,0 2.362205,2.362205 0 1 0 4.72441,0 z"
       style="fill:none;stroke:#000000"
       id="path868"
       inkscape:connector-curvature="0" />
    <path
       d="m 116.69291,1149.9476 a 2.362205,2.362205 0 1 0 -4.72441,0 2.362205,2.362205 0 1 0 4.72441,0 z"
       style="fill:none;stroke:#000000"
       id="path870"
       inkscape:connector-curvature="0" />
    <path
       d="m -63.102914,1157.8118 a 1.417323,1.417323 0 1 0 -2.834646,0 1.417323,1.417323 0 1 0 2.834646,0 z"
       style="fill:none;stroke:#000000"
       id="path872"
       inkscape:connector-curvature="0" />
    <path
       d="m -63.102914,1058.9338 a 1.417323,1.417323 0 1 0 -2.834646,0 1.417323,1.417323 0 1 0 2.834646,0 z"
       style="fill:none;stroke:#000000"
       id="path874"
       inkscape:connector-curvature="0" />
    <path
       d="m 65.93756,1058.9338 a 1.417323,1.417323 0 1 0 -2.834646,0 1.417323,1.417323 0 1 0 2.834646,0 z"
       style="fill:none;stroke:#000000"
       id="path876"
       inkscape:connector-curvature="0" />
    <path
       d="m 65.93756,1157.8118 a 1.417323,1.417323 0 1 0 -2.834646,0 1.417323,1.417323 0 1 0 2.834646,0 z"
       style="fill:none;stroke:#000000"
       id="path878"
       inkscape:connector-curvature="0" />
    <path
       d="m -52.90078,1052.0834 a 1.1811025,1.1811025 0 1 0 -2.362205,0 1.1811025,1.1811025 0 1 0 2.362205,0 z"
       style="fill:none;stroke:#000000"
       id="path880"
       inkscape:connector-curvature="0" />
    <path
       d="m -29.055118,1052.0834 a 1.1811025,1.1811025 0 1 0 -2.362205,0 1.1811025,1.1811025 0 1 0 2.362205,0 z"
       style="fill:none;stroke:#000000"
       id="path882"
       inkscape:connector-curvature="0" />
    <path
       d="m -74.409449,1052.0834 a 1.1811025,1.1811025 0 1 0 -2.362205,0 1.1811025,1.1811025 0 1 0 2.362205,0 z"
       style="fill:none;stroke:#000000"
       id="path884"
       inkscape:connector-curvature="0" />
    <path
       d="m 55.262985,1052.0834 a 1.1811025,1.1811025 0 1 0 -2.362205,0 1.1811025,1.1811025 0 1 0 2.362205,0 z"
       style="fill:none;stroke:#000000"
       id="path886"
       inkscape:connector-curvature="0" />
    <path
       d="m 76.771654,1052.0834 a 1.1811025,1.1811025 0 1 0 -2.362205,0 1.1811025,1.1811025 0 1 0 2.362205,0 z"
       style="fill:none;stroke:#000000"
       id="path888"
       inkscape:connector-curvature="0" />
    <path
       d="m 31.417323,1052.0834 a 1.1811025,1.1811025 0 1 0 -2.362205,0 1.1811025,1.1811025 0 1 0 2.362205,0 z"
       style="fill:none;stroke:#000000"
       id="path890"
       inkscape:connector-curvature="0" />
    <path
       d="m -69.980315,1164.6622 a 1.1811025,1.1811025 0 1 0 -2.362205,0 1.1811025,1.1811025 0 1 0 2.362205,0 z"
       style="fill:none;stroke:#000000"
       id="path892"
       inkscape:connector-curvature="0" />
    <path
       d="m -110.90551,1164.6622 a 1.181105,1.181105 0 1 0 -2.36221,0 1.181105,1.181105 0 1 0 2.36221,0 z"
       style="fill:none;stroke:#000000"
       id="path894"
       inkscape:connector-curvature="0" />
    <path
       d="m -29.055118,1164.6622 a 1.1811025,1.1811025 0 1 0 -2.362205,0 1.1811025,1.1811025 0 1 0 2.362205,0 z"
       style="fill:none;stroke:#000000"
       id="path896"
       inkscape:connector-curvature="0" />
    <path
       d="m 31.417323,1164.6622 a 1.1811025,1.1811025 0 1 0 -2.362205,0 1.1811025,1.1811025 0 1 0 2.362205,0 z"
       style="fill:none;stroke:#000000"
       id="path898"
       inkscape:connector-curvature="0" />
    <path
       d="m 72.34252,1164.6622 a 1.1811025,1.1811025 0 1 0 -2.362205,0 1.1811025,1.1811025 0 1 0 2.362205,0 z"
       style="fill:none;stroke:#000000"
       id="path900"
       inkscape:connector-curvature="0" />
    <path
       d="m 113.26772,1164.6622 a 1.181105,1.181105 0 1 0 -2.36221,0 1.181105,1.181105 0 1 0 2.36221,0 z"
       style="fill:none;stroke:#000000"
       id="path902"
       inkscape:connector-curvature="0" />
    <path
       d="M -142.32283,1172.9299 H 142.32283"
       style="fill:none;stroke:#0000FF"
       id="path904"
       inkscape:connector-curvature="0" />
    <path
       d="M 142.32283,1172.9299 105.82677,1043.8156"
       style="fill:none;stroke:#00FFFF"
       id="path906"
       inkscape:connector-curvature="0" />
    <path
       d="M -105.82677,1043.8156 H 105.82677"
       style="fill:none;stroke:#FF00FF"
       id="path908"
       inkscape:connector-curvature="0" />
    <path
       d="m -142.32283,1172.9299 36.49606,-129.1143"
       style="fill:none;stroke:#000077"
       id="path910"
       inkscape:connector-curvature="0" />
  </g>
  <g
     inkscape:groupmode="layer"
     inkscape:label="ModelSketch_Visible"
     id="g914"
     transform="translate(142.80398,-1043.3156)" />
  <g
     inkscape:groupmode="layer"
     inkscape:label="ModelSketch_Construction"
     id="g916"
     transform="translate(142.80398,-1043.3156)" />
  <g
     inkscape:groupmode="layer"
     inkscape:label="HIDDEN_BASE_VIEW"
     id="g918"
     transform="translate(142.80398,-1043.3156)" />
  <g
     inkscape:groupmode="layer"
     inkscape:label="TANGENT_LINES"
     id="g920"
     transform="translate(142.80398,-1043.3156)" />
  <g
     inkscape:groupmode="layer"
     inkscape:label="TANGENT_HIDDEN"
     id="g922"
     transform="translate(142.80398,-1043.3156)" />
  <g
     inkscape:groupmode="layer"
     inkscape:label="INVISIBLE_LINES"
     id="g924"
     transform="translate(142.80398,-1043.3156)" />
  <g
     inkscape:groupmode="layer"
     inkscape:label="VIEW_HATCHES"
     id="g926"
     transform="translate(142.80398,-1043.3156)" />
  <g
     inkscape:groupmode="layer"
     inkscape:label="SECTION_JOG_LINES"
     id="g928"
     transform="translate(142.80398,-1043.3156)" />
</svg>
