<?xml version="1.0" encoding="UTF-8" standalone="no"?>
<svg
   xmlns:dc="http://purl.org/dc/elements/1.1/"
   xmlns:cc="http://creativecommons.org/ns#"
   xmlns:rdf="http://www.w3.org/1999/02/22-rdf-syntax-ns#"
   xmlns:svg="http://www.w3.org/2000/svg"
   xmlns="http://www.w3.org/2000/svg"
   xmlns:sodipodi="http://sodipodi.sourceforge.net/DTD/sodipodi-0.dtd"
   xmlns:inkscape="http://www.inkscape.org/namespaces/inkscape"
   width="71.132454cm"
   height="161.47661cm"
   version="1.1"
   id="svg2168"
   sodipodi:docname="B_LED.svg"
   inkscape:version="0.92.4 (5da689c313, 2019-01-14)">
  <metadata
     id="metadata2172">
    <rdf:RDF>
      <cc:Work
         rdf:about="">
        <dc:format>image/svg+xml</dc:format>
        <dc:type
           rdf:resource="http://purl.org/dc/dcmitype/StillImage" />
        <dc:title></dc:title>
      </cc:Work>
    </rdf:RDF>
  </metadata>
  <sodipodi:namedview
     pagecolor="#ffffff"
     bordercolor="#666666"
     borderopacity="1"
     objecttolerance="10"
     gridtolerance="10"
     guidetolerance="10"
     inkscape:pageopacity="0"
     inkscape:pageshadow="2"
     inkscape:window-width="1352"
     inkscape:window-height="1008"
     id="namedview2170"
     showgrid="false"
     inkscape:zoom="0.074331527"
     inkscape:cx="3084.821"
     inkscape:cy="3675.9969"
     inkscape:window-x="26"
     inkscape:window-y="57"
     inkscape:window-maximized="0"
     inkscape:current-layer="g2166"
     inkscape:document-units="cm"
     units="cm" />
  <desc
     id="desc1946">C:\Users\Tracy\Downloads\B_LED.dxf - scale = 25.400000, origin = (0.000000, 0.000000), method = file</desc>
  <defs
     id="defs1960">
    <marker
       id="DistanceX"
       orient="auto"
       refX="0"
       refY="0"
       style="overflow:visible">
      <path
         d="M 3,-3 -3,3 M 0,-5 V 5"
         style="stroke:#000000;stroke-width:0.5"
         id="path1948"
         inkscape:connector-curvature="0" />
    </marker>
    <pattern
       height="8"
       id="Hatch"
       patternUnits="userSpaceOnUse"
       width="8"
       x="0"
       y="0">
      <path
         d="M8 4 l-4,4"
         linecap="square"
         stroke="#000000"
         stroke-width="0.25"
         id="path1951" />
      <path
         d="M6 2 l-4,4"
         linecap="square"
         stroke="#000000"
         stroke-width="0.25"
         id="path1953" />
      <path
         d="M4 0 l-4,4"
         linecap="square"
         stroke="#000000"
         stroke-width="0.25"
         id="path1955" />
    </pattern>
    <symbol
       id="*MODEL_SPACE" />
    <symbol
       id="*PAPER_SPACE" />
  </defs>
  <g
     inkscape:groupmode="layer"
     inkscape:label="0"
     id="g1962"
     transform="translate(2687.9706,14780.908)" />
  <g
     inkscape:groupmode="layer"
     inkscape:label="SECTION_CUTTING_LINE"
     id="g1964"
     transform="translate(2687.9706,14780.908)" />
  <g
     inkscape:groupmode="layer"
     inkscape:label="DETAIL_VIEW_BORDER"
     id="g1966"
     transform="translate(2687.9706,14780.908)" />
  <g
     inkscape:groupmode="layer"
     inkscape:label="DETAIL_VIEW_PARENT_BORDER"
     id="g1968"
     transform="translate(2687.9706,14780.908)" />
  <g
     inkscape:groupmode="layer"
     inkscape:label="TEXT"
     id="g1970"
     transform="translate(2687.9706,14780.908)" />
  <g
     inkscape:groupmode="layer"
     inkscape:label="SKETCHED_GEOMETRY"
     id="g1972"
     transform="translate(2687.9706,14780.908)" />
  <g
     inkscape:groupmode="layer"
     inkscape:label="VIRTUAL_SHARPS"
     id="g1974"
     transform="translate(2687.9706,14780.908)" />
  <g
     inkscape:groupmode="layer"
     inkscape:label="CENTERLINES"
     id="g1976"
     transform="translate(2687.9706,14780.908)" />
  <g
     inkscape:groupmode="layer"
     inkscape:label="CENTERMARKS"
     id="g1978"
     transform="translate(2687.9706,14780.908)" />
  <g
     inkscape:groupmode="layer"
     inkscape:label="TABLES"
     id="g1980"
     transform="translate(2687.9706,14780.908)" />
  <g
     inkscape:groupmode="layer"
     inkscape:label="IMAGES"
     id="g1982"
     transform="translate(2687.9706,14780.908)" />
  <g
     inkscape:groupmode="layer"
     inkscape:label="ANNOTATION_LINES"
     id="g1984"
     transform="translate(2687.9706,14780.908)" />
  <g
     inkscape:groupmode="layer"
     inkscape:label="ANNOTATION_TEXT"
     id="g1986"
     transform="translate(2687.9706,14780.908)" />
  <g
     inkscape:groupmode="layer"
     inkscape:label="SIDE_THREAD_SYMBOLS"
     id="g1988"
     transform="translate(2687.9706,14780.908)" />
  <g
     inkscape:groupmode="layer"
     inkscape:label="SIDE_THREAD_SYMBOLS_HIDDEN"
     id="g1990"
     transform="translate(2687.9706,14780.908)" />
  <g
     inkscape:groupmode="layer"
     inkscape:label="SURFACE_THREAD_SYMBOLS"
     id="g1992"
     transform="translate(2687.9706,14780.908)" />
  <g
     inkscape:groupmode="layer"
     inkscape:label="SURFACE_THREAD_SYMBOLS_ON_"
     id="g1994"
     transform="translate(2687.9706,14780.908)" />
  <g
     inkscape:groupmode="layer"
     inkscape:label="SURFACE_THREAD_SYMBOLS_HID"
     id="g1996"
     transform="translate(2687.9706,14780.908)" />
  <g
     inkscape:groupmode="layer"
     inkscape:label="BLIND_THREAD_SYMBOLS"
     id="g1998"
     transform="translate(2687.9706,14780.908)" />
  <g
     inkscape:groupmode="layer"
     inkscape:label="BLIND_THREAD_SYMBOLS_HIDDE"
     id="g2000"
     transform="translate(2687.9706,14780.908)" />
  <g
     inkscape:groupmode="layer"
     inkscape:label="EXPLODE_LINES"
     id="g2002"
     transform="translate(2687.9706,14780.908)" />
  <g
     inkscape:groupmode="layer"
     inkscape:label="BREAK_LINES"
     id="g2004"
     transform="translate(2687.9706,14780.908)" />
  <g
     inkscape:groupmode="layer"
     inkscape:label="SHEETMETAL_BEND_LINES_UP"
     id="g2006"
     transform="translate(2687.9706,14780.908)" />
  <g
     inkscape:groupmode="layer"
     inkscape:label="SHEETMETAL_BEND_LINES_DOWN"
     id="g2008"
     transform="translate(2687.9706,14780.908)" />
  <g
     inkscape:groupmode="layer"
     inkscape:label="SHEETMETAL_BEND_TANGENT_LI"
     id="g2010"
     transform="translate(2687.9706,14780.908)" />
  <g
     inkscape:groupmode="layer"
     inkscape:label="SHEETMETAL_CUT_LINES"
     id="g2012"
     transform="translate(2687.9706,14780.908)" />
  <g
     inkscape:groupmode="layer"
     inkscape:label="HIDDEN"
     id="g2014"
     transform="translate(2687.9706,14780.908)" />
  <g
     inkscape:groupmode="layer"
     inkscape:label="VISIBLE"
     id="g2150"
     transform="translate(2687.9706,14780.908)">
    <path
       d="m -2390.6517,-9042.7513 a 60,60 0 1 0 -120,0 60,60 0 1 0 120,0 z"
       style="fill:none;stroke:#000000"
       id="path2016"
       inkscape:connector-curvature="0" />
    <path
       d="m -1664.2162,-14492.17 a 60,60 0 1 0 -120,0 60,60 0 1 0 120,0 z"
       style="fill:none;stroke:#000000"
       id="path2018"
       inkscape:connector-curvature="0" />
    <path
       d="m -1681.3118,-13945.237 a 60,60 0 1 0 -120,0 60,60 0 1 0 120,0 z"
       style="fill:none;stroke:#000000"
       id="path2020"
       inkscape:connector-curvature="0" />
    <path
       d="m -1698.4073,-13398.304 a 60,60 0 1 0 -120,0 60,60 0 1 0 120,0 z"
       style="fill:none;stroke:#000000"
       id="path2022"
       inkscape:connector-curvature="0" />
    <path
       d="m -2368.5455,-9589.5046 a 60,60 0 1 0 -120,0 60,60 0 1 0 120,0 z"
       style="fill:none;stroke:#000000"
       id="path2024"
       inkscape:connector-curvature="0" />
    <path
       d="m -2346.4392,-10136.258 a 60,60 0 1 0 -120,0 60,60 0 1 0 120,0 z"
       style="fill:none;stroke:#000000"
       id="path2026"
       inkscape:connector-curvature="0" />
    <path
       d="m -2324.3329,-10683.011 a 60,60 0 1 0 -120,0 60,60 0 1 0 120,0 z"
       style="fill:none;stroke:#000000"
       id="path2028"
       inkscape:connector-curvature="0" />
    <path
       d="m -2302.2267,-11229.764 a 60,60 0 1 0 -120,0 60,60 0 1 0 120,0 z"
       style="fill:none;stroke:#000000"
       id="path2030"
       inkscape:connector-curvature="0" />
    <path
       d="m -1715.5028,-12851.371 a 60,60 0 1 0 -120,0 60,60 0 1 0 120,0 z"
       style="fill:none;stroke:#000000"
       id="path2032"
       inkscape:connector-curvature="0" />
    <path
       d="m -1732.5983,-12304.438 a 60,60 0 1 0 -120,0 60,60 0 1 0 120,0 z"
       style="fill:none;stroke:#000000"
       id="path2034"
       inkscape:connector-curvature="0" />
    <path
       d="m -1749.6938,-11757.505 a 60,60 0 1 0 -120,0 60,60 0 1 0 120,0 z"
       style="fill:none;stroke:#000000"
       id="path2036"
       inkscape:connector-curvature="0" />
    <path
       d="m -1766.7893,-11210.572 a 60,60 0 1 0 -120,0 60,60 0 1 0 120,0 z"
       style="fill:none;stroke:#000000"
       id="path2038"
       inkscape:connector-curvature="0" />
    <path
       d="m -1783.8849,-10663.639 a 60,60 0 1 0 -120,0 60,60 0 1 0 120,0 z"
       style="fill:none;stroke:#000000"
       id="path2040"
       inkscape:connector-curvature="0" />
    <path
       d="m -1800.9804,-10116.707 a 60,60 0 1 0 -120,0 60,60 0 1 0 120,0 z"
       style="fill:none;stroke:#000000"
       id="path2042"
       inkscape:connector-curvature="0" />
    <path
       d="m -1818.0759,-9569.7737 a 60,60 0 1 0 -120,0 60,60 0 1 0 120,0 z"
       style="fill:none;stroke:#000000"
       id="path2044"
       inkscape:connector-curvature="0" />
    <path
       d="m -1835.1714,-9022.8408 a 60,60 0 1 0 -120,0 60,60 0 1 0 120,0 z"
       style="fill:none;stroke:#000000"
       id="path2046"
       inkscape:connector-curvature="0" />
    <path
       d="m -2280.1204,-11776.518 a 60,60 0 1 0 -120,0 60,60 0 1 0 120,0 z"
       style="fill:none;stroke:#000000"
       id="path2048"
       inkscape:connector-curvature="0" />
    <path
       d="m -2258.0141,-12323.271 a 60,60 0 1 0 -120,0 60,60 0 1 0 120,0 z"
       style="fill:none;stroke:#000000"
       id="path2050"
       inkscape:connector-curvature="0" />
    <path
       d="m -2235.9079,-12870.024 a 60,60 0 1 0 -120,0 60,60 0 1 0 120,0 z"
       style="fill:none;stroke:#000000"
       id="path2052"
       inkscape:connector-curvature="0" />
    <path
       d="m -2213.8016,-13416.778 a 60,60 0 1 0 -120,0 60,60 0 1 0 120,0 z"
       style="fill:none;stroke:#000000"
       id="path2054"
       inkscape:connector-curvature="0" />
    <path
       d="m -2191.6954,-13963.531 a 60,60 0 1 0 -120,0 60,60 0 1 0 120,0 z"
       style="fill:none;stroke:#000000"
       id="path2056"
       inkscape:connector-curvature="0" />
    <path
       d="m -2169.5891,-14510.284 a 60,60 0 1 0 -120,0 60,60 0 1 0 120,0 z"
       style="fill:none;stroke:#000000"
       id="path2058"
       inkscape:connector-curvature="0" />
    <path
       d="m -149.45523,-13918.423 a 60,60 0 1 0 -120,0 60,60 0 1 0 120,0 z"
       style="fill:none;stroke:#000000"
       id="path2060"
       inkscape:connector-curvature="0" />
    <path
       d="m -147.39888,-14465.619 a 60,60 0 1 0 -120,0 60,60 0 1 0 120,0 z"
       style="fill:none;stroke:#000000"
       id="path2062"
       inkscape:connector-curvature="0" />
    <path
       d="m -723.78008,-8998.293 a 60,60 0 1 0 -120,0 60,60 0 1 0 120,0 z"
       style="fill:none;stroke:#000000"
       id="path2064"
       inkscape:connector-curvature="0" />
    <path
       d="m -716.70994,-9545.4473 a 60,60 0 1 0 -120,0 60,60 0 1 0 120,0 z"
       style="fill:none;stroke:#000000"
       id="path2066"
       inkscape:connector-curvature="0" />
    <path
       d="m -709.6398,-10092.602 a 60,60 0 1 0 -120,0 60,60 0 1 0 120,0 z"
       style="fill:none;stroke:#000000"
       id="path2068"
       inkscape:connector-curvature="0" />
    <path
       d="m -702.56966,-10639.756 a 60,60 0 1 0 -120,0 60,60 0 1 0 120,0 z"
       style="fill:none;stroke:#000000"
       id="path2070"
       inkscape:connector-curvature="0" />
    <path
       d="m -695.49952,-11186.91 a 60,60 0 1 0 -120,0 60,60 0 1 0 120,0 z"
       style="fill:none;stroke:#000000"
       id="path2072"
       inkscape:connector-curvature="0" />
    <path
       d="m -688.42938,-11734.065 a 60,60 0 1 0 -120,0 60,60 0 1 0 120,0 z"
       style="fill:none;stroke:#000000"
       id="path2074"
       inkscape:connector-curvature="0" />
    <path
       d="m -151.51158,-13371.227 a 60,60 0 1 0 -120,0 60,60 0 1 0 120,0 z"
       style="fill:none;stroke:#000000"
       id="path2076"
       inkscape:connector-curvature="0" />
    <path
       d="m -153.56793,-12824.031 a 60,60 0 1 0 -120,0 60,60 0 1 0 120,0 z"
       style="fill:none;stroke:#000000"
       id="path2078"
       inkscape:connector-curvature="0" />
    <path
       d="m -155.62428,-12276.834 a 60,60 0 1 0 -120,0 60,60 0 1 0 120,0 z"
       style="fill:none;stroke:#000000"
       id="path2080"
       inkscape:connector-curvature="0" />
    <path
       d="m -157.68062,-11729.638 a 60.000005,60.000005 0 1 0 -120.00001,0 60.000005,60.000005 0 1 0 120.00001,0 z"
       style="fill:none;stroke:#000000"
       id="path2082"
       inkscape:connector-curvature="0" />
    <path
       d="m -159.73697,-11182.442 a 60,60 0 1 0 -120,0 60,60 0 1 0 120,0 z"
       style="fill:none;stroke:#000000"
       id="path2084"
       inkscape:connector-curvature="0" />
    <path
       d="m -161.79332,-10635.246 a 60,60 0 1 0 -120,0 60,60 0 1 0 120,0 z"
       style="fill:none;stroke:#000000"
       id="path2086"
       inkscape:connector-curvature="0" />
    <path
       d="m -163.84967,-10088.05 a 60,60 0 1 0 -120,0 60,60 0 1 0 120,0 z"
       style="fill:none;stroke:#000000"
       id="path2088"
       inkscape:connector-curvature="0" />
    <path
       d="m -165.90602,-9540.8538 a 60,60 0 1 0 -120,0 60,60 0 1 0 120,0 z"
       style="fill:none;stroke:#000000"
       id="path2090"
       inkscape:connector-curvature="0" />
    <path
       d="m -1158.6986,-14478.687 a 60,60 0 1 0 -120,0 60,60 0 1 0 120,0 z"
       style="fill:none;stroke:#000000"
       id="path2092"
       inkscape:connector-curvature="0" />
    <path
       d="m -1170.782,-13931.62 a 60,60 0 1 0 -120,0 60,60 0 1 0 120,0 z"
       style="fill:none;stroke:#000000"
       id="path2094"
       inkscape:connector-curvature="0" />
    <path
       d="m -1182.8653,-13384.554 a 60,60 0 1 0 -120,0 60,60 0 1 0 120,0 z"
       style="fill:none;stroke:#000000"
       id="path2096"
       inkscape:connector-curvature="0" />
    <path
       d="m -1194.9486,-12837.487 a 60,60 0 1 0 -120,0 60,60 0 1 0 120,0 z"
       style="fill:none;stroke:#000000"
       id="path2098"
       inkscape:connector-curvature="0" />
    <path
       d="m -1207.032,-12290.42 a 60,60 0 1 0 -120,0 60,60 0 1 0 120,0 z"
       style="fill:none;stroke:#000000"
       id="path2100"
       inkscape:connector-curvature="0" />
    <path
       d="m -1219.1153,-11743.354 a 60,60 0 1 0 -120,0 60,60 0 1 0 120,0 z"
       style="fill:none;stroke:#000000"
       id="path2102"
       inkscape:connector-curvature="0" />
    <path
       d="m -1231.1986,-11196.287 a 60,60 0 1 0 -120,0 60,60 0 1 0 120,0 z"
       style="fill:none;stroke:#000000"
       id="path2104"
       inkscape:connector-curvature="0" />
    <path
       d="m -1243.282,-10649.221 a 60,60 0 1 0 -120,0 60,60 0 1 0 120,0 z"
       style="fill:none;stroke:#000000"
       id="path2106"
       inkscape:connector-curvature="0" />
    <path
       d="m -681.35924,-12281.219 a 60,60 0 1 0 -120,0 60,60 0 1 0 120,0 z"
       style="fill:none;stroke:#000000"
       id="path2108"
       inkscape:connector-curvature="0" />
    <path
       d="m -674.2891,-12828.373 a 60,60 0 1 0 -120,0 60,60 0 1 0 120,0 z"
       style="fill:none;stroke:#000000"
       id="path2110"
       inkscape:connector-curvature="0" />
    <path
       d="m -667.21896,-13375.528 a 60,60 0 1 0 -120,0 60,60 0 1 0 120,0 z"
       style="fill:none;stroke:#000000"
       id="path2112"
       inkscape:connector-curvature="0" />
    <path
       d="m -660.14882,-13922.682 a 60,60 0 1 0 -120,0 60,60 0 1 0 120,0 z"
       style="fill:none;stroke:#000000"
       id="path2114"
       inkscape:connector-curvature="0" />
    <path
       d="m -1255.3653,-10102.154 a 60,60 0 1 0 -120,0 60,60 0 1 0 120,0 z"
       style="fill:none;stroke:#000000"
       id="path2116"
       inkscape:connector-curvature="0" />
    <path
       d="m -1267.4486,-9555.0875 a 60,60 0 1 0 -120,0 60,60 0 1 0 120,0 z"
       style="fill:none;stroke:#000000"
       id="path2118"
       inkscape:connector-curvature="0" />
    <path
       d="m -1279.532,-9008.021 a 60,60 0 1 0 -120,0 60,60 0 1 0 120,0 z"
       style="fill:none;stroke:#000000"
       id="path2120"
       inkscape:connector-curvature="0" />
    <path
       d="m -653.07868,-14469.836 a 60,60 0 1 0 -120,0 60,60 0 1 0 120,0 z"
       style="fill:none;stroke:#000000"
       id="path2122"
       inkscape:connector-curvature="0" />
    <path
       d="m -167.96237,-8993.6576 a 60,60 0 1 0 -120,0 60,60 0 1 0 120,0 z"
       style="fill:none;stroke:#000000"
       id="path2124"
       inkscape:connector-curvature="0" />
    <path
       d="M -2418.5289,-14780.408 H 0"
       style="fill:none;stroke:#000000"
       id="path2126"
       inkscape:connector-curvature="0" />
    <path
       d="m -2687.4711,-8678.3553 268.9422,-6102.0527"
       style="fill:none;stroke:#000000"
       id="path2128"
       inkscape:connector-curvature="0" />
    <path
       d="M 0,-8678.3553 H -2687.4711"
       style="fill:none;stroke:#000000"
       id="path2130"
       inkscape:connector-curvature="0" />
    <path
       d="m 0,-14780.408 v 6102.0527"
       style="fill:none;stroke:#000000"
       id="path2132"
       inkscape:connector-curvature="0" />
    <path
       d="m -1185.6933,-14216.408 a 36,36 0 1 0 -72,0 36,36 0 1 0 72,0 z"
       style="fill:none;stroke:#000000"
       id="path2134"
       inkscape:connector-curvature="0" />
    <path
       d="m -1295.3067,-9242.3553 a 36,36 0 1 0 -72,0 36,36 0 1 0 72,0 z"
       style="fill:none;stroke:#000000"
       id="path2136"
       inkscape:connector-curvature="0" />
    <path
       d="m -1890,-8876.3553 a 30,30 0 1 0 -60,0 30,30 0 1 0 60,0 z"
       style="fill:none;stroke:#000000"
       id="path2138"
       inkscape:connector-curvature="0" />
    <path
       d="m -1309.3722,-8876.3553 a 30,30 0 1 0 -60,0 30,30 0 1 0 60,0 z"
       style="fill:none;stroke:#000000"
       id="path2140"
       inkscape:connector-curvature="0" />
    <path
       d="m -738,-8876.3553 a 30,30 0 1 0 -60,0 30,30 0 1 0 60,0 z"
       style="fill:none;stroke:#000000"
       id="path2142"
       inkscape:connector-curvature="0" />
    <path
       d="m -1620,-14582.408 a 30,30 0 1 0 -60,0 30,30 0 1 0 60,0 z"
       style="fill:none;stroke:#000000"
       id="path2144"
       inkscape:connector-curvature="0" />
    <path
       d="m -1183.6278,-14582.408 a 30,30 0 1 0 -60,0 30,30 0 1 0 60,0 z"
       style="fill:none;stroke:#000000"
       id="path2146"
       inkscape:connector-curvature="0" />
    <path
       d="m -738,-14582.408 a 30,30 0 1 0 -60,0 30,30 0 1 0 60,0 z"
       style="fill:none;stroke:#000000"
       id="path2148"
       inkscape:connector-curvature="0" />
  </g>
  <g
     inkscape:groupmode="layer"
     inkscape:label="MODELSKETCH_VISIBLE"
     id="g2152"
     transform="translate(2687.9706,14780.908)" />
  <g
     inkscape:groupmode="layer"
     inkscape:label="MODELSKETCH_CONSTRUCTION"
     id="g2154"
     transform="translate(2687.9706,14780.908)" />
  <g
     inkscape:groupmode="layer"
     inkscape:label="HIDDEN_BASE_VIEW"
     id="g2156"
     transform="translate(2687.9706,14780.908)" />
  <g
     inkscape:groupmode="layer"
     inkscape:label="TANGENT_LINES"
     id="g2158"
     transform="translate(2687.9706,14780.908)" />
  <g
     inkscape:groupmode="layer"
     inkscape:label="TANGENT_HIDDEN"
     id="g2160"
     transform="translate(2687.9706,14780.908)" />
  <g
     inkscape:groupmode="layer"
     inkscape:label="INVISIBLE_LINES"
     id="g2162"
     transform="translate(2687.9706,14780.908)" />
  <g
     inkscape:groupmode="layer"
     inkscape:label="VIEW_HATCHES"
     id="g2164"
     transform="translate(2687.9706,14780.908)" />
  <g
     inkscape:groupmode="layer"
     inkscape:label="SECTION_JOG_LINES"
     id="g2166"
     transform="translate(2687.9706,14780.908)" />
</svg>
