<?xml version="1.0" encoding="UTF-8" standalone="no"?>
<svg
   xmlns:dc="http://purl.org/dc/elements/1.1/"
   xmlns:cc="http://creativecommons.org/ns#"
   xmlns:rdf="http://www.w3.org/1999/02/22-rdf-syntax-ns#"
   xmlns:svg="http://www.w3.org/2000/svg"
   xmlns="http://www.w3.org/2000/svg"
   xmlns:sodipodi="http://sodipodi.sourceforge.net/DTD/sodipodi-0.dtd"
   xmlns:inkscape="http://www.inkscape.org/namespaces/inkscape"
   width="191.13971cm"
   height="86.161621cm"
   version="1.1"
   id="svg2692"
   sodipodi:docname="D_LED.svg"
   inkscape:version="0.92.4 (5da689c313, 2019-01-14)">
  <metadata
     id="metadata2696">
    <rdf:RDF>
      <cc:Work
         rdf:about="">
        <dc:format>image/svg+xml</dc:format>
        <dc:type
           rdf:resource="http://purl.org/dc/dcmitype/StillImage" />
        <dc:title></dc:title>
      </cc:Work>
    </rdf:RDF>
  </metadata>
  <sodipodi:namedview
     pagecolor="#ffffff"
     bordercolor="#666666"
     borderopacity="1"
     objecttolerance="10"
     gridtolerance="10"
     guidetolerance="10"
     inkscape:pageopacity="0"
     inkscape:pageshadow="2"
     inkscape:window-width="1322"
     inkscape:window-height="951"
     id="namedview2694"
     showgrid="false"
     inkscape:zoom="0.10512065"
     inkscape:cx="4008.9396"
     inkscape:cy="1830.1795"
     inkscape:window-x="-8"
     inkscape:window-y="187"
     inkscape:window-maximized="0"
     inkscape:current-layer="g2690"
     inkscape:document-units="cm"
     units="cm" />
  <desc
     id="desc2368">C:\Users\Tracy\Downloads\D_LED.dxf - scale = 25.400000, origin = (0.000000, 0.000000), method = file</desc>
  <defs
     id="defs2382">
    <marker
       id="DistanceX"
       orient="auto"
       refX="0"
       refY="0"
       style="overflow:visible">
      <path
         d="M 3,-3 -3,3 M 0,-5 V 5"
         style="stroke:#000000;stroke-width:0.5"
         id="path2370"
         inkscape:connector-curvature="0" />
    </marker>
    <pattern
       height="8"
       id="Hatch"
       patternUnits="userSpaceOnUse"
       width="8"
       x="0"
       y="0">
      <path
         d="M8 4 l-4,4"
         linecap="square"
         stroke="#000000"
         stroke-width="0.25"
         id="path2373" />
      <path
         d="M6 2 l-4,4"
         linecap="square"
         stroke="#000000"
         stroke-width="0.25"
         id="path2375" />
      <path
         d="M4 0 l-4,4"
         linecap="square"
         stroke="#000000"
         stroke-width="0.25"
         id="path2377" />
    </pattern>
    <symbol
       id="*MODEL_SPACE" />
    <symbol
       id="*PAPER_SPACE" />
  </defs>
  <g
     inkscape:groupmode="layer"
     inkscape:label="0"
     id="g2384"
     transform="translate(3612.0892,865.06292)" />
  <g
     inkscape:groupmode="layer"
     inkscape:label="SECTION_CUTTING_LINE"
     id="g2386"
     transform="translate(3612.0892,865.06292)" />
  <g
     inkscape:groupmode="layer"
     inkscape:label="DETAIL_VIEW_BORDER"
     id="g2388"
     transform="translate(3612.0892,865.06292)" />
  <g
     inkscape:groupmode="layer"
     inkscape:label="DETAIL_VIEW_PARENT_BORDER"
     id="g2390"
     transform="translate(3612.0892,865.06292)" />
  <g
     inkscape:groupmode="layer"
     inkscape:label="TEXT"
     id="g2392"
     transform="translate(3612.0892,865.06292)" />
  <g
     inkscape:groupmode="layer"
     inkscape:label="SKETCHED_GEOMETRY"
     id="g2394"
     transform="translate(3612.0892,865.06292)" />
  <g
     inkscape:groupmode="layer"
     inkscape:label="VIRTUAL_SHARPS"
     id="g2396"
     transform="translate(3612.0892,865.06292)" />
  <g
     inkscape:groupmode="layer"
     inkscape:label="CENTERLINES"
     id="g2398"
     transform="translate(3612.0892,865.06292)" />
  <g
     inkscape:groupmode="layer"
     inkscape:label="CENTERMARKS"
     id="g2400"
     transform="translate(3612.0892,865.06292)" />
  <g
     inkscape:groupmode="layer"
     inkscape:label="TABLES"
     id="g2402"
     transform="translate(3612.0892,865.06292)" />
  <g
     inkscape:groupmode="layer"
     inkscape:label="IMAGES"
     id="g2404"
     transform="translate(3612.0892,865.06292)" />
  <g
     inkscape:groupmode="layer"
     inkscape:label="ANNOTATION_LINES"
     id="g2406"
     transform="translate(3612.0892,865.06292)" />
  <g
     inkscape:groupmode="layer"
     inkscape:label="ANNOTATION_TEXT"
     id="g2408"
     transform="translate(3612.0892,865.06292)" />
  <g
     inkscape:groupmode="layer"
     inkscape:label="SIDE_THREAD_SYMBOLS"
     id="g2410"
     transform="translate(3612.0892,865.06292)" />
  <g
     inkscape:groupmode="layer"
     inkscape:label="SIDE_THREAD_SYMBOLS_HIDDEN"
     id="g2412"
     transform="translate(3612.0892,865.06292)" />
  <g
     inkscape:groupmode="layer"
     inkscape:label="SURFACE_THREAD_SYMBOLS"
     id="g2414"
     transform="translate(3612.0892,865.06292)" />
  <g
     inkscape:groupmode="layer"
     inkscape:label="SURFACE_THREAD_SYMBOLS_ON_"
     id="g2416"
     transform="translate(3612.0892,865.06292)" />
  <g
     inkscape:groupmode="layer"
     inkscape:label="SURFACE_THREAD_SYMBOLS_HID"
     id="g2418"
     transform="translate(3612.0892,865.06292)" />
  <g
     inkscape:groupmode="layer"
     inkscape:label="BLIND_THREAD_SYMBOLS"
     id="g2420"
     transform="translate(3612.0892,865.06292)" />
  <g
     inkscape:groupmode="layer"
     inkscape:label="BLIND_THREAD_SYMBOLS_HIDDE"
     id="g2422"
     transform="translate(3612.0892,865.06292)" />
  <g
     inkscape:groupmode="layer"
     inkscape:label="EXPLODE_LINES"
     id="g2424"
     transform="translate(3612.0892,865.06292)" />
  <g
     inkscape:groupmode="layer"
     inkscape:label="BREAK_LINES"
     id="g2426"
     transform="translate(3612.0892,865.06292)" />
  <g
     inkscape:groupmode="layer"
     inkscape:label="SHEETMETAL_BEND_LINES_UP"
     id="g2428"
     transform="translate(3612.0892,865.06292)" />
  <g
     inkscape:groupmode="layer"
     inkscape:label="SHEETMETAL_BEND_LINES_DOWN"
     id="g2430"
     transform="translate(3612.0892,865.06292)" />
  <g
     inkscape:groupmode="layer"
     inkscape:label="SHEETMETAL_BEND_TANGENT_LI"
     id="g2432"
     transform="translate(3612.0892,865.06292)" />
  <g
     inkscape:groupmode="layer"
     inkscape:label="SHEETMETAL_CUT_LINES"
     id="g2434"
     transform="translate(3612.0892,865.06292)" />
  <g
     inkscape:groupmode="layer"
     inkscape:label="HIDDEN"
     id="g2436"
     transform="translate(3612.0892,865.06292)" />
  <g
     inkscape:groupmode="layer"
     inkscape:label="VISIBLE"
     id="g2674"
     transform="translate(3612.0892,865.06292)">
    <path
       d="m -2441.1782,-576.90081 a 60,60 0 1 0 -120,0 60,60 0 1 0 120,0 z"
       style="fill:none;stroke:#000000"
       id="path2438"
       inkscape:connector-curvature="0" />
    <path
       d="m -2056.2202,-576.90081 a 60,60 0 1 0 -120,0 60,60 0 1 0 120,0 z"
       style="fill:none;stroke:#000000"
       id="path2440"
       inkscape:connector-curvature="0" />
    <path
       d="m -1671.2621,-576.90081 a 60,60 0 1 0 -120,0 60,60 0 1 0 120,0 z"
       style="fill:none;stroke:#000000"
       id="path2442"
       inkscape:connector-curvature="0" />
    <path
       d="m -1286.3041,-576.90081 a 60,60 0 1 0 -120,0 60,60 0 1 0 120,0 z"
       style="fill:none;stroke:#000000"
       id="path2444"
       inkscape:connector-curvature="0" />
    <path
       d="m -901.34612,-576.90081 a 60,60 0 1 0 -119.99998,0 60,60 0 1 0 119.99998,0 z"
       style="fill:none;stroke:#000000"
       id="path2446"
       inkscape:connector-curvature="0" />
    <path
       d="m -516.3881,-576.90081 a 60,60 0 1 0 -120,0 60,60 0 1 0 120,0 z"
       style="fill:none;stroke:#000000"
       id="path2448"
       inkscape:connector-curvature="0" />
    <path
       d="m -131.43009,-576.90081 a 60,60 0 1 0 -120,0 60,60 0 1 0 120,0 z"
       style="fill:none;stroke:#000000"
       id="path2450"
       inkscape:connector-curvature="0" />
    <path
       d="m 253.52792,-576.90081 a 60,60 0 1 0 -120,0 60,60 0 1 0 120,0 z"
       style="fill:none;stroke:#000000"
       id="path2452"
       inkscape:connector-curvature="0" />
    <path
       d="m 638.48593,-576.90081 a 60,60 0 1 0 -120,0 60,60 0 1 0 120,0 z"
       style="fill:none;stroke:#000000"
       id="path2454"
       inkscape:connector-curvature="0" />
    <path
       d="m 1023.4439,-576.90081 a 60,60 0 1 0 -119.99996,0 60,60 0 1 0 119.99996,0 z"
       style="fill:none;stroke:#000000"
       id="path2456"
       inkscape:connector-curvature="0" />
    <path
       d="m 1408.402,-576.90081 a 60,60 0 1 0 -120,0 60,60 0 1 0 120,0 z"
       style="fill:none;stroke:#000000"
       id="path2458"
       inkscape:connector-curvature="0" />
    <path
       d="m 1793.36,-576.90081 a 60,60 0 1 0 -120,0 60,60 0 1 0 120,0 z"
       style="fill:none;stroke:#000000"
       id="path2460"
       inkscape:connector-curvature="0" />
    <path
       d="m 2178.318,-576.90081 a 60,60 0 1 0 -120,0 60,60 0 1 0 120,0 z"
       style="fill:none;stroke:#000000"
       id="path2462"
       inkscape:connector-curvature="0" />
    <path
       d="m 2563.276,-576.90081 a 60,60 0 1 0 -120,0 60,60 0 1 0 120,0 z"
       style="fill:none;stroke:#000000"
       id="path2464"
       inkscape:connector-curvature="0" />
    <path
       d="m -2566.519,-133.47515 a 60,60 0 1 0 -120,0 60,60 0 1 0 120,0 z"
       style="fill:none;stroke:#000000"
       id="path2466"
       inkscape:connector-curvature="0" />
    <path
       d="m -2162.158,-133.47515 a 60,60 0 1 0 -120,0 60,60 0 1 0 120,0 z"
       style="fill:none;stroke:#000000"
       id="path2468"
       inkscape:connector-curvature="0" />
    <path
       d="m -1757.797,-133.47515 a 60,60 0 1 0 -120,0 60,60 0 1 0 120,0 z"
       style="fill:none;stroke:#000000"
       id="path2470"
       inkscape:connector-curvature="0" />
    <path
       d="m -1353.436,-133.47515 a 60,60 0 1 0 -120,0 60,60 0 1 0 120,0 z"
       style="fill:none;stroke:#000000"
       id="path2472"
       inkscape:connector-curvature="0" />
    <path
       d="m -949.07493,-133.47515 a 60,60 0 1 0 -119.99997,0 60,60 0 1 0 119.99997,0 z"
       style="fill:none;stroke:#000000"
       id="path2474"
       inkscape:connector-curvature="0" />
    <path
       d="m -544.71392,-133.47515 a 60,60 0 1 0 -120,0 60,60 0 1 0 120,0 z"
       style="fill:none;stroke:#000000"
       id="path2476"
       inkscape:connector-curvature="0" />
    <path
       d="m -140.3529,-133.47515 a 60,60 0 1 0 -120,0 60,60 0 1 0 120,0 z"
       style="fill:none;stroke:#000000"
       id="path2478"
       inkscape:connector-curvature="0" />
    <path
       d="m 264.00812,-133.47515 a 60,60 0 1 0 -120,0 60,60 0 1 0 120,0 z"
       style="fill:none;stroke:#000000"
       id="path2480"
       inkscape:connector-curvature="0" />
    <path
       d="m 668.36914,-133.47515 a 60,60 0 1 0 -120,0 60,60 0 1 0 120,0 z"
       style="fill:none;stroke:#000000"
       id="path2482"
       inkscape:connector-curvature="0" />
    <path
       d="m 1072.7302,-133.47515 a 60.00002,60.00002 0 1 0 -120.00004,0 60.00002,60.00002 0 1 0 120.00004,0 z"
       style="fill:none;stroke:#000000"
       id="path2484"
       inkscape:connector-curvature="0" />
    <path
       d="m 1477.0912,-133.47515 a 60,60 0 1 0 -120,0 60,60 0 1 0 120,0 z"
       style="fill:none;stroke:#000000"
       id="path2486"
       inkscape:connector-curvature="0" />
    <path
       d="m 1881.4522,-133.47515 a 60,60 0 1 0 -120,0 60,60 0 1 0 120,0 z"
       style="fill:none;stroke:#000000"
       id="path2488"
       inkscape:connector-curvature="0" />
    <path
       d="m 2285.8132,-133.47515 a 60,60 0 1 0 -120,0 60,60 0 1 0 120,0 z"
       style="fill:none;stroke:#000000"
       id="path2490"
       inkscape:connector-curvature="0" />
    <path
       d="m 2690.1742,-133.47515 a 60,60 0 1 0 -120,0 60,60 0 1 0 120,0 z"
       style="fill:none;stroke:#000000"
       id="path2492"
       inkscape:connector-curvature="0" />
    <path
       d="m -2691.8599,309.95051 a 60,60 0 1 0 -120,0 60,60 0 1 0 120,0 z"
       style="fill:none;stroke:#000000"
       id="path2494"
       inkscape:connector-curvature="0" />
    <path
       d="m -2268.006,309.95051 a 60,60 0 1 0 -120,0 60,60 0 1 0 120,0 z"
       style="fill:none;stroke:#000000"
       id="path2496"
       inkscape:connector-curvature="0" />
    <path
       d="m -1844.1521,309.95051 a 60,60 0 1 0 -120,0 60,60 0 1 0 120,0 z"
       style="fill:none;stroke:#000000"
       id="path2498"
       inkscape:connector-curvature="0" />
    <path
       d="m -1420.2982,309.95051 a 60,60 0 1 0 -120,0 60,60 0 1 0 120,0 z"
       style="fill:none;stroke:#000000"
       id="path2500"
       inkscape:connector-curvature="0" />
    <path
       d="m -996.44433,309.95051 a 60,60 0 1 0 -119.99997,0 60,60 0 1 0 119.99997,0 z"
       style="fill:none;stroke:#000000"
       id="path2502"
       inkscape:connector-curvature="0" />
    <path
       d="m -572.59044,309.95051 a 60,60 0 1 0 -120,0 60,60 0 1 0 120,0 z"
       style="fill:none;stroke:#000000"
       id="path2504"
       inkscape:connector-curvature="0" />
    <path
       d="m -148.73656,309.95051 a 60,60 0 1 0 -120,0 60,60 0 1 0 120,0 z"
       style="fill:none;stroke:#000000"
       id="path2506"
       inkscape:connector-curvature="0" />
    <path
       d="m 275.11732,309.95051 a 60,60 0 1 0 -120,0 60,60 0 1 0 120,0 z"
       style="fill:none;stroke:#000000"
       id="path2508"
       inkscape:connector-curvature="0" />
    <path
       d="m 698.9712,309.95051 a 60,60 0 1 0 -120,0 60,60 0 1 0 120,0 z"
       style="fill:none;stroke:#000000"
       id="path2510"
       inkscape:connector-curvature="0" />
    <path
       d="m 1122.8251,309.95051 a 60,60 0 1 0 -120,0 60,60 0 1 0 120,0 z"
       style="fill:none;stroke:#000000"
       id="path2512"
       inkscape:connector-curvature="0" />
    <path
       d="m 1546.679,309.95051 a 60,60 0 1 0 -120,0 60,60 0 1 0 120,0 z"
       style="fill:none;stroke:#000000"
       id="path2514"
       inkscape:connector-curvature="0" />
    <path
       d="m 1970.5328,309.95051 a 60,60 0 1 0 -120,0 60,60 0 1 0 120,0 z"
       style="fill:none;stroke:#000000"
       id="path2516"
       inkscape:connector-curvature="0" />
    <path
       d="m 2394.3867,309.95051 a 60,60 0 1 0 -120,0 60,60 0 1 0 120,0 z"
       style="fill:none;stroke:#000000"
       id="path2518"
       inkscape:connector-curvature="0" />
    <path
       d="m 2818.2406,309.95051 a 60,60 0 1 0 -120,0 60,60 0 1 0 120,0 z"
       style="fill:none;stroke:#000000"
       id="path2520"
       inkscape:connector-curvature="0" />
    <path
       d="m -2817.2007,753.37616 a 60,60 0 1 0 -120,0 60,60 0 1 0 120,0 z"
       style="fill:none;stroke:#000000"
       id="path2522"
       inkscape:connector-curvature="0" />
    <path
       d="m -2373.8418,753.37616 a 60,60 0 1 0 -120,0 60,60 0 1 0 120,0 z"
       style="fill:none;stroke:#000000"
       id="path2524"
       inkscape:connector-curvature="0" />
    <path
       d="m -1930.4829,753.37616 a 60,60 0 1 0 -120,0 60,60 0 1 0 120,0 z"
       style="fill:none;stroke:#000000"
       id="path2526"
       inkscape:connector-curvature="0" />
    <path
       d="m -1487.124,753.37616 a 60,60 0 1 0 -120,0 60,60 0 1 0 120,0 z"
       style="fill:none;stroke:#000000"
       id="path2528"
       inkscape:connector-curvature="0" />
    <path
       d="m -1043.7651,753.37616 a 60,60 0 1 0 -120,0 60,60 0 1 0 120,0 z"
       style="fill:none;stroke:#000000"
       id="path2530"
       inkscape:connector-curvature="0" />
    <path
       d="m -600.40618,753.37616 a 60,60 0 1 0 -120,0 60,60 0 1 0 120,0 z"
       style="fill:none;stroke:#000000"
       id="path2532"
       inkscape:connector-curvature="0" />
    <path
       d="m -157.04727,753.37616 a 60,60 0 1 0 -120,0 60,60 0 1 0 120,0 z"
       style="fill:none;stroke:#000000"
       id="path2534"
       inkscape:connector-curvature="0" />
    <path
       d="m 286.31163,753.37616 a 60,60 0 1 0 -120,0 60,60 0 1 0 120,0 z"
       style="fill:none;stroke:#000000"
       id="path2536"
       inkscape:connector-curvature="0" />
    <path
       d="m 729.67054,753.37616 a 60,60 0 1 0 -120,0 60,60 0 1 0 120,0 z"
       style="fill:none;stroke:#000000"
       id="path2538"
       inkscape:connector-curvature="0" />
    <path
       d="m 1173.0294,753.37616 a 60,60 0 1 0 -120,0 60,60 0 1 0 120,0 z"
       style="fill:none;stroke:#000000"
       id="path2540"
       inkscape:connector-curvature="0" />
    <path
       d="m 1616.3883,753.37616 a 60,60 0 1 0 -120,0 60,60 0 1 0 120,0 z"
       style="fill:none;stroke:#000000"
       id="path2542"
       inkscape:connector-curvature="0" />
    <path
       d="m 2059.7472,753.37616 a 60,60 0 1 0 -120,0 60,60 0 1 0 120,0 z"
       style="fill:none;stroke:#000000"
       id="path2544"
       inkscape:connector-curvature="0" />
    <path
       d="m 2503.1062,753.37616 a 60,60 0 1 0 -120,0 60,60 0 1 0 120,0 z"
       style="fill:none;stroke:#000000"
       id="path2546"
       inkscape:connector-curvature="0" />
    <path
       d="m 2946.4651,753.37616 a 60,60 0 1 0 -120,0 60,60 0 1 0 120,0 z"
       style="fill:none;stroke:#000000"
       id="path2548"
       inkscape:connector-curvature="0" />
    <path
       d="m -2942.5415,1196.8018 a 60,60 0 1 0 -120,0 60,60 0 1 0 120,0 z"
       style="fill:none;stroke:#000000"
       id="path2550"
       inkscape:connector-curvature="0" />
    <path
       d="m -2480.7094,1196.8018 a 60,60 0 1 0 -120,0 60,60 0 1 0 120,0 z"
       style="fill:none;stroke:#000000"
       id="path2552"
       inkscape:connector-curvature="0" />
    <path
       d="m -2018.8772,1196.8018 a 60,60 0 1 0 -120,0 60,60 0 1 0 120,0 z"
       style="fill:none;stroke:#000000"
       id="path2554"
       inkscape:connector-curvature="0" />
    <path
       d="m -1557.045,1196.8018 a 60,60 0 1 0 -120,0 60,60 0 1 0 120,0 z"
       style="fill:none;stroke:#000000"
       id="path2556"
       inkscape:connector-curvature="0" />
    <path
       d="m -1095.2128,1196.8018 a 60,60 0 1 0 -120,0 60,60 0 1 0 120,0 z"
       style="fill:none;stroke:#000000"
       id="path2558"
       inkscape:connector-curvature="0" />
    <path
       d="m -633.38058,1196.8018 a 60,60 0 1 0 -120,0 60,60 0 1 0 120,0 z"
       style="fill:none;stroke:#000000"
       id="path2560"
       inkscape:connector-curvature="0" />
    <path
       d="m -171.54839,1196.8018 a 60,60 0 1 0 -120,0 60,60 0 1 0 120,0 z"
       style="fill:none;stroke:#000000"
       id="path2562"
       inkscape:connector-curvature="0" />
    <path
       d="m 290.2838,1196.8018 a 60,60 0 1 0 -120,0 60,60 0 1 0 120,0 z"
       style="fill:none;stroke:#000000"
       id="path2564"
       inkscape:connector-curvature="0" />
    <path
       d="m 752.11599,1196.8018 a 60,60 0 1 0 -120,0 60,60 0 1 0 120,0 z"
       style="fill:none;stroke:#000000"
       id="path2566"
       inkscape:connector-curvature="0" />
    <path
       d="m 1213.9482,1196.8018 a 60,60 0 1 0 -120,0 60,60 0 1 0 120,0 z"
       style="fill:none;stroke:#000000"
       id="path2568"
       inkscape:connector-curvature="0" />
    <path
       d="m 1675.7804,1196.8018 a 60,60 0 1 0 -120,0 60,60 0 1 0 120,0 z"
       style="fill:none;stroke:#000000"
       id="path2570"
       inkscape:connector-curvature="0" />
    <path
       d="m 2137.6126,1196.8018 a 60,60 0 1 0 -120,0 60,60 0 1 0 120,0 z"
       style="fill:none;stroke:#000000"
       id="path2572"
       inkscape:connector-curvature="0" />
    <path
       d="m 2599.4448,1196.8018 a 60,60 0 1 0 -120,0 60,60 0 1 0 120,0 z"
       style="fill:none;stroke:#000000"
       id="path2574"
       inkscape:connector-curvature="0" />
    <path
       d="m 3061.277,1196.8018 a 60,60 0 1 0 -120,0 60,60 0 1 0 120,0 z"
       style="fill:none;stroke:#000000"
       id="path2576"
       inkscape:connector-curvature="0" />
    <path
       d="m -3067.8824,1640.2275 a 60,60 0 1 0 -120,0 60,60 0 1 0 120,0 z"
       style="fill:none;stroke:#000000"
       id="path2578"
       inkscape:connector-curvature="0" />
    <path
       d="m -2586.8072,1640.2275 a 60,60 0 1 0 -120,0 60,60 0 1 0 120,0 z"
       style="fill:none;stroke:#000000"
       id="path2580"
       inkscape:connector-curvature="0" />
    <path
       d="m -2105.732,1640.2275 a 60,60 0 1 0 -120,0 60,60 0 1 0 120,0 z"
       style="fill:none;stroke:#000000"
       id="path2582"
       inkscape:connector-curvature="0" />
    <path
       d="m -1624.6568,1640.2275 a 60,60 0 1 0 -120,0 60,60 0 1 0 120,0 z"
       style="fill:none;stroke:#000000"
       id="path2584"
       inkscape:connector-curvature="0" />
    <path
       d="m -1143.5816,1640.2275 a 60,60 0 1 0 -120,0 60,60 0 1 0 120,0 z"
       style="fill:none;stroke:#000000"
       id="path2586"
       inkscape:connector-curvature="0" />
    <path
       d="m -662.50639,1640.2275 a 60,60 0 1 0 -120,0 60,60 0 1 0 120,0 z"
       style="fill:none;stroke:#000000"
       id="path2588"
       inkscape:connector-curvature="0" />
    <path
       d="m -181.43119,1640.2275 a 60,60 0 1 0 -120,0 60,60 0 1 0 120,0 z"
       style="fill:none;stroke:#000000"
       id="path2590"
       inkscape:connector-curvature="0" />
    <path
       d="m 299.64401,1640.2275 a 60,60 0 1 0 -120,0 60,60 0 1 0 120,0 z"
       style="fill:none;stroke:#000000"
       id="path2592"
       inkscape:connector-curvature="0" />
    <path
       d="m 780.71921,1640.2275 a 60,60 0 1 0 -120,0 60,60 0 1 0 120,0 z"
       style="fill:none;stroke:#000000"
       id="path2594"
       inkscape:connector-curvature="0" />
    <path
       d="m 1261.7944,1640.2275 a 60,60 0 1 0 -120,0 60,60 0 1 0 120,0 z"
       style="fill:none;stroke:#000000"
       id="path2596"
       inkscape:connector-curvature="0" />
    <path
       d="m 1742.8696,1640.2275 a 60,60 0 1 0 -120,0 60,60 0 1 0 120,0 z"
       style="fill:none;stroke:#000000"
       id="path2598"
       inkscape:connector-curvature="0" />
    <path
       d="m 2223.9448,1640.2275 a 60,60 0 1 0 -120,0 60,60 0 1 0 120,0 z"
       style="fill:none;stroke:#000000"
       id="path2600"
       inkscape:connector-curvature="0" />
    <path
       d="m 2705.02,1640.2275 a 60,60 0 1 0 -120,0 60,60 0 1 0 120,0 z"
       style="fill:none;stroke:#000000"
       id="path2602"
       inkscape:connector-curvature="0" />
    <path
       d="m 3186.0952,1640.2275 a 60,60 0 1 0 -120,0 60,60 0 1 0 120,0 z"
       style="fill:none;stroke:#000000"
       id="path2604"
       inkscape:connector-curvature="0" />
    <path
       d="m -3193.2232,2083.6531 a 60,60 0 1 0 -120,0 60,60 0 1 0 120,0 z"
       style="fill:none;stroke:#000000"
       id="path2606"
       inkscape:connector-curvature="0" />
    <path
       d="m -2692.1032,2083.6531 a 60,60 0 1 0 -120,0 60,60 0 1 0 120,0 z"
       style="fill:none;stroke:#000000"
       id="path2608"
       inkscape:connector-curvature="0" />
    <path
       d="m -2190.9832,2083.6531 a 60,60 0 1 0 -120,0 60,60 0 1 0 120,0 z"
       style="fill:none;stroke:#000000"
       id="path2610"
       inkscape:connector-curvature="0" />
    <path
       d="m -1689.8632,2083.6531 a 60,60 0 1 0 -120,0 60,60 0 1 0 120,0 z"
       style="fill:none;stroke:#000000"
       id="path2612"
       inkscape:connector-curvature="0" />
    <path
       d="m -1188.7432,2083.6531 a 60,60 0 1 0 -120,0 60,60 0 1 0 120,0 z"
       style="fill:none;stroke:#000000"
       id="path2614"
       inkscape:connector-curvature="0" />
    <path
       d="m -687.62323,2083.6531 a 60,60 0 1 0 -120,0 60,60 0 1 0 120,0 z"
       style="fill:none;stroke:#000000"
       id="path2616"
       inkscape:connector-curvature="0" />
    <path
       d="m -186.50323,2083.6531 a 60,60 0 1 0 -120,0 60,60 0 1 0 120,0 z"
       style="fill:none;stroke:#000000"
       id="path2618"
       inkscape:connector-curvature="0" />
    <path
       d="m 314.61677,2083.6531 a 60,60 0 1 0 -120,0 60,60 0 1 0 120,0 z"
       style="fill:none;stroke:#000000"
       id="path2620"
       inkscape:connector-curvature="0" />
    <path
       d="m 815.73677,2083.6531 a 60,60 0 1 0 -120,0 60,60 0 1 0 120,0 z"
       style="fill:none;stroke:#000000"
       id="path2622"
       inkscape:connector-curvature="0" />
    <path
       d="m 1316.8568,2083.6531 a 60,60 0 1 0 -120,0 60,60 0 1 0 120,0 z"
       style="fill:none;stroke:#000000"
       id="path2624"
       inkscape:connector-curvature="0" />
    <path
       d="m 1817.9768,2083.6531 a 60,60 0 1 0 -120,0 60,60 0 1 0 120,0 z"
       style="fill:none;stroke:#000000"
       id="path2626"
       inkscape:connector-curvature="0" />
    <path
       d="m 2319.0968,2083.6531 a 60,60 0 1 0 -120,0 60,60 0 1 0 120,0 z"
       style="fill:none;stroke:#000000"
       id="path2628"
       inkscape:connector-curvature="0" />
    <path
       d="m 2820.2168,2083.6531 a 60,60 0 1 0 -120,0 60,60 0 1 0 120,0 z"
       style="fill:none;stroke:#000000"
       id="path2630"
       inkscape:connector-curvature="0" />
    <path
       d="m 3321.3368,2083.6531 a 60,60 0 1 0 -120,0 60,60 0 1 0 120,0 z"
       style="fill:none;stroke:#000000"
       id="path2632"
       inkscape:connector-curvature="0" />
    <path
       d="M -2691.392,-864.56292 H 2691.392"
       style="fill:none;stroke:#000000"
       id="path2634"
       inkscape:connector-curvature="0" />
    <path
       d="m -3611.608,2390.9393 920.216,-3255.50222"
       style="fill:none;stroke:#000000"
       id="path2636"
       inkscape:connector-curvature="0" />
    <path
       d="M -3611.608,2390.9393 H 3611.608"
       style="fill:none;stroke:#000000"
       id="path2638"
       inkscape:connector-curvature="0" />
    <path
       d="M 3611.608,2390.9393 2691.392,-864.56292"
       style="fill:none;stroke:#000000"
       id="path2640"
       inkscape:connector-curvature="0" />
    <path
       d="m -1529.4805,2018.9393 a 36,36 0 1 0 -72,0 36,36 0 1 0 72,0 z"
       style="fill:none;stroke:#000000"
       id="path2642"
       inkscape:connector-curvature="0" />
    <path
       d="m -1529.4805,-492.56292 a 36,36 0 1 0 -72,0 36,36 0 1 0 72,0 z"
       style="fill:none;stroke:#000000"
       id="path2644"
       inkscape:connector-curvature="0" />
    <path
       d="m 1601.4805,-492.56292 a 36,36 0 1 0 -72,0 36,36 0 1 0 72,0 z"
       style="fill:none;stroke:#000000"
       id="path2646"
       inkscape:connector-curvature="0" />
    <path
       d="m 1601.4805,2018.9393 a 36,36 0 1 0 -72,0 36,36 0 1 0 72,0 z"
       style="fill:none;stroke:#000000"
       id="path2648"
       inkscape:connector-curvature="0" />
    <path
       d="m -1343.6798,-666.56292 a 30,30 0 1 0 -60,0 30,30 0 1 0 60,0 z"
       style="fill:none;stroke:#000000"
       id="path2650"
       inkscape:connector-curvature="0" />
    <path
       d="m -738,-666.56292 a 30,30 0 1 0 -60,0 30,30 0 1 0 60,0 z"
       style="fill:none;stroke:#000000"
       id="path2652"
       inkscape:connector-curvature="0" />
    <path
       d="m -1890,-666.56292 a 30,30 0 1 0 -60,0 30,30 0 1 0 60,0 z"
       style="fill:none;stroke:#000000"
       id="path2654"
       inkscape:connector-curvature="0" />
    <path
       d="m 1403.6798,-666.56292 a 30,30 0 1 0 -60,0 30,30 0 1 0 60,0 z"
       style="fill:none;stroke:#000000"
       id="path2656"
       inkscape:connector-curvature="0" />
    <path
       d="m 1950,-666.56292 a 30,30 0 1 0 -60,0 30,30 0 1 0 60,0 z"
       style="fill:none;stroke:#000000"
       id="path2658"
       inkscape:connector-curvature="0" />
    <path
       d="m 798,-666.56292 a 30,30 0 1 0 -60,0 30,30 0 1 0 60,0 z"
       style="fill:none;stroke:#000000"
       id="path2660"
       inkscape:connector-curvature="0" />
    <path
       d="m -1777.5,2192.9393 a 30,30 0 1 0 -60,0 30,30 0 1 0 60,0 z"
       style="fill:none;stroke:#000000"
       id="path2662"
       inkscape:connector-curvature="0" />
    <path
       d="m -2817,2192.9393 a 30,30 0 1 0 -60,0 30,30 0 1 0 60,0 z"
       style="fill:none;stroke:#000000"
       id="path2664"
       inkscape:connector-curvature="0" />
    <path
       d="m -738,2192.9393 a 30,30 0 1 0 -60,0 30,30 0 1 0 60,0 z"
       style="fill:none;stroke:#000000"
       id="path2666"
       inkscape:connector-curvature="0" />
    <path
       d="m 798,2192.9393 a 30,30 0 1 0 -60,0 30,30 0 1 0 60,0 z"
       style="fill:none;stroke:#000000"
       id="path2668"
       inkscape:connector-curvature="0" />
    <path
       d="m 1837.5,2192.9393 a 30,30 0 1 0 -60,0 30,30 0 1 0 60,0 z"
       style="fill:none;stroke:#000000"
       id="path2670"
       inkscape:connector-curvature="0" />
    <path
       d="m 2877,2192.9393 a 30,30 0 1 0 -60,0 30,30 0 1 0 60,0 z"
       style="fill:none;stroke:#000000"
       id="path2672"
       inkscape:connector-curvature="0" />
  </g>
  <g
     inkscape:groupmode="layer"
     inkscape:label="MODELSKETCH_VISIBLE"
     id="g2676"
     transform="translate(3612.0892,865.06292)" />
  <g
     inkscape:groupmode="layer"
     inkscape:label="MODELSKETCH_CONSTRUCTION"
     id="g2678"
     transform="translate(3612.0892,865.06292)" />
  <g
     inkscape:groupmode="layer"
     inkscape:label="HIDDEN_BASE_VIEW"
     id="g2680"
     transform="translate(3612.0892,865.06292)" />
  <g
     inkscape:groupmode="layer"
     inkscape:label="TANGENT_LINES"
     id="g2682"
     transform="translate(3612.0892,865.06292)" />
  <g
     inkscape:groupmode="layer"
     inkscape:label="TANGENT_HIDDEN"
     id="g2684"
     transform="translate(3612.0892,865.06292)" />
  <g
     inkscape:groupmode="layer"
     inkscape:label="INVISIBLE_LINES"
     id="g2686"
     transform="translate(3612.0892,865.06292)" />
  <g
     inkscape:groupmode="layer"
     inkscape:label="VIEW_HATCHES"
     id="g2688"
     transform="translate(3612.0892,865.06292)" />
  <g
     inkscape:groupmode="layer"
     inkscape:label="SECTION_JOG_LINES"
     id="g2690"
     transform="translate(3612.0892,865.06292)" />
</svg>
