<?xml version="1.0" encoding="UTF-8" standalone="no"?>
<svg
   xmlns:dc="http://purl.org/dc/elements/1.1/"
   xmlns:cc="http://creativecommons.org/ns#"
   xmlns:rdf="http://www.w3.org/1999/02/22-rdf-syntax-ns#"
   xmlns:svg="http://www.w3.org/2000/svg"
   xmlns="http://www.w3.org/2000/svg"
   xmlns:sodipodi="http://sodipodi.sourceforge.net/DTD/sodipodi-0.dtd"
   xmlns:inkscape="http://www.inkscape.org/namespaces/inkscape"
   width="106.82629"
   height="242.18318"
   version="1.1"
   id="svg500"
   sodipodi:docname="panel_B.svg"
   inkscape:version="0.92.4 (5da689c313, 2019-01-14)">
  <metadata
     id="metadata504">
    <rdf:RDF>
      <cc:Work
         rdf:about="">
        <dc:format>image/svg+xml</dc:format>
        <dc:type
           rdf:resource="http://purl.org/dc/dcmitype/StillImage" />
        <dc:title></dc:title>
      </cc:Work>
    </rdf:RDF>
  </metadata>
  <sodipodi:namedview
     pagecolor="#ffffff"
     bordercolor="#666666"
     borderopacity="1"
     objecttolerance="10"
     gridtolerance="10"
     guidetolerance="10"
     inkscape:pageopacity="0"
     inkscape:pageshadow="2"
     inkscape:window-width="1164"
     inkscape:window-height="814"
     id="namedview502"
     showgrid="false"
     inkscape:zoom="1.1893044"
     inkscape:cx="271.96655"
     inkscape:cy="176.37108"
     inkscape:window-x="0"
     inkscape:window-y="0"
     inkscape:window-maximized="0"
     inkscape:current-layer="g498" />
  <desc
     id="desc277">C:\Users\Tracy\Downloads\B.dxf - scale = 1.000000, origin = (0.000000, 0.000000), method = manual</desc>
  <defs
     id="defs292">
    <marker
       id="DistanceX"
       orient="auto"
       refX="0"
       refY="0"
       style="overflow:visible">
      <path
         d="M 3,-3 -3,3 M 0,-5 V 5"
         style="stroke:#000000;stroke-width:0.5"
         id="path279"
         inkscape:connector-curvature="0" />
    </marker>
    <pattern
       height="8"
       id="Hatch"
       patternUnits="userSpaceOnUse"
       width="8"
       x="0"
       y="0">
      <path
         d="M8 4 l-4,4"
         linecap="square"
         stroke="#000000"
         stroke-width="0.25"
         id="path282" />
      <path
         d="M6 2 l-4,4"
         linecap="square"
         stroke="#000000"
         stroke-width="0.25"
         id="path284" />
      <path
         d="M4 0 l-4,4"
         linecap="square"
         stroke="#000000"
         stroke-width="0.25"
         id="path286" />
    </pattern>
    <symbol
       id="*Model_Space" />
    <symbol
       id="*Paper_Space" />
    <symbol
       id="*Paper_Space0" />
  </defs>
  <g
     inkscape:groupmode="layer"
     inkscape:label="0"
     id="g294"
     transform="translate(106.32629,-495.44772)" />
  <g
     inkscape:groupmode="layer"
     inkscape:label="SECTION_CUTTING_LINE"
     id="g296"
     transform="translate(106.32629,-495.44772)" />
  <g
     inkscape:groupmode="layer"
     inkscape:label="DETAIL_VIEW_BORDER"
     id="g298"
     transform="translate(106.32629,-495.44772)" />
  <g
     inkscape:groupmode="layer"
     inkscape:label="DETAIL_VIEW_PARENT_BORDER"
     id="g300"
     transform="translate(106.32629,-495.44772)" />
  <g
     inkscape:groupmode="layer"
     inkscape:label="TEXT"
     id="g302"
     transform="translate(106.32629,-495.44772)" />
  <g
     inkscape:groupmode="layer"
     inkscape:label="SKETCHED_GEOMETRY"
     id="g304"
     transform="translate(106.32629,-495.44772)" />
  <g
     inkscape:groupmode="layer"
     inkscape:label="VIRTUAL_SHARPS"
     id="g306"
     transform="translate(106.32629,-495.44772)" />
  <g
     inkscape:groupmode="layer"
     inkscape:label="CENTERLINES"
     id="g308"
     transform="translate(106.32629,-495.44772)" />
  <g
     inkscape:groupmode="layer"
     inkscape:label="CENTERMARKS"
     id="g310"
     transform="translate(106.32629,-495.44772)" />
  <g
     inkscape:groupmode="layer"
     inkscape:label="TABLES"
     id="g312"
     transform="translate(106.32629,-495.44772)" />
  <g
     inkscape:groupmode="layer"
     inkscape:label="IMAGES"
     id="g314"
     transform="translate(106.32629,-495.44772)" />
  <g
     inkscape:groupmode="layer"
     inkscape:label="ANNOTATION_LINES"
     id="g316"
     transform="translate(106.32629,-495.44772)" />
  <g
     inkscape:groupmode="layer"
     inkscape:label="ANNOTATION_TEXT"
     id="g318"
     transform="translate(106.32629,-495.44772)" />
  <g
     inkscape:groupmode="layer"
     inkscape:label="SIDE_THREAD_SYMBOLS"
     id="g320"
     transform="translate(106.32629,-495.44772)" />
  <g
     inkscape:groupmode="layer"
     inkscape:label="SIDE_THREAD_SYMBOLS_HIDDEN"
     id="g322"
     transform="translate(106.32629,-495.44772)" />
  <g
     inkscape:groupmode="layer"
     inkscape:label="SURFACE_THREAD_SYMBOLS"
     id="g324"
     transform="translate(106.32629,-495.44772)" />
  <g
     inkscape:groupmode="layer"
     inkscape:label="SURFACE_THREAD_SYMBOLS_ON_AXIS"
     id="g326"
     transform="translate(106.32629,-495.44772)" />
  <g
     inkscape:groupmode="layer"
     inkscape:label="SURFACE_THREAD_SYMBOLS_HIDDEN"
     id="g328"
     transform="translate(106.32629,-495.44772)" />
  <g
     inkscape:groupmode="layer"
     inkscape:label="BLIND_THREAD_SYMBOLS"
     id="g330"
     transform="translate(106.32629,-495.44772)" />
  <g
     inkscape:groupmode="layer"
     inkscape:label="BLIND_THREAD_SYMBOLS_HIDDEN"
     id="g332"
     transform="translate(106.32629,-495.44772)" />
  <g
     inkscape:groupmode="layer"
     inkscape:label="EXPLODE_LINES"
     id="g334"
     transform="translate(106.32629,-495.44772)" />
  <g
     inkscape:groupmode="layer"
     inkscape:label="BREAK_LINES"
     id="g336"
     transform="translate(106.32629,-495.44772)" />
  <g
     inkscape:groupmode="layer"
     inkscape:label="SHEETMETAL_BEND_LINES_UP"
     id="g338"
     transform="translate(106.32629,-495.44772)" />
  <g
     inkscape:groupmode="layer"
     inkscape:label="SHEETMETAL_BEND_LINES_DOWN"
     id="g340"
     transform="translate(106.32629,-495.44772)" />
  <g
     inkscape:groupmode="layer"
     inkscape:label="SHEETMETAL_BEND_TANGENT_LINES"
     id="g342"
     transform="translate(106.32629,-495.44772)" />
  <g
     inkscape:groupmode="layer"
     inkscape:label="SHEETMETAL_CUT_LINES"
     id="g344"
     transform="translate(106.32629,-495.44772)" />
  <g
     inkscape:groupmode="layer"
     inkscape:label="Hidden"
     id="g346"
     transform="translate(106.32629,-495.44772)" />
  <g
     inkscape:groupmode="layer"
     inkscape:label="Visible"
     id="g482"
     transform="translate(106.32629,-495.44772)">
    <path
       d="m -91.519088,718.92484 a 2.362205,2.362205 0 1 0 -4.72441,0 2.362205,2.362205 0 1 0 4.72441,0 z"
       style="fill:none;stroke:#000000"
       id="path348"
       inkscape:connector-curvature="0" />
    <path
       d="m -64.350489,511.87699 a 2.362205,2.362205 0 1 0 -4.724409,0 2.362205,2.362205 0 1 0 4.724409,0 z"
       style="fill:none;stroke:#000000"
       id="path350"
       inkscape:connector-curvature="0" />
    <path
       d="m -64.987539,532.65463 a 2.362205,2.362205 0 1 0 -4.72441,0 2.362205,2.362205 0 1 0 4.72441,0 z"
       style="fill:none;stroke:#000000"
       id="path352"
       inkscape:connector-curvature="0" />
    <path
       d="m -65.62459,553.43227 a 2.362205,2.362205 0 1 0 -4.724409,0 2.362205,2.362205 0 1 0 4.724409,0 z"
       style="fill:none;stroke:#000000"
       id="path354"
       inkscape:connector-curvature="0" />
    <path
       d="m -90.700745,698.15355 a 2.362205,2.362205 0 1 0 -4.72441,0 2.362205,2.362205 0 1 0 4.72441,0 z"
       style="fill:none;stroke:#000000"
       id="path356"
       inkscape:connector-curvature="0" />
    <path
       d="m -89.882402,677.38227 a 2.362205,2.362205 0 1 0 -4.724409,0 2.362205,2.362205 0 1 0 4.724409,0 z"
       style="fill:none;stroke:#000000"
       id="path358"
       inkscape:connector-curvature="0" />
    <path
       d="m -89.064059,656.61098 a 2.362205,2.362205 0 1 0 -4.724409,0 2.362205,2.362205 0 1 0 4.724409,0 z"
       style="fill:none;stroke:#000000"
       id="path360"
       inkscape:connector-curvature="0" />
    <path
       d="m -88.245716,635.83969 a 2.362205,2.362205 0 1 0 -4.724409,0 2.362205,2.362205 0 1 0 4.724409,0 z"
       style="fill:none;stroke:#000000"
       id="path362"
       inkscape:connector-curvature="0" />
    <path
       d="m -66.261641,574.2099 a 2.362205,2.362205 0 1 0 -4.724409,0 2.362205,2.362205 0 1 0 4.724409,0 z"
       style="fill:none;stroke:#000000"
       id="path364"
       inkscape:connector-curvature="0" />
    <path
       d="m -66.898691,594.98754 a 2.362205,2.362205 0 1 0 -4.72441,0 2.362205,2.362205 0 1 0 4.72441,0 z"
       style="fill:none;stroke:#000000"
       id="path366"
       inkscape:connector-curvature="0" />
    <path
       d="m -67.535742,615.76518 a 2.362205,2.362205 0 1 0 -4.724409,0 2.362205,2.362205 0 1 0 4.724409,0 z"
       style="fill:none;stroke:#000000"
       id="path368"
       inkscape:connector-curvature="0" />
    <path
       d="m -68.172793,636.54282 a 2.362205,2.362205 0 1 0 -4.724409,0 2.362205,2.362205 0 1 0 4.724409,0 z"
       style="fill:none;stroke:#000000"
       id="path370"
       inkscape:connector-curvature="0" />
    <path
       d="m -68.809843,657.32045 a 2.362205,2.362205 0 1 0 -4.72441,0 2.362205,2.362205 0 1 0 4.72441,0 z"
       style="fill:none;stroke:#000000"
       id="path372"
       inkscape:connector-curvature="0" />
    <path
       d="m -69.446894,678.09809 a 2.362205,2.362205 0 1 0 -4.724409,0 2.362205,2.362205 0 1 0 4.724409,0 z"
       style="fill:none;stroke:#000000"
       id="path374"
       inkscape:connector-curvature="0" />
    <path
       d="m -70.083945,698.87573 a 2.362205,2.362205 0 1 0 -4.724409,0 2.362205,2.362205 0 1 0 4.724409,0 z"
       style="fill:none;stroke:#000000"
       id="path376"
       inkscape:connector-curvature="0" />
    <path
       d="m -70.720995,719.65337 a 2.362205,2.362205 0 1 0 -4.72441,0 2.362205,2.362205 0 1 0 4.72441,0 z"
       style="fill:none;stroke:#000000"
       id="path378"
       inkscape:connector-curvature="0" />
    <path
       d="m -87.427372,615.0684 a 2.362205,2.362205 0 1 0 -4.72441,0 2.362205,2.362205 0 1 0 4.72441,0 z"
       style="fill:none;stroke:#000000"
       id="path380"
       inkscape:connector-curvature="0" />
    <path
       d="m -86.609029,594.29712 a 2.362205,2.362205 0 1 0 -4.72441,0 2.362205,2.362205 0 1 0 4.72441,0 z"
       style="fill:none;stroke:#000000"
       id="path382"
       inkscape:connector-curvature="0" />
    <path
       d="m -85.790686,573.52583 a 2.362205,2.362205 0 1 0 -4.724409,0 2.362205,2.362205 0 1 0 4.724409,0 z"
       style="fill:none;stroke:#000000"
       id="path384"
       inkscape:connector-curvature="0" />
    <path
       d="m -84.972343,552.75454 a 2.362205,2.362205 0 1 0 -4.724409,0 2.362205,2.362205 0 1 0 4.724409,0 z"
       style="fill:none;stroke:#000000"
       id="path386"
       inkscape:connector-curvature="0" />
    <path
       d="m -84.154,531.98326 a 2.362205,2.362205 0 1 0 -4.724409,0 2.362205,2.362205 0 1 0 4.724409,0 z"
       style="fill:none;stroke:#000000"
       id="path388"
       inkscape:connector-curvature="0" />
    <path
       d="m -83.335656,511.21197 a 2.362205,2.362205 0 1 0 -4.72441,0 2.362205,2.362205 0 1 0 4.72441,0 z"
       style="fill:none;stroke:#000000"
       id="path390"
       inkscape:connector-curvature="0" />
    <path
       d="m -7.463225,533.66491 a 2.362205,2.362205 0 1 0 -4.724409,0 2.362205,2.362205 0 1 0 4.724409,0 z"
       style="fill:none;stroke:#000000"
       id="path392"
       inkscape:connector-curvature="0" />
    <path
       d="m -7.370288,512.87771 a 2.362205,2.362205 0 1 0 -4.724409,0 2.362205,2.362205 0 1 0 4.724409,0 z"
       style="fill:none;stroke:#000000"
       id="path394"
       inkscape:connector-curvature="0" />
    <path
       d="m -29.109696,720.5658 a 2.362205,2.362205 0 1 0 -4.72441,0 2.362205,2.362205 0 1 0 4.72441,0 z"
       style="fill:none;stroke:#000000"
       id="path396"
       inkscape:connector-curvature="0" />
    <path
       d="m -28.835363,699.78021 a 2.362205,2.362205 0 1 0 -4.724409,0 2.362205,2.362205 0 1 0 4.724409,0 z"
       style="fill:none;stroke:#000000"
       id="path398"
       inkscape:connector-curvature="0" />
    <path
       d="m -28.561029,678.99462 a 2.362205,2.362205 0 1 0 -4.724409,0 2.362205,2.362205 0 1 0 4.724409,0 z"
       style="fill:none;stroke:#000000"
       id="path400"
       inkscape:connector-curvature="0" />
    <path
       d="m -28.286695,658.20903 a 2.362205,2.362205 0 1 0 -4.724409,0 2.362205,2.362205 0 1 0 4.724409,0 z"
       style="fill:none;stroke:#000000"
       id="path402"
       inkscape:connector-curvature="0" />
    <path
       d="m -28.012361,637.42344 a 2.362205,2.362205 0 1 0 -4.72441,0 2.362205,2.362205 0 1 0 4.72441,0 z"
       style="fill:none;stroke:#000000"
       id="path404"
       inkscape:connector-curvature="0" />
    <path
       d="m -27.738027,616.63785 a 2.362205,2.362205 0 1 0 -4.72441,0 2.362205,2.362205 0 1 0 4.72441,0 z"
       style="fill:none;stroke:#000000"
       id="path406"
       inkscape:connector-curvature="0" />
    <path
       d="m -7.556162,554.4521 a 2.362205,2.362205 0 1 0 -4.72441,0 2.362205,2.362205 0 1 0 4.72441,0 z"
       style="fill:none;stroke:#000000"
       id="path408"
       inkscape:connector-curvature="0" />
    <path
       d="m -7.649099,575.23929 a 2.362205,2.362205 0 1 0 -4.72441,0 2.362205,2.362205 0 1 0 4.72441,0 z"
       style="fill:none;stroke:#000000"
       id="path410"
       inkscape:connector-curvature="0" />
    <path
       d="m -7.742037,596.02649 a 2.362205,2.362205 0 1 0 -4.724409,0 2.362205,2.362205 0 1 0 4.724409,0 z"
       style="fill:none;stroke:#000000"
       id="path412"
       inkscape:connector-curvature="0" />
    <path
       d="m -7.834974,616.81368 a 2.362205,2.362205 0 1 0 -4.724409,0 2.362205,2.362205 0 1 0 4.724409,0 z"
       style="fill:none;stroke:#000000"
       id="path414"
       inkscape:connector-curvature="0" />
    <path
       d="m -7.927911,637.60087 a 2.362205,2.362205 0 1 0 -4.724409,0 2.362205,2.362205 0 1 0 4.724409,0 z"
       style="fill:none;stroke:#000000"
       id="path416"
       inkscape:connector-curvature="0" />
    <path
       d="m -8.020848,658.38807 a 2.362205,2.362205 0 1 0 -4.72441,0 2.362205,2.362205 0 1 0 4.72441,0 z"
       style="fill:none;stroke:#000000"
       id="path418"
       inkscape:connector-curvature="0" />
    <path
       d="m -8.113785,679.17526 a 2.362205,2.362205 0 1 0 -4.72441,0 2.362205,2.362205 0 1 0 4.72441,0 z"
       style="fill:none;stroke:#000000"
       id="path420"
       inkscape:connector-curvature="0" />
    <path
       d="m -8.206723,699.96246 a 2.362205,2.362205 0 1 0 -4.724409,0 2.362205,2.362205 0 1 0 4.724409,0 z"
       style="fill:none;stroke:#000000"
       id="path422"
       inkscape:connector-curvature="0" />
    <path
       d="m -45.360241,512.37631 a 2.362205,2.362205 0 1 0 -4.724409,0 2.362205,2.362205 0 1 0 4.724409,0 z"
       style="fill:none;stroke:#000000"
       id="path424"
       inkscape:connector-curvature="0" />
    <path
       d="m -45.81595,533.15872 a 2.362205,2.362205 0 1 0 -4.72441,0 2.362205,2.362205 0 1 0 4.72441,0 z"
       style="fill:none;stroke:#000000"
       id="path426"
       inkscape:connector-curvature="0" />
    <path
       d="m -46.27166,553.94112 a 2.362205,2.362205 0 1 0 -4.724409,0 2.362205,2.362205 0 1 0 4.724409,0 z"
       style="fill:none;stroke:#000000"
       id="path428"
       inkscape:connector-curvature="0" />
    <path
       d="m -46.727369,574.72353 a 2.362205,2.362205 0 1 0 -4.72441,0 2.362205,2.362205 0 1 0 4.72441,0 z"
       style="fill:none;stroke:#000000"
       id="path430"
       inkscape:connector-curvature="0" />
    <path
       d="m -47.183079,595.50593 a 2.362205,2.362205 0 1 0 -4.724409,0 2.362205,2.362205 0 1 0 4.724409,0 z"
       style="fill:none;stroke:#000000"
       id="path432"
       inkscape:connector-curvature="0" />
    <path
       d="m -47.638788,616.28834 a 2.362205,2.362205 0 1 0 -4.72441,0 2.362205,2.362205 0 1 0 4.72441,0 z"
       style="fill:none;stroke:#000000"
       id="path434"
       inkscape:connector-curvature="0" />
    <path
       d="m -48.094498,637.07074 a 2.362205,2.362205 0 1 0 -4.72441,0 2.362205,2.362205 0 1 0 4.72441,0 z"
       style="fill:none;stroke:#000000"
       id="path436"
       inkscape:connector-curvature="0" />
    <path
       d="m -48.550208,657.85315 a 2.362205,2.362205 0 1 0 -4.724409,0 2.362205,2.362205 0 1 0 4.724409,0 z"
       style="fill:none;stroke:#000000"
       id="path438"
       inkscape:connector-curvature="0" />
    <path
       d="m -27.463693,595.85226 a 2.362205,2.362205 0 1 0 -4.72441,0 2.362205,2.362205 0 1 0 4.72441,0 z"
       style="fill:none;stroke:#000000"
       id="path440"
       inkscape:connector-curvature="0" />
    <path
       d="m -27.18936,575.06667 a 2.362205,2.362205 0 1 0 -4.724409,0 2.362205,2.362205 0 1 0 4.724409,0 z"
       style="fill:none;stroke:#000000"
       id="path442"
       inkscape:connector-curvature="0" />
    <path
       d="m -26.915026,554.28107 a 2.362205,2.362205 0 1 0 -4.724409,0 2.362205,2.362205 0 1 0 4.724409,0 z"
       style="fill:none;stroke:#000000"
       id="path444"
       inkscape:connector-curvature="0" />
    <path
       d="m -26.640692,533.49548 a 2.362205,2.362205 0 1 0 -4.724409,0 2.362205,2.362205 0 1 0 4.724409,0 z"
       style="fill:none;stroke:#000000"
       id="path446"
       inkscape:connector-curvature="0" />
    <path
       d="m -49.005917,678.63556 a 2.362205,2.362205 0 1 0 -4.72441,0 2.362205,2.362205 0 1 0 4.72441,0 z"
       style="fill:none;stroke:#000000"
       id="path448"
       inkscape:connector-curvature="0" />
    <path
       d="m -49.461627,699.41796 a 2.362205,2.362205 0 1 0 -4.724409,0 2.362205,2.362205 0 1 0 4.724409,0 z"
       style="fill:none;stroke:#000000"
       id="path450"
       inkscape:connector-curvature="0" />
    <path
       d="m -49.917336,720.20037 a 2.362205,2.362205 0 1 0 -4.72441,0 2.362205,2.362205 0 1 0 4.72441,0 z"
       style="fill:none;stroke:#000000"
       id="path452"
       inkscape:connector-curvature="0" />
    <path
       d="m -26.366358,512.70989 a 2.362205,2.362205 0 1 0 -4.72441,0 2.362205,2.362205 0 1 0 4.72441,0 z"
       style="fill:none;stroke:#000000"
       id="path454"
       inkscape:connector-curvature="0" />
    <path
       d="m -8.29966,720.74965 a 2.362205,2.362205 0 1 0 -4.724409,0 2.362205,2.362205 0 1 0 4.724409,0 z"
       style="fill:none;stroke:#000000"
       id="path456"
       inkscape:connector-curvature="0" />
    <path
       d="M 0,495.94772 V 737.13091"
       style="fill:none;stroke:#000000"
       id="path458"
       inkscape:connector-curvature="0" />
    <path
       d="M -95.19685,495.94772 H 0"
       style="fill:none;stroke:#000000"
       id="path460"
       inkscape:connector-curvature="0" />
    <path
       d="M -105.82677,737.13091 -95.19685,495.94772"
       style="fill:none;stroke:#000000"
       id="path462"
       inkscape:connector-curvature="0" />
    <path
       d="M -105.82677,737.13091 H 0"
       style="fill:none;stroke:#000000"
       id="path464"
       inkscape:connector-curvature="0" />
    <path
       d="m -46.805774,524.29418 a 1.417323,1.417323 0 1 0 -2.834646,0 1.417323,1.417323 0 1 0 2.834646,0 z"
       style="fill:none;stroke:#000000"
       id="path466"
       inkscape:connector-curvature="0" />
    <path
       d="m -50.871391,708.78445 a 1.417323,1.417323 0 1 0 -2.834646,0 1.417323,1.417323 0 1 0 2.834646,0 z"
       style="fill:none;stroke:#000000"
       id="path468"
       inkscape:connector-curvature="0" />
    <path
       d="m -74.409449,728.86319 a 1.1811025,1.1811025 0 1 0 -2.362205,0 1.1811025,1.1811025 0 1 0 2.362205,0 z"
       style="fill:none;stroke:#000000"
       id="path470"
       inkscape:connector-curvature="0" />
    <path
       d="m -51.550088,728.86319 a 1.181102,1.181102 0 1 0 -2.362204,0 1.181102,1.181102 0 1 0 2.362204,0 z"
       style="fill:none;stroke:#000000"
       id="path472"
       inkscape:connector-curvature="0" />
    <path
       d="m -29.055118,728.86319 a 1.1811025,1.1811025 0 1 0 -2.362205,0 1.1811025,1.1811025 0 1 0 2.362205,0 z"
       style="fill:none;stroke:#000000"
       id="path474"
       inkscape:connector-curvature="0" />
    <path
       d="m -63.779528,504.21544 a 1.181102,1.181102 0 1 0 -2.362204,0 1.181102,1.181102 0 1 0 2.362204,0 z"
       style="fill:none;stroke:#000000"
       id="path476"
       inkscape:connector-curvature="0" />
    <path
       d="m -46.599519,504.21544 a 1.181102,1.181102 0 1 0 -2.362204,0 1.181102,1.181102 0 1 0 2.362204,0 z"
       style="fill:none;stroke:#000000"
       id="path478"
       inkscape:connector-curvature="0" />
    <path
       d="m -29.055118,504.21544 a 1.1811025,1.1811025 0 1 0 -2.362205,0 1.1811025,1.1811025 0 1 0 2.362205,0 z"
       style="fill:none;stroke:#000000"
       id="path480"
       inkscape:connector-curvature="0" />
  </g>
  <g
     inkscape:groupmode="layer"
     inkscape:label="ModelSketch_Visible"
     id="g484"
     transform="translate(106.32629,-495.44772)" />
  <g
     inkscape:groupmode="layer"
     inkscape:label="ModelSketch_Construction"
     id="g486"
     transform="translate(106.32629,-495.44772)" />
  <g
     inkscape:groupmode="layer"
     inkscape:label="HIDDEN_BASE_VIEW"
     id="g488"
     transform="translate(106.32629,-495.44772)" />
  <g
     inkscape:groupmode="layer"
     inkscape:label="TANGENT_LINES"
     id="g490"
     transform="translate(106.32629,-495.44772)" />
  <g
     inkscape:groupmode="layer"
     inkscape:label="TANGENT_HIDDEN"
     id="g492"
     transform="translate(106.32629,-495.44772)" />
  <g
     inkscape:groupmode="layer"
     inkscape:label="INVISIBLE_LINES"
     id="g494"
     transform="translate(106.32629,-495.44772)" />
  <g
     inkscape:groupmode="layer"
     inkscape:label="VIEW_HATCHES"
     id="g496"
     transform="translate(106.32629,-495.44772)" />
  <g
     inkscape:groupmode="layer"
     inkscape:label="SECTION_JOG_LINES"
     id="g498"
     transform="translate(106.32629,-495.44772)" />
</svg>
