<?xml version="1.0" encoding="UTF-8" standalone="no"?>
<svg
   xmlns:dc="http://purl.org/dc/elements/1.1/"
   xmlns:cc="http://creativecommons.org/ns#"
   xmlns:rdf="http://www.w3.org/1999/02/22-rdf-syntax-ns#"
   xmlns:svg="http://www.w3.org/2000/svg"
   xmlns="http://www.w3.org/2000/svg"
   xmlns:sodipodi="http://sodipodi.sourceforge.net/DTD/sodipodi-0.dtd"
   xmlns:inkscape="http://www.inkscape.org/namespaces/inkscape"
   width="63.989014cm"
   height="214.93274cm"
   version="1.1"
   id="svg1940"
   sodipodi:docname="A_LED.svg"
   inkscape:version="0.92.4 (5da689c313, 2019-01-14)">
  <metadata
     id="metadata1944">
    <rdf:RDF>
      <cc:Work
         rdf:about="">
        <dc:format>image/svg+xml</dc:format>
        <dc:type
           rdf:resource="http://purl.org/dc/dcmitype/StillImage" />
        <dc:title></dc:title>
      </cc:Work>
    </rdf:RDF>
  </metadata>
  <sodipodi:namedview
     pagecolor="#ffffff"
     bordercolor="#666666"
     borderopacity="1"
     objecttolerance="10"
     gridtolerance="10"
     guidetolerance="10"
     inkscape:pageopacity="0"
     inkscape:pageshadow="2"
     inkscape:window-width="1501"
     inkscape:window-height="980"
     id="namedview1942"
     showgrid="false"
     inkscape:zoom="0.052560327"
     inkscape:cx="2814.8329"
     inkscape:cy="4088.2736"
     inkscape:window-x="0"
     inkscape:window-y="0"
     inkscape:window-maximized="0"
     inkscape:current-layer="g1938"
     units="cm"
     inkscape:document-units="cm" />
  <desc
     id="desc1680">C:\Users\Tracy\Downloads\A_LED.dxf - scale = 25.400000, origin = (0.000000, 0.000000), method = file</desc>
  <defs
     id="defs1694">
    <marker
       id="DistanceX"
       orient="auto"
       refX="0"
       refY="0"
       style="overflow:visible">
      <path
         d="M 3,-3 -3,3 M 0,-5 V 5"
         style="stroke:#000000;stroke-width:0.5"
         id="path1682"
         inkscape:connector-curvature="0" />
    </marker>
    <pattern
       height="8"
       id="Hatch"
       patternUnits="userSpaceOnUse"
       width="8"
       x="0"
       y="0">
      <path
         d="M8 4 l-4,4"
         linecap="square"
         stroke="#000000"
         stroke-width="0.25"
         id="path1685" />
      <path
         d="M6 2 l-4,4"
         linecap="square"
         stroke="#000000"
         stroke-width="0.25"
         id="path1687" />
      <path
         d="M4 0 l-4,4"
         linecap="square"
         stroke="#000000"
         stroke-width="0.25"
         id="path1689" />
    </pattern>
    <symbol
       id="*MODEL_SPACE" />
    <symbol
       id="*PAPER_SPACE" />
  </defs>
  <g
     inkscape:groupmode="layer"
     inkscape:label="0"
     id="g1696"
     transform="translate(2417.9825,22945.466)" />
  <g
     inkscape:groupmode="layer"
     inkscape:label="SECTION_CUTTING_LINE"
     id="g1698"
     transform="translate(2417.9825,22945.466)" />
  <g
     inkscape:groupmode="layer"
     inkscape:label="DETAIL_VIEW_BORDER"
     id="g1700"
     transform="translate(2417.9825,22945.466)" />
  <g
     inkscape:groupmode="layer"
     inkscape:label="DETAIL_VIEW_PARENT_BORDER"
     id="g1702"
     transform="translate(2417.9825,22945.466)" />
  <g
     inkscape:groupmode="layer"
     inkscape:label="TEXT"
     id="g1704"
     transform="translate(2417.9825,22945.466)" />
  <g
     inkscape:groupmode="layer"
     inkscape:label="SKETCHED_GEOMETRY"
     id="g1706"
     transform="translate(2417.9825,22945.466)" />
  <g
     inkscape:groupmode="layer"
     inkscape:label="VIRTUAL_SHARPS"
     id="g1708"
     transform="translate(2417.9825,22945.466)" />
  <g
     inkscape:groupmode="layer"
     inkscape:label="CENTERLINES"
     id="g1710"
     transform="translate(2417.9825,22945.466)" />
  <g
     inkscape:groupmode="layer"
     inkscape:label="CENTERMARKS"
     id="g1712"
     transform="translate(2417.9825,22945.466)" />
  <g
     inkscape:groupmode="layer"
     inkscape:label="TABLES"
     id="g1714"
     transform="translate(2417.9825,22945.466)" />
  <g
     inkscape:groupmode="layer"
     inkscape:label="IMAGES"
     id="g1716"
     transform="translate(2417.9825,22945.466)" />
  <g
     inkscape:groupmode="layer"
     inkscape:label="ANNOTATION_LINES"
     id="g1718"
     transform="translate(2417.9825,22945.466)" />
  <g
     inkscape:groupmode="layer"
     inkscape:label="ANNOTATION_TEXT"
     id="g1720"
     transform="translate(2417.9825,22945.466)" />
  <g
     inkscape:groupmode="layer"
     inkscape:label="SIDE_THREAD_SYMBOLS"
     id="g1722"
     transform="translate(2417.9825,22945.466)" />
  <g
     inkscape:groupmode="layer"
     inkscape:label="SIDE_THREAD_SYMBOLS_HIDDEN"
     id="g1724"
     transform="translate(2417.9825,22945.466)" />
  <g
     inkscape:groupmode="layer"
     inkscape:label="SURFACE_THREAD_SYMBOLS"
     id="g1726"
     transform="translate(2417.9825,22945.466)" />
  <g
     inkscape:groupmode="layer"
     inkscape:label="SURFACE_THREAD_SYMBOLS_ON_"
     id="g1728"
     transform="translate(2417.9825,22945.466)" />
  <g
     inkscape:groupmode="layer"
     inkscape:label="SURFACE_THREAD_SYMBOLS_HID"
     id="g1730"
     transform="translate(2417.9825,22945.466)" />
  <g
     inkscape:groupmode="layer"
     inkscape:label="BLIND_THREAD_SYMBOLS"
     id="g1732"
     transform="translate(2417.9825,22945.466)" />
  <g
     inkscape:groupmode="layer"
     inkscape:label="BLIND_THREAD_SYMBOLS_HIDDE"
     id="g1734"
     transform="translate(2417.9825,22945.466)" />
  <g
     inkscape:groupmode="layer"
     inkscape:label="EXPLODE_LINES"
     id="g1736"
     transform="translate(2417.9825,22945.466)" />
  <g
     inkscape:groupmode="layer"
     inkscape:label="BREAK_LINES"
     id="g1738"
     transform="translate(2417.9825,22945.466)" />
  <g
     inkscape:groupmode="layer"
     inkscape:label="SHEETMETAL_BEND_LINES_UP"
     id="g1740"
     transform="translate(2417.9825,22945.466)" />
  <g
     inkscape:groupmode="layer"
     inkscape:label="SHEETMETAL_BEND_LINES_DOWN"
     id="g1742"
     transform="translate(2417.9825,22945.466)" />
  <g
     inkscape:groupmode="layer"
     inkscape:label="SHEETMETAL_BEND_TANGENT_LI"
     id="g1744"
     transform="translate(2417.9825,22945.466)" />
  <g
     inkscape:groupmode="layer"
     inkscape:label="SHEETMETAL_CUT_LINES"
     id="g1746"
     transform="translate(2417.9825,22945.466)" />
  <g
     inkscape:groupmode="layer"
     inkscape:label="HIDDEN"
     id="g1748"
     transform="translate(2417.9825,22945.466)" />
  <g
     inkscape:groupmode="layer"
     inkscape:label="VISIBLE"
     id="g1922"
     transform="translate(2417.9825,22945.466)">
    <path
       d="m -1558.6609,-16807.56 a 60,60 0 1 0 -120,0 60,60 0 1 0 120,0 z"
       style="fill:none;stroke:#000000"
       id="path1750"
       inkscape:connector-curvature="0" />
    <path
       d="m -1574.4448,-16279.796 a 60,60 0 1 0 -120,0 60,60 0 1 0 120,0 z"
       style="fill:none;stroke:#000000"
       id="path1752"
       inkscape:connector-curvature="0" />
    <path
       d="m -1590.2287,-15752.032 a 60,60 0 1 0 -120,0 60,60 0 1 0 120,0 z"
       style="fill:none;stroke:#000000"
       id="path1754"
       inkscape:connector-curvature="0" />
    <path
       d="m -1606.0126,-15224.268 a 60,60 0 1 0 -120,0 60,60 0 1 0 120,0 z"
       style="fill:none;stroke:#000000"
       id="path1756"
       inkscape:connector-curvature="0" />
    <path
       d="m -963.3385,-22602.194 a 60,60 0 1 0 -120,0 60,60 0 1 0 120,0 z"
       style="fill:none;stroke:#000000"
       id="path1758"
       inkscape:connector-curvature="0" />
    <path
       d="m -974.51626,-22074.312 a 60.00002,60.00002 0 1 0 -120.00004,0 60.00002,60.00002 0 1 0 120.00004,0 z"
       style="fill:none;stroke:#000000"
       id="path1760"
       inkscape:connector-curvature="0" />
    <path
       d="m -985.69402,-21546.43 a 60,60 0 1 0 -119.99998,0 60,60 0 1 0 119.99998,0 z"
       style="fill:none;stroke:#000000"
       id="path1762"
       inkscape:connector-curvature="0" />
    <path
       d="m -996.87178,-21018.549 a 60.00001,60.00001 0 1 0 -120.00002,0 60.00001,60.00001 0 1 0 120.00002,0 z"
       style="fill:none;stroke:#000000"
       id="path1764"
       inkscape:connector-curvature="0" />
    <path
       d="m -1008.0495,-20490.667 a 60,60 0 1 0 -120,0 60,60 0 1 0 120,0 z"
       style="fill:none;stroke:#000000"
       id="path1766"
       inkscape:connector-curvature="0" />
    <path
       d="m -1019.2273,-19962.785 a 60,60 0 1 0 -120,0 60,60 0 1 0 120,0 z"
       style="fill:none;stroke:#000000"
       id="path1768"
       inkscape:connector-curvature="0" />
    <path
       d="m -1030.4051,-19434.904 a 60,60 0 1 0 -120,0 60,60 0 1 0 120,0 z"
       style="fill:none;stroke:#000000"
       id="path1770"
       inkscape:connector-curvature="0" />
    <path
       d="m -1041.5828,-18907.022 a 60,60 0 1 0 -120,0 60,60 0 1 0 120,0 z"
       style="fill:none;stroke:#000000"
       id="path1772"
       inkscape:connector-curvature="0" />
    <path
       d="m -1052.7606,-18379.14 a 60,60 0 1 0 -120,0 60,60 0 1 0 120,0 z"
       style="fill:none;stroke:#000000"
       id="path1774"
       inkscape:connector-curvature="0" />
    <path
       d="m -1063.9383,-17851.258 a 60,60 0 1 0 -120,0 60,60 0 1 0 120,0 z"
       style="fill:none;stroke:#000000"
       id="path1776"
       inkscape:connector-curvature="0" />
    <path
       d="m -1075.1161,-17323.377 a 60,60 0 1 0 -120,0 60,60 0 1 0 120,0 z"
       style="fill:none;stroke:#000000"
       id="path1778"
       inkscape:connector-curvature="0" />
    <path
       d="m -1086.2938,-16795.495 a 60,60 0 1 0 -120,0 60,60 0 1 0 120,0 z"
       style="fill:none;stroke:#000000"
       id="path1780"
       inkscape:connector-curvature="0" />
    <path
       d="m -2092.0712,-15240.927 a 60,60 0 1 0 -120,0 60,60 0 1 0 120,0 z"
       style="fill:none;stroke:#000000"
       id="path1782"
       inkscape:connector-curvature="0" />
    <path
       d="m -1385.0378,-22612.964 a 60,60 0 1 0 -120,0 60,60 0 1 0 120,0 z"
       style="fill:none;stroke:#000000"
       id="path1784"
       inkscape:connector-curvature="0" />
    <path
       d="m -1400.8218,-22085.2 a 60,60 0 1 0 -120,0 60,60 0 1 0 120,0 z"
       style="fill:none;stroke:#000000"
       id="path1786"
       inkscape:connector-curvature="0" />
    <path
       d="m -1416.6057,-21557.436 a 60,60 0 1 0 -120,0 60,60 0 1 0 120,0 z"
       style="fill:none;stroke:#000000"
       id="path1788"
       inkscape:connector-curvature="0" />
    <path
       d="m -2071.6823,-15768.533 a 60,60 0 1 0 -120,0 60,60 0 1 0 120,0 z"
       style="fill:none;stroke:#000000"
       id="path1790"
       inkscape:connector-curvature="0" />
    <path
       d="m -2051.2935,-16296.14 a 60,60 0 1 0 -120,0 60,60 0 1 0 120,0 z"
       style="fill:none;stroke:#000000"
       id="path1792"
       inkscape:connector-curvature="0" />
    <path
       d="m -2030.9046,-16823.746 a 60,60 0 1 0 -120,0 60,60 0 1 0 120,0 z"
       style="fill:none;stroke:#000000"
       id="path1794"
       inkscape:connector-curvature="0" />
    <path
       d="m -2010.5158,-17351.352 a 60,60 0 1 0 -120,0 60,60 0 1 0 120,0 z"
       style="fill:none;stroke:#000000"
       id="path1796"
       inkscape:connector-curvature="0" />
    <path
       d="m -1432.3896,-21029.672 a 60,60 0 1 0 -120,0 60,60 0 1 0 120,0 z"
       style="fill:none;stroke:#000000"
       id="path1798"
       inkscape:connector-curvature="0" />
    <path
       d="m -1448.1735,-20501.908 a 60,60 0 1 0 -120,0 60,60 0 1 0 120,0 z"
       style="fill:none;stroke:#000000"
       id="path1800"
       inkscape:connector-curvature="0" />
    <path
       d="m -1463.9574,-19974.144 a 60,60 0 1 0 -120,0 60,60 0 1 0 120,0 z"
       style="fill:none;stroke:#000000"
       id="path1802"
       inkscape:connector-curvature="0" />
    <path
       d="m -1479.7413,-19446.38 a 60,60 0 1 0 -120,0 60,60 0 1 0 120,0 z"
       style="fill:none;stroke:#000000"
       id="path1804"
       inkscape:connector-curvature="0" />
    <path
       d="m -1495.5252,-18918.616 a 60,60 0 1 0 -120,0 60,60 0 1 0 120,0 z"
       style="fill:none;stroke:#000000"
       id="path1806"
       inkscape:connector-curvature="0" />
    <path
       d="m -1511.3091,-18390.852 a 60,60 0 1 0 -120,0 60,60 0 1 0 120,0 z"
       style="fill:none;stroke:#000000"
       id="path1808"
       inkscape:connector-curvature="0" />
    <path
       d="m -1527.093,-17863.088 a 60,60 0 1 0 -120,0 60,60 0 1 0 120,0 z"
       style="fill:none;stroke:#000000"
       id="path1810"
       inkscape:connector-curvature="0" />
    <path
       d="m -1542.877,-17335.324 a 60,60 0 1 0 -120,0 60,60 0 1 0 120,0 z"
       style="fill:none;stroke:#000000"
       id="path1812"
       inkscape:connector-curvature="0" />
    <path
       d="m -129.55439,-19951.713 a 60,60 0 1 0 -120,0 60,60 0 1 0 120,0 z"
       style="fill:none;stroke:#000000"
       id="path1814"
       inkscape:connector-curvature="0" />
    <path
       d="m -127.59114,-20479.709 a 60,60 0 1 0 -120,0 60,60 0 1 0 120,0 z"
       style="fill:none;stroke:#000000"
       id="path1816"
       inkscape:connector-curvature="0" />
    <path
       d="m -125.62789,-21007.705 a 60,60 0 1 0 -120,0 60,60 0 1 0 120,0 z"
       style="fill:none;stroke:#000000"
       id="path1818"
       inkscape:connector-curvature="0" />
    <path
       d="m -123.66464,-21535.702 a 60,60 0 1 0 -120,0 60,60 0 1 0 120,0 z"
       style="fill:none;stroke:#000000"
       id="path1820"
       inkscape:connector-curvature="0" />
    <path
       d="m -121.70139,-22063.698 a 60,60 0 1 0 -120,0 60,60 0 1 0 120,0 z"
       style="fill:none;stroke:#000000"
       id="path1822"
       inkscape:connector-curvature="0" />
    <path
       d="m -119.73814,-22591.694 a 60,60 0 1 0 -120,0 60,60 0 1 0 120,0 z"
       style="fill:none;stroke:#000000"
       id="path1824"
       inkscape:connector-curvature="0" />
    <path
       d="m -633.55179,-15203.676 a 60,60 0 1 0 -120,0 60,60 0 1 0 120,0 z"
       style="fill:none;stroke:#000000"
       id="path1826"
       inkscape:connector-curvature="0" />
    <path
       d="m -626.98103,-15731.635 a 60,60 0 1 0 -120,0 60,60 0 1 0 120,0 z"
       style="fill:none;stroke:#000000"
       id="path1828"
       inkscape:connector-curvature="0" />
    <path
       d="m -131.51764,-19423.716 a 60,60 0 1 0 -120,0 60,60 0 1 0 120,0 z"
       style="fill:none;stroke:#000000"
       id="path1830"
       inkscape:connector-curvature="0" />
    <path
       d="m -133.48089,-18895.72 a 60,60 0 1 0 -120,0 60,60 0 1 0 120,0 z"
       style="fill:none;stroke:#000000"
       id="path1832"
       inkscape:connector-curvature="0" />
    <path
       d="m -135.44414,-18367.724 a 60,60 0 1 0 -120,0 60,60 0 1 0 120,0 z"
       style="fill:none;stroke:#000000"
       id="path1834"
       inkscape:connector-curvature="0" />
    <path
       d="m -137.40739,-17839.727 a 60,60 0 1 0 -120,0 60,60 0 1 0 120,0 z"
       style="fill:none;stroke:#000000"
       id="path1836"
       inkscape:connector-curvature="0" />
    <path
       d="m -139.37064,-17311.731 a 60,60 0 1 0 -120,0 60,60 0 1 0 120,0 z"
       style="fill:none;stroke:#000000"
       id="path1838"
       inkscape:connector-curvature="0" />
    <path
       d="m -141.33389,-16783.735 a 60,60 0 1 0 -120,0 60,60 0 1 0 120,0 z"
       style="fill:none;stroke:#000000"
       id="path1840"
       inkscape:connector-curvature="0" />
    <path
       d="m -143.29714,-16255.738 a 60,60 0 1 0 -120,0 60,60 0 1 0 120,0 z"
       style="fill:none;stroke:#000000"
       id="path1842"
       inkscape:connector-curvature="0" />
    <path
       d="m -145.26039,-15727.742 a 60,60 0 1 0 -120,0 60,60 0 1 0 120,0 z"
       style="fill:none;stroke:#000000"
       id="path1844"
       inkscape:connector-curvature="0" />
    <path
       d="m -567.84424,-20483.267 a 60,60 0 1 0 -120,0 60,60 0 1 0 120,0 z"
       style="fill:none;stroke:#000000"
       id="path1846"
       inkscape:connector-curvature="0" />
    <path
       d="m -561.27349,-21011.226 a 60,60 0 1 0 -120,0 60,60 0 1 0 120,0 z"
       style="fill:none;stroke:#000000"
       id="path1848"
       inkscape:connector-curvature="0" />
    <path
       d="m -554.70273,-21539.185 a 60,60 0 1 0 -120,0 60,60 0 1 0 120,0 z"
       style="fill:none;stroke:#000000"
       id="path1850"
       inkscape:connector-curvature="0" />
    <path
       d="m -548.13198,-22067.144 a 60,60 0 1 0 -120,0 60,60 0 1 0 120,0 z"
       style="fill:none;stroke:#000000"
       id="path1852"
       inkscape:connector-curvature="0" />
    <path
       d="m -1097.4716,-16267.613 a 60,60 0 1 0 -120,0 60,60 0 1 0 120,0 z"
       style="fill:none;stroke:#000000"
       id="path1854"
       inkscape:connector-curvature="0" />
    <path
       d="m -1108.6494,-15739.732 a 60,60 0 1 0 -120,0 60,60 0 1 0 120,0 z"
       style="fill:none;stroke:#000000"
       id="path1856"
       inkscape:connector-curvature="0" />
    <path
       d="m -1119.8271,-15211.85 a 60,60 0 1 0 -120,0 60,60 0 1 0 120,0 z"
       style="fill:none;stroke:#000000"
       id="path1858"
       inkscape:connector-curvature="0" />
    <path
       d="m -541.56123,-22595.104 a 60,60 0 1 0 -120,0 60,60 0 1 0 120,0 z"
       style="fill:none;stroke:#000000"
       id="path1860"
       inkscape:connector-curvature="0" />
    <path
       d="m -574.415,-19955.308 a 60,60 0 1 0 -120,0 60,60 0 1 0 120,0 z"
       style="fill:none;stroke:#000000"
       id="path1862"
       inkscape:connector-curvature="0" />
    <path
       d="m -580.98575,-19427.349 a 60,60 0 1 0 -120,0 60,60 0 1 0 120,0 z"
       style="fill:none;stroke:#000000"
       id="path1864"
       inkscape:connector-curvature="0" />
    <path
       d="m -587.55651,-18899.39 a 60,60 0 1 0 -120,0 60,60 0 1 0 120,0 z"
       style="fill:none;stroke:#000000"
       id="path1866"
       inkscape:connector-curvature="0" />
    <path
       d="m -594.12726,-18371.431 a 60,60 0 1 0 -120,0 60,60 0 1 0 120,0 z"
       style="fill:none;stroke:#000000"
       id="path1868"
       inkscape:connector-curvature="0" />
    <path
       d="m -600.69802,-17843.472 a 60,60 0 1 0 -120,0 60,60 0 1 0 120,0 z"
       style="fill:none;stroke:#000000"
       id="path1870"
       inkscape:connector-curvature="0" />
    <path
       d="m -607.26877,-17315.512 a 60,60 0 1 0 -120,0 60,60 0 1 0 120,0 z"
       style="fill:none;stroke:#000000"
       id="path1872"
       inkscape:connector-curvature="0" />
    <path
       d="m -613.83952,-16787.553 a 60,60 0 1 0 -120,0 60,60 0 1 0 120,0 z"
       style="fill:none;stroke:#000000"
       id="path1874"
       inkscape:connector-curvature="0" />
    <path
       d="m -620.41028,-16259.594 a 60,60 0 1 0 -120,0 60,60 0 1 0 120,0 z"
       style="fill:none;stroke:#000000"
       id="path1876"
       inkscape:connector-curvature="0" />
    <path
       d="m -1990.1269,-17878.958 a 60,60 0 1 0 -120,0 60,60 0 1 0 120,0 z"
       style="fill:none;stroke:#000000"
       id="path1878"
       inkscape:connector-curvature="0" />
    <path
       d="m -1969.738,-18406.564 a 60,60 0 1 0 -120,0 60,60 0 1 0 120,0 z"
       style="fill:none;stroke:#000000"
       id="path1880"
       inkscape:connector-curvature="0" />
    <path
       d="m -1949.3492,-18934.171 a 60,60 0 1 0 -120,0 60,60 0 1 0 120,0 z"
       style="fill:none;stroke:#000000"
       id="path1882"
       inkscape:connector-curvature="0" />
    <path
       d="m -1928.9603,-19461.777 a 60,60 0 1 0 -120,0 60,60 0 1 0 120,0 z"
       style="fill:none;stroke:#000000"
       id="path1884"
       inkscape:connector-curvature="0" />
    <path
       d="m -1908.5715,-19989.383 a 60,60 0 1 0 -120,0 60,60 0 1 0 120,0 z"
       style="fill:none;stroke:#000000"
       id="path1886"
       inkscape:connector-curvature="0" />
    <path
       d="m -1888.1826,-20516.989 a 60,60 0 1 0 -120,0 60,60 0 1 0 120,0 z"
       style="fill:none;stroke:#000000"
       id="path1888"
       inkscape:connector-curvature="0" />
    <path
       d="m -1867.7937,-21044.595 a 60,60 0 1 0 -120,0 60,60 0 1 0 120,0 z"
       style="fill:none;stroke:#000000"
       id="path1890"
       inkscape:connector-curvature="0" />
    <path
       d="m -1847.4049,-21572.201 a 60,60 0 1 0 -120,0 60,60 0 1 0 120,0 z"
       style="fill:none;stroke:#000000"
       id="path1892"
       inkscape:connector-curvature="0" />
    <path
       d="m -1827.016,-22099.808 a 60,60 0 1 0 -120,0 60,60 0 1 0 120,0 z"
       style="fill:none;stroke:#000000"
       id="path1894"
       inkscape:connector-curvature="0" />
    <path
       d="m -1806.6271,-22627.414 a 60,60 0 1 0 -120,0 60,60 0 1 0 120,0 z"
       style="fill:none;stroke:#000000"
       id="path1896"
       inkscape:connector-curvature="0" />
    <path
       d="m -147.22364,-15199.746 a 60,60 0 1 0 -120,0 60,60 0 1 0 120,0 z"
       style="fill:none;stroke:#000000"
       id="path1898"
       inkscape:connector-curvature="0" />
    <path
       d="m -1011.977,-22284.966 a 36,36 0 1 0 -72,0 36,36 0 1 0 72,0 z"
       style="fill:none;stroke:#000000"
       id="path1900"
       inkscape:connector-curvature="0" />
    <path
       d="m -1158.523,-15482.525 a 36,36 0 1 0 -72,0 36,36 0 1 0 72,0 z"
       style="fill:none;stroke:#000000"
       id="path1902"
       inkscape:connector-curvature="0" />
    <path
       d="m -1174.4759,-15020.525 a 30,30 0 1 0 -60,0 30,30 0 1 0 60,0 z"
       style="fill:none;stroke:#000000"
       id="path1904"
       inkscape:connector-curvature="0" />
    <path
       d="m -738,-15020.525 a 30,30 0 1 0 -60,0 30,30 0 1 0 60,0 z"
       style="fill:none;stroke:#000000"
       id="path1906"
       inkscape:connector-curvature="0" />
    <path
       d="m -1620,-15020.525 a 30,30 0 1 0 -60,0 30,30 0 1 0 60,0 z"
       style="fill:none;stroke:#000000"
       id="path1908"
       inkscape:connector-curvature="0" />
    <path
       d="m -1269,-22746.966 a 30,30 0 1 0 -60,0 30,30 0 1 0 60,0 z"
       style="fill:none;stroke:#000000"
       id="path1910"
       inkscape:connector-curvature="0" />
    <path
       d="m -738,-22746.966 a 30,30 0 1 0 -60,0 30,30 0 1 0 60,0 z"
       style="fill:none;stroke:#000000"
       id="path1912"
       inkscape:connector-curvature="0" />
    <path
       d="M -2417.483,-14822.525 H 0"
       style="fill:none;stroke:#000000"
       id="path1914"
       inkscape:connector-curvature="0" />
    <path
       d="m 0,-14822.525 v -8122.441"
       style="fill:none;stroke:#000000"
       id="path1916"
       inkscape:connector-curvature="0" />
    <path
       d="M -2067.517,-22944.966 H 0"
       style="fill:none;stroke:#000000"
       id="path1918"
       inkscape:connector-curvature="0" />
    <path
       d="m -2417.483,-14822.525 349.966,-8122.441"
       style="fill:none;stroke:#000000"
       id="path1920"
       inkscape:connector-curvature="0" />
  </g>
  <g
     inkscape:groupmode="layer"
     inkscape:label="MODELSKETCH_VISIBLE"
     id="g1924"
     transform="translate(2417.9825,22945.466)" />
  <g
     inkscape:groupmode="layer"
     inkscape:label="MODELSKETCH_CONSTRUCTION"
     id="g1926"
     transform="translate(2417.9825,22945.466)" />
  <g
     inkscape:groupmode="layer"
     inkscape:label="HIDDEN_BASE_VIEW"
     id="g1928"
     transform="translate(2417.9825,22945.466)" />
  <g
     inkscape:groupmode="layer"
     inkscape:label="TANGENT_LINES"
     id="g1930"
     transform="translate(2417.9825,22945.466)" />
  <g
     inkscape:groupmode="layer"
     inkscape:label="TANGENT_HIDDEN"
     id="g1932"
     transform="translate(2417.9825,22945.466)" />
  <g
     inkscape:groupmode="layer"
     inkscape:label="INVISIBLE_LINES"
     id="g1934"
     transform="translate(2417.9825,22945.466)" />
  <g
     inkscape:groupmode="layer"
     inkscape:label="VIEW_HATCHES"
     id="g1936"
     transform="translate(2417.9825,22945.466)" />
  <g
     inkscape:groupmode="layer"
     inkscape:label="SECTION_JOG_LINES"
     id="g1938"
     transform="translate(2417.9825,22945.466)" />
</svg>
