<?xml version="1.0" encoding="UTF-8" standalone="no"?>
<svg
   xmlns:dc="http://purl.org/dc/elements/1.1/"
   xmlns:cc="http://creativecommons.org/ns#"
   xmlns:rdf="http://www.w3.org/1999/02/22-rdf-syntax-ns#"
   xmlns:svg="http://www.w3.org/2000/svg"
   xmlns="http://www.w3.org/2000/svg"
   xmlns:sodipodi="http://sodipodi.sourceforge.net/DTD/sodipodi-0.dtd"
   xmlns:inkscape="http://www.inkscape.org/namespaces/inkscape"
   width="95.673332cm"
   height="168.61896cm"
   version="1.1"
   id="svg1674"
   sodipodi:docname="E_LED.svg"
   inkscape:version="0.92.4 (5da689c313, 2019-01-14)">
  <metadata
     id="metadata1678">
    <rdf:RDF>
      <cc:Work
         rdf:about="">
        <dc:format>image/svg+xml</dc:format>
        <dc:type
           rdf:resource="http://purl.org/dc/dcmitype/StillImage" />
        <dc:title></dc:title>
      </cc:Work>
    </rdf:RDF>
  </metadata>
  <sodipodi:namedview
     pagecolor="#ffffff"
     bordercolor="#666666"
     borderopacity="1"
     objecttolerance="10"
     gridtolerance="10"
     guidetolerance="10"
     inkscape:pageopacity="0"
     inkscape:pageshadow="2"
     inkscape:window-width="1561"
     inkscape:window-height="1022"
     id="namedview1676"
     showgrid="false"
     inkscape:zoom="0.074331527"
     inkscape:cx="4012.3504"
     inkscape:cy="1783.6337"
     inkscape:window-x="0"
     inkscape:window-y="0"
     inkscape:window-maximized="0"
     inkscape:current-layer="g1672"
     inkscape:document-units="cm"
     units="cm" />
  <desc
     id="desc1354">C:\Users\Tracy\Downloads\E_LED.dxf - scale = 25.400000, origin = (0.000000, 0.000000), method = file</desc>
  <defs
     id="defs1368">
    <marker
       id="DistanceX"
       orient="auto"
       refX="0"
       refY="0"
       style="overflow:visible">
      <path
         d="M 3,-3 -3,3 M 0,-5 V 5"
         style="stroke:#000000;stroke-width:0.5"
         id="path1356"
         inkscape:connector-curvature="0" />
    </marker>
    <pattern
       height="8"
       id="Hatch"
       patternUnits="userSpaceOnUse"
       width="8"
       x="0"
       y="0">
      <path
         d="M8 4 l-4,4"
         linecap="square"
         stroke="#000000"
         stroke-width="0.25"
         id="path1359" />
      <path
         d="M6 2 l-4,4"
         linecap="square"
         stroke="#000000"
         stroke-width="0.25"
         id="path1361" />
      <path
         d="M4 0 l-4,4"
         linecap="square"
         stroke="#000000"
         stroke-width="0.25"
         id="path1363" />
    </pattern>
    <symbol
       id="*MODEL_SPACE" />
    <symbol
       id="*PAPER_SPACE" />
  </defs>
  <g
     inkscape:groupmode="layer"
     inkscape:label="0"
     id="g1370"
     transform="translate(3615.5,5261.9803)" />
  <g
     inkscape:groupmode="layer"
     inkscape:label="SECTION_CUTTING_LINE"
     id="g1372"
     transform="translate(3615.5,5261.9803)" />
  <g
     inkscape:groupmode="layer"
     inkscape:label="DETAIL_VIEW_BORDER"
     id="g1374"
     transform="translate(3615.5,5261.9803)" />
  <g
     inkscape:groupmode="layer"
     inkscape:label="DETAIL_VIEW_PARENT_BORDER"
     id="g1376"
     transform="translate(3615.5,5261.9803)" />
  <g
     inkscape:groupmode="layer"
     inkscape:label="TEXT"
     id="g1378"
     transform="translate(3615.5,5261.9803)" />
  <g
     inkscape:groupmode="layer"
     inkscape:label="SKETCHED_GEOMETRY"
     id="g1380"
     transform="translate(3615.5,5261.9803)" />
  <g
     inkscape:groupmode="layer"
     inkscape:label="VIRTUAL_SHARPS"
     id="g1382"
     transform="translate(3615.5,5261.9803)" />
  <g
     inkscape:groupmode="layer"
     inkscape:label="CENTERLINES"
     id="g1384"
     transform="translate(3615.5,5261.9803)" />
  <g
     inkscape:groupmode="layer"
     inkscape:label="CENTERMARKS"
     id="g1386"
     transform="translate(3615.5,5261.9803)" />
  <g
     inkscape:groupmode="layer"
     inkscape:label="TABLES"
     id="g1388"
     transform="translate(3615.5,5261.9803)" />
  <g
     inkscape:groupmode="layer"
     inkscape:label="IMAGES"
     id="g1390"
     transform="translate(3615.5,5261.9803)" />
  <g
     inkscape:groupmode="layer"
     inkscape:label="ANNOTATION_LINES"
     id="g1392"
     transform="translate(3615.5,5261.9803)" />
  <g
     inkscape:groupmode="layer"
     inkscape:label="ANNOTATION_TEXT"
     id="g1394"
     transform="translate(3615.5,5261.9803)" />
  <g
     inkscape:groupmode="layer"
     inkscape:label="SIDE_THREAD_SYMBOLS"
     id="g1396"
     transform="translate(3615.5,5261.9803)" />
  <g
     inkscape:groupmode="layer"
     inkscape:label="SIDE_THREAD_SYMBOLS_HIDDEN"
     id="g1398"
     transform="translate(3615.5,5261.9803)" />
  <g
     inkscape:groupmode="layer"
     inkscape:label="SURFACE_THREAD_SYMBOLS"
     id="g1400"
     transform="translate(3615.5,5261.9803)" />
  <g
     inkscape:groupmode="layer"
     inkscape:label="SURFACE_THREAD_SYMBOLS_ON_"
     id="g1402"
     transform="translate(3615.5,5261.9803)" />
  <g
     inkscape:groupmode="layer"
     inkscape:label="SURFACE_THREAD_SYMBOLS_HID"
     id="g1404"
     transform="translate(3615.5,5261.9803)" />
  <g
     inkscape:groupmode="layer"
     inkscape:label="BLIND_THREAD_SYMBOLS"
     id="g1406"
     transform="translate(3615.5,5261.9803)" />
  <g
     inkscape:groupmode="layer"
     inkscape:label="BLIND_THREAD_SYMBOLS_HIDDE"
     id="g1408"
     transform="translate(3615.5,5261.9803)" />
  <g
     inkscape:groupmode="layer"
     inkscape:label="EXPLODE_LINES"
     id="g1410"
     transform="translate(3615.5,5261.9803)" />
  <g
     inkscape:groupmode="layer"
     inkscape:label="BREAK_LINES"
     id="g1412"
     transform="translate(3615.5,5261.9803)" />
  <g
     inkscape:groupmode="layer"
     inkscape:label="SHEETMETAL_BEND_LINES_UP"
     id="g1414"
     transform="translate(3615.5,5261.9803)" />
  <g
     inkscape:groupmode="layer"
     inkscape:label="SHEETMETAL_BEND_LINES_DOWN"
     id="g1416"
     transform="translate(3615.5,5261.9803)" />
  <g
     inkscape:groupmode="layer"
     inkscape:label="SHEETMETAL_BEND_TANGENT_LI"
     id="g1418"
     transform="translate(3615.5,5261.9803)" />
  <g
     inkscape:groupmode="layer"
     inkscape:label="SHEETMETAL_CUT_LINES"
     id="g1420"
     transform="translate(3615.5,5261.9803)" />
  <g
     inkscape:groupmode="layer"
     inkscape:label="HIDDEN"
     id="g1422"
     transform="translate(3615.5,5261.9803)" />
  <g
     inkscape:groupmode="layer"
     inkscape:label="VISIBLE"
     id="g1656"
     transform="translate(3615.5,5261.9803)">
    <path
       d="m -624.3,-587.40944 a 60,60 0 1 0 -120,0 60,60 0 1 0 120,0 z"
       style="fill:none;stroke:#000000"
       id="path1424"
       inkscape:connector-curvature="0" />
    <path
       d="m -624.3,-1082.7694 a 60,60 0 1 0 -120,0 60,60 0 1 0 120,0 z"
       style="fill:none;stroke:#000000"
       id="path1426"
       inkscape:connector-curvature="0" />
    <path
       d="m -624.3,-1578.1294 a 60,60 0 1 0 -120,0 60,60 0 1 0 120,0 z"
       style="fill:none;stroke:#000000"
       id="path1428"
       inkscape:connector-curvature="0" />
    <path
       d="m -624.3,-2073.4894 a 60,60 0 1 0 -120,0 60,60 0 1 0 120,0 z"
       style="fill:none;stroke:#000000"
       id="path1430"
       inkscape:connector-curvature="0" />
    <path
       d="m -624.3,-2568.8494 a 60,60 0 1 0 -120,0 60,60 0 1 0 120,0 z"
       style="fill:none;stroke:#000000"
       id="path1432"
       inkscape:connector-curvature="0" />
    <path
       d="m -624.3,-3064.2094 a 60,60 0 1 0 -120,0 60,60 0 1 0 120,0 z"
       style="fill:none;stroke:#000000"
       id="path1434"
       inkscape:connector-curvature="0" />
    <path
       d="m -624.3,-3559.5694 a 60,60 0 1 0 -120,0 60,60 0 1 0 120,0 z"
       style="fill:none;stroke:#000000"
       id="path1436"
       inkscape:connector-curvature="0" />
    <path
       d="m -624.3,-4054.9294 a 60,60 0 1 0 -120,0 60,60 0 1 0 120,0 z"
       style="fill:none;stroke:#000000"
       id="path1438"
       inkscape:connector-curvature="0" />
    <path
       d="m -173.1,-1578.1294 a 60,60 0 1 0 -120,0 60,60 0 1 0 120,0 z"
       style="fill:none;stroke:#000000"
       id="path1440"
       inkscape:connector-curvature="0" />
    <path
       d="m -173.1,-1082.7694 a 60,60 0 1 0 -120,0 60,60 0 1 0 120,0 z"
       style="fill:none;stroke:#000000"
       id="path1442"
       inkscape:connector-curvature="0" />
    <path
       d="m -173.1,-587.40944 a 60,60 0 1 0 -120,0 60,60 0 1 0 120,0 z"
       style="fill:none;stroke:#000000"
       id="path1444"
       inkscape:connector-curvature="0" />
    <path
       d="m -173.1,-92.049435 a 60,60 0 1 0 -120,0 60,60 0 1 0 120,0 z"
       style="fill:none;stroke:#000000"
       id="path1446"
       inkscape:connector-curvature="0" />
    <path
       d="m -173.1,403.31056 a 60,60 0 1 0 -120,0 60,60 0 1 0 120,0 z"
       style="fill:none;stroke:#000000"
       id="path1448"
       inkscape:connector-curvature="0" />
    <path
       d="m -173.1,898.67056 a 60,60 0 1 0 -120,0 60,60 0 1 0 120,0 z"
       style="fill:none;stroke:#000000"
       id="path1450"
       inkscape:connector-curvature="0" />
    <path
       d="m -624.3,-5045.6494 a 60,60 0 1 0 -120,0 60,60 0 1 0 120,0 z"
       style="fill:none;stroke:#000000"
       id="path1452"
       inkscape:connector-curvature="0" />
    <path
       d="m -624.3,-4550.2894 a 60,60 0 1 0 -120,0 60,60 0 1 0 120,0 z"
       style="fill:none;stroke:#000000"
       id="path1454"
       inkscape:connector-curvature="0" />
    <path
       d="m -1075.5,898.67056 a 60,60 0 1 0 -120,0 60,60 0 1 0 120,0 z"
       style="fill:none;stroke:#000000"
       id="path1456"
       inkscape:connector-curvature="0" />
    <path
       d="m -1075.5,403.31056 a 60,60 0 1 0 -120,0 60,60 0 1 0 120,0 z"
       style="fill:none;stroke:#000000"
       id="path1458"
       inkscape:connector-curvature="0" />
    <path
       d="m -1075.5,-92.049435 a 60,60 0 1 0 -120,0 60,60 0 1 0 120,0 z"
       style="fill:none;stroke:#000000"
       id="path1460"
       inkscape:connector-curvature="0" />
    <path
       d="m -1075.5,-587.40944 a 60,60 0 1 0 -120,0 60,60 0 1 0 120,0 z"
       style="fill:none;stroke:#000000"
       id="path1462"
       inkscape:connector-curvature="0" />
    <path
       d="m -1075.5,-1082.7694 a 60,60 0 1 0 -120,0 60,60 0 1 0 120,0 z"
       style="fill:none;stroke:#000000"
       id="path1464"
       inkscape:connector-curvature="0" />
    <path
       d="m -1075.5,-1578.1294 a 60,60 0 1 0 -120,0 60,60 0 1 0 120,0 z"
       style="fill:none;stroke:#000000"
       id="path1466"
       inkscape:connector-curvature="0" />
    <path
       d="m -1075.5,-2073.4894 a 60,60 0 1 0 -120,0 60,60 0 1 0 120,0 z"
       style="fill:none;stroke:#000000"
       id="path1468"
       inkscape:connector-curvature="0" />
    <path
       d="m -1075.5,-2568.8494 a 60,60 0 1 0 -120,0 60,60 0 1 0 120,0 z"
       style="fill:none;stroke:#000000"
       id="path1470"
       inkscape:connector-curvature="0" />
    <path
       d="m -1075.5,-5045.6494 a 60,60 0 1 0 -120,0 60,60 0 1 0 120,0 z"
       style="fill:none;stroke:#000000"
       id="path1472"
       inkscape:connector-curvature="0" />
    <path
       d="m -624.3,898.67056 a 60,60 0 1 0 -120,0 60,60 0 1 0 120,0 z"
       style="fill:none;stroke:#000000"
       id="path1474"
       inkscape:connector-curvature="0" />
    <path
       d="m -624.3,403.31056 a 60,60 0 1 0 -120,0 60,60 0 1 0 120,0 z"
       style="fill:none;stroke:#000000"
       id="path1476"
       inkscape:connector-curvature="0" />
    <path
       d="m -624.3,-92.049435 a 60,60 0 1 0 -120,0 60,60 0 1 0 120,0 z"
       style="fill:none;stroke:#000000"
       id="path1478"
       inkscape:connector-curvature="0" />
    <path
       d="m -1075.5,-4550.2894 a 60,60 0 1 0 -120,0 60,60 0 1 0 120,0 z"
       style="fill:none;stroke:#000000"
       id="path1480"
       inkscape:connector-curvature="0" />
    <path
       d="m -1075.5,-4054.9294 a 60,60 0 1 0 -120,0 60,60 0 1 0 120,0 z"
       style="fill:none;stroke:#000000"
       id="path1482"
       inkscape:connector-curvature="0" />
    <path
       d="m -1075.5,-3559.5694 a 60,60 0 1 0 -120,0 60,60 0 1 0 120,0 z"
       style="fill:none;stroke:#000000"
       id="path1484"
       inkscape:connector-curvature="0" />
    <path
       d="m -1075.5,-3064.2094 a 60,60 0 1 0 -120,0 60,60 0 1 0 120,0 z"
       style="fill:none;stroke:#000000"
       id="path1486"
       inkscape:connector-curvature="0" />
    <path
       d="m -173.1,-2073.4894 a 60,60 0 1 0 -120,0 60,60 0 1 0 120,0 z"
       style="fill:none;stroke:#000000"
       id="path1488"
       inkscape:connector-curvature="0" />
    <path
       d="m -173.1,-2568.8494 a 60,60 0 1 0 -120,0 60,60 0 1 0 120,0 z"
       style="fill:none;stroke:#000000"
       id="path1490"
       inkscape:connector-curvature="0" />
    <path
       d="m -173.1,-3064.2094 a 60,60 0 1 0 -120,0 60,60 0 1 0 120,0 z"
       style="fill:none;stroke:#000000"
       id="path1492"
       inkscape:connector-curvature="0" />
    <path
       d="m -173.1,-3559.5694 a 60,60 0 1 0 -120,0 60,60 0 1 0 120,0 z"
       style="fill:none;stroke:#000000"
       id="path1494"
       inkscape:connector-curvature="0" />
    <path
       d="m -173.1,-4054.9294 a 60,60 0 1 0 -120,0 60,60 0 1 0 120,0 z"
       style="fill:none;stroke:#000000"
       id="path1496"
       inkscape:connector-curvature="0" />
    <path
       d="m -173.1,-4550.2894 a 60,60 0 1 0 -120,0 60,60 0 1 0 120,0 z"
       style="fill:none;stroke:#000000"
       id="path1498"
       inkscape:connector-curvature="0" />
    <path
       d="m -173.1,-5045.6494 a 60,60 0 1 0 -120,0 60,60 0 1 0 120,0 z"
       style="fill:none;stroke:#000000"
       id="path1500"
       inkscape:connector-curvature="0" />
    <path
       d="m -2880.3,-1082.7694 a 60,60 0 1 0 -120,0 60,60 0 1 0 120,0 z"
       style="fill:none;stroke:#000000"
       id="path1502"
       inkscape:connector-curvature="0" />
    <path
       d="m -2880.3,-1578.1294 a 60,60 0 1 0 -120,0 60,60 0 1 0 120,0 z"
       style="fill:none;stroke:#000000"
       id="path1504"
       inkscape:connector-curvature="0" />
    <path
       d="m -2880.3,-2073.4894 a 60,60 0 1 0 -120,0 60,60 0 1 0 120,0 z"
       style="fill:none;stroke:#000000"
       id="path1506"
       inkscape:connector-curvature="0" />
    <path
       d="m -2880.3,-2568.8494 a 60,60 0 1 0 -120,0 60,60 0 1 0 120,0 z"
       style="fill:none;stroke:#000000"
       id="path1508"
       inkscape:connector-curvature="0" />
    <path
       d="m -2880.3,-3064.2094 a 60,60 0 1 0 -120,0 60,60 0 1 0 120,0 z"
       style="fill:none;stroke:#000000"
       id="path1510"
       inkscape:connector-curvature="0" />
    <path
       d="m -2880.3,-3559.5694 a 60,60 0 1 0 -120,0 60,60 0 1 0 120,0 z"
       style="fill:none;stroke:#000000"
       id="path1512"
       inkscape:connector-curvature="0" />
    <path
       d="m -2880.3,-4054.9294 a 60,60 0 1 0 -120,0 60,60 0 1 0 120,0 z"
       style="fill:none;stroke:#000000"
       id="path1514"
       inkscape:connector-curvature="0" />
    <path
       d="m -2880.3,-4550.2894 a 60,60 0 1 0 -120,0 60,60 0 1 0 120,0 z"
       style="fill:none;stroke:#000000"
       id="path1516"
       inkscape:connector-curvature="0" />
    <path
       d="m -2429.1,-2073.4894 a 60,60 0 1 0 -120,0 60,60 0 1 0 120,0 z"
       style="fill:none;stroke:#000000"
       id="path1518"
       inkscape:connector-curvature="0" />
    <path
       d="m -2429.1,-1578.1294 a 60,60 0 1 0 -120,0 60,60 0 1 0 120,0 z"
       style="fill:none;stroke:#000000"
       id="path1520"
       inkscape:connector-curvature="0" />
    <path
       d="m -2429.1,-1082.7694 a 60,60 0 1 0 -120,0 60,60 0 1 0 120,0 z"
       style="fill:none;stroke:#000000"
       id="path1522"
       inkscape:connector-curvature="0" />
    <path
       d="m -2429.1,-587.40944 a 60,60 0 1 0 -120,0 60,60 0 1 0 120,0 z"
       style="fill:none;stroke:#000000"
       id="path1524"
       inkscape:connector-curvature="0" />
    <path
       d="m -2880.3,-5045.6494 a 60,60 0 1 0 -120,0 60,60 0 1 0 120,0 z"
       style="fill:none;stroke:#000000"
       id="path1526"
       inkscape:connector-curvature="0" />
    <path
       d="m -2429.1,898.67056 a 60,60 0 1 0 -120,0 60,60 0 1 0 120,0 z"
       style="fill:none;stroke:#000000"
       id="path1528"
       inkscape:connector-curvature="0" />
    <path
       d="m -2429.1,403.31056 a 60,60 0 1 0 -120,0 60,60 0 1 0 120,0 z"
       style="fill:none;stroke:#000000"
       id="path1530"
       inkscape:connector-curvature="0" />
    <path
       d="m -2429.1,-92.049435 a 60,60 0 1 0 -120,0 60,60 0 1 0 120,0 z"
       style="fill:none;stroke:#000000"
       id="path1532"
       inkscape:connector-curvature="0" />
    <path
       d="m -3331.5,403.31056 a 60,60 0 1 0 -120,0 60,60 0 1 0 120,0 z"
       style="fill:none;stroke:#000000"
       id="path1534"
       inkscape:connector-curvature="0" />
    <path
       d="m -3331.5,-92.049435 a 60,60 0 1 0 -120,0 60,60 0 1 0 120,0 z"
       style="fill:none;stroke:#000000"
       id="path1536"
       inkscape:connector-curvature="0" />
    <path
       d="m -3331.5,-587.40944 a 60,60 0 1 0 -120,0 60,60 0 1 0 120,0 z"
       style="fill:none;stroke:#000000"
       id="path1538"
       inkscape:connector-curvature="0" />
    <path
       d="m -3331.5,-1082.7694 a 60,60 0 1 0 -120,0 60,60 0 1 0 120,0 z"
       style="fill:none;stroke:#000000"
       id="path1540"
       inkscape:connector-curvature="0" />
    <path
       d="m -3331.5,-1578.1294 a 60,60 0 1 0 -120,0 60,60 0 1 0 120,0 z"
       style="fill:none;stroke:#000000"
       id="path1542"
       inkscape:connector-curvature="0" />
    <path
       d="m -3331.5,-2073.4894 a 60,60 0 1 0 -120,0 60,60 0 1 0 120,0 z"
       style="fill:none;stroke:#000000"
       id="path1544"
       inkscape:connector-curvature="0" />
    <path
       d="m -3331.5,-2568.8494 a 60,60 0 1 0 -120,0 60,60 0 1 0 120,0 z"
       style="fill:none;stroke:#000000"
       id="path1546"
       inkscape:connector-curvature="0" />
    <path
       d="m -3331.5,-3064.2094 a 60,60 0 1 0 -120,0 60,60 0 1 0 120,0 z"
       style="fill:none;stroke:#000000"
       id="path1548"
       inkscape:connector-curvature="0" />
    <path
       d="m -3331.5,-3559.5694 a 60,60 0 1 0 -120,0 60,60 0 1 0 120,0 z"
       style="fill:none;stroke:#000000"
       id="path1550"
       inkscape:connector-curvature="0" />
    <path
       d="m -3331.5,-4054.9294 a 60,60 0 1 0 -120,0 60,60 0 1 0 120,0 z"
       style="fill:none;stroke:#000000"
       id="path1552"
       inkscape:connector-curvature="0" />
    <path
       d="m -3331.5,-4550.2894 a 60,60 0 1 0 -120,0 60,60 0 1 0 120,0 z"
       style="fill:none;stroke:#000000"
       id="path1554"
       inkscape:connector-curvature="0" />
    <path
       d="m -3331.5,-5045.6494 a 60,60 0 1 0 -120,0 60,60 0 1 0 120,0 z"
       style="fill:none;stroke:#000000"
       id="path1556"
       inkscape:connector-curvature="0" />
    <path
       d="m -2880.3,898.67056 a 60,60 0 1 0 -120,0 60,60 0 1 0 120,0 z"
       style="fill:none;stroke:#000000"
       id="path1558"
       inkscape:connector-curvature="0" />
    <path
       d="m -2880.3,403.31056 a 60,60 0 1 0 -120,0 60,60 0 1 0 120,0 z"
       style="fill:none;stroke:#000000"
       id="path1560"
       inkscape:connector-curvature="0" />
    <path
       d="m -2880.3,-92.049435 a 60,60 0 1 0 -120,0 60,60 0 1 0 120,0 z"
       style="fill:none;stroke:#000000"
       id="path1562"
       inkscape:connector-curvature="0" />
    <path
       d="m -2880.3,-587.40944 a 60,60 0 1 0 -120,0 60,60 0 1 0 120,0 z"
       style="fill:none;stroke:#000000"
       id="path1564"
       inkscape:connector-curvature="0" />
    <path
       d="m -1526.7,-1082.7694 a 60,60 0 1 0 -120,0 60,60 0 1 0 120,0 z"
       style="fill:none;stroke:#000000"
       id="path1566"
       inkscape:connector-curvature="0" />
    <path
       d="m -1526.7,-587.40944 a 60,60 0 1 0 -120,0 60,60 0 1 0 120,0 z"
       style="fill:none;stroke:#000000"
       id="path1568"
       inkscape:connector-curvature="0" />
    <path
       d="m -1526.7,-92.049435 a 60,60 0 1 0 -120,0 60,60 0 1 0 120,0 z"
       style="fill:none;stroke:#000000"
       id="path1570"
       inkscape:connector-curvature="0" />
    <path
       d="m -1526.7,403.31056 a 60,60 0 1 0 -120,0 60,60 0 1 0 120,0 z"
       style="fill:none;stroke:#000000"
       id="path1572"
       inkscape:connector-curvature="0" />
    <path
       d="m -1977.9,-4054.9294 a 60,60 0 1 0 -120,0 60,60 0 1 0 120,0 z"
       style="fill:none;stroke:#000000"
       id="path1574"
       inkscape:connector-curvature="0" />
    <path
       d="m -1977.9,-4550.2894 a 60,60 0 1 0 -120,0 60,60 0 1 0 120,0 z"
       style="fill:none;stroke:#000000"
       id="path1576"
       inkscape:connector-curvature="0" />
    <path
       d="m -1977.9,-5045.6494 a 60,60 0 1 0 -120,0 60,60 0 1 0 120,0 z"
       style="fill:none;stroke:#000000"
       id="path1578"
       inkscape:connector-curvature="0" />
    <path
       d="m -1526.7,898.67056 a 60,60 0 1 0 -120,0 60,60 0 1 0 120,0 z"
       style="fill:none;stroke:#000000"
       id="path1580"
       inkscape:connector-curvature="0" />
    <path
       d="m -1526.7,-1578.1294 a 60,60 0 1 0 -120,0 60,60 0 1 0 120,0 z"
       style="fill:none;stroke:#000000"
       id="path1582"
       inkscape:connector-curvature="0" />
    <path
       d="m -1526.7,-2073.4894 a 60,60 0 1 0 -120,0 60,60 0 1 0 120,0 z"
       style="fill:none;stroke:#000000"
       id="path1584"
       inkscape:connector-curvature="0" />
    <path
       d="m -1526.7,-2568.8494 a 60,60 0 1 0 -120,0 60,60 0 1 0 120,0 z"
       style="fill:none;stroke:#000000"
       id="path1586"
       inkscape:connector-curvature="0" />
    <path
       d="m -1526.7,-3064.2094 a 60,60 0 1 0 -120,0 60,60 0 1 0 120,0 z"
       style="fill:none;stroke:#000000"
       id="path1588"
       inkscape:connector-curvature="0" />
    <path
       d="m -1526.7,-3559.5694 a 60,60 0 1 0 -120,0 60,60 0 1 0 120,0 z"
       style="fill:none;stroke:#000000"
       id="path1590"
       inkscape:connector-curvature="0" />
    <path
       d="m -1526.7,-4054.9294 a 60,60 0 1 0 -120,0 60,60 0 1 0 120,0 z"
       style="fill:none;stroke:#000000"
       id="path1592"
       inkscape:connector-curvature="0" />
    <path
       d="m -1526.7,-4550.2894 a 60,60 0 1 0 -120,0 60,60 0 1 0 120,0 z"
       style="fill:none;stroke:#000000"
       id="path1594"
       inkscape:connector-curvature="0" />
    <path
       d="m -1526.7,-5045.6494 a 60,60 0 1 0 -120,0 60,60 0 1 0 120,0 z"
       style="fill:none;stroke:#000000"
       id="path1596"
       inkscape:connector-curvature="0" />
    <path
       d="m -1977.9,403.31056 a 60,60 0 1 0 -120,0 60,60 0 1 0 120,0 z"
       style="fill:none;stroke:#000000"
       id="path1598"
       inkscape:connector-curvature="0" />
    <path
       d="m -1977.9,898.67056 a 60,60 0 1 0 -120,0 60,60 0 1 0 120,0 z"
       style="fill:none;stroke:#000000"
       id="path1600"
       inkscape:connector-curvature="0" />
    <path
       d="m -2429.1,-5045.6494 a 60,60 0 1 0 -120,0 60,60 0 1 0 120,0 z"
       style="fill:none;stroke:#000000"
       id="path1602"
       inkscape:connector-curvature="0" />
    <path
       d="m -2429.1,-4550.2894 a 60,60 0 1 0 -120,0 60,60 0 1 0 120,0 z"
       style="fill:none;stroke:#000000"
       id="path1604"
       inkscape:connector-curvature="0" />
    <path
       d="m -2429.1,-4054.9294 a 60,60 0 1 0 -120,0 60,60 0 1 0 120,0 z"
       style="fill:none;stroke:#000000"
       id="path1606"
       inkscape:connector-curvature="0" />
    <path
       d="m -2429.1,-3559.5694 a 60,60 0 1 0 -120,0 60,60 0 1 0 120,0 z"
       style="fill:none;stroke:#000000"
       id="path1608"
       inkscape:connector-curvature="0" />
    <path
       d="m -2429.1,-3064.2094 a 60,60 0 1 0 -120,0 60,60 0 1 0 120,0 z"
       style="fill:none;stroke:#000000"
       id="path1610"
       inkscape:connector-curvature="0" />
    <path
       d="m -2429.1,-2568.8494 a 60,60 0 1 0 -120,0 60,60 0 1 0 120,0 z"
       style="fill:none;stroke:#000000"
       id="path1612"
       inkscape:connector-curvature="0" />
    <path
       d="m -1977.9,-92.049435 a 60,60 0 1 0 -120,0 60,60 0 1 0 120,0 z"
       style="fill:none;stroke:#000000"
       id="path1614"
       inkscape:connector-curvature="0" />
    <path
       d="m -1977.9,-587.40944 a 60,60 0 1 0 -120,0 60,60 0 1 0 120,0 z"
       style="fill:none;stroke:#000000"
       id="path1616"
       inkscape:connector-curvature="0" />
    <path
       d="m -1977.9,-1082.7694 a 60,60 0 1 0 -120,0 60,60 0 1 0 120,0 z"
       style="fill:none;stroke:#000000"
       id="path1618"
       inkscape:connector-curvature="0" />
    <path
       d="m -1977.9,-1578.1294 a 60,60 0 1 0 -120,0 60,60 0 1 0 120,0 z"
       style="fill:none;stroke:#000000"
       id="path1620"
       inkscape:connector-curvature="0" />
    <path
       d="m -1977.9,-2073.4894 a 60,60 0 1 0 -120,0 60,60 0 1 0 120,0 z"
       style="fill:none;stroke:#000000"
       id="path1622"
       inkscape:connector-curvature="0" />
    <path
       d="m -1977.9,-2568.8494 a 60,60 0 1 0 -120,0 60,60 0 1 0 120,0 z"
       style="fill:none;stroke:#000000"
       id="path1624"
       inkscape:connector-curvature="0" />
    <path
       d="m -1977.9,-3064.2094 a 60,60 0 1 0 -120,0 60,60 0 1 0 120,0 z"
       style="fill:none;stroke:#000000"
       id="path1626"
       inkscape:connector-curvature="0" />
    <path
       d="m -1977.9,-3559.5694 a 60,60 0 1 0 -120,0 60,60 0 1 0 120,0 z"
       style="fill:none;stroke:#000000"
       id="path1628"
       inkscape:connector-curvature="0" />
    <path
       d="m -3331.5,898.67056 a 60,60 0 1 0 -120,0 60,60 0 1 0 120,0 z"
       style="fill:none;stroke:#000000"
       id="path1630"
       inkscape:connector-curvature="0" />
    <path
       d="M -3615,-5261.4803 H 0"
       style="fill:none;stroke:#000000"
       id="path1632"
       inkscape:connector-curvature="0" />
    <path
       d="m -3615,-5261.4803 v 6372"
       style="fill:none;stroke:#000000"
       id="path1634"
       inkscape:connector-curvature="0" />
    <path
       d="M -3615,1110.5197 H 0"
       style="fill:none;stroke:#000000"
       id="path1636"
       inkscape:connector-curvature="0" />
    <path
       d="m 0,-5261.4803 v 6372"
       style="fill:none;stroke:#000000"
       id="path1638"
       inkscape:connector-curvature="0" />
    <path
       d="m -1771.5,-4908.6531 a 36,36 0 1 0 -72,0 36,36 0 1 0 72,0 z"
       style="fill:none;stroke:#000000"
       id="path1640"
       inkscape:connector-curvature="0" />
    <path
       d="m -1771.5,757.69246 a 36,36 0 1 0 -72,0 36,36 0 1 0 72,0 z"
       style="fill:none;stroke:#000000"
       id="path1642"
       inkscape:connector-curvature="0" />
    <path
       d="m -1777.5,-5063.4803 a 30,30 0 1 0 -60,0 30,30 0 1 0 60,0 z"
       style="fill:none;stroke:#000000"
       id="path1644"
       inkscape:connector-curvature="0" />
    <path
       d="m -834,-5063.4803 a 30,30 0 1 0 -60,0 30,30 0 1 0 60,0 z"
       style="fill:none;stroke:#000000"
       id="path1646"
       inkscape:connector-curvature="0" />
    <path
       d="m -2721,-5063.4803 a 30,30 0 1 0 -60,0 30,30 0 1 0 60,0 z"
       style="fill:none;stroke:#000000"
       id="path1648"
       inkscape:connector-curvature="0" />
    <path
       d="m -2721,912.51968 a 30,30 0 1 0 -60,0 30,30 0 1 0 60,0 z"
       style="fill:none;stroke:#000000"
       id="path1650"
       inkscape:connector-curvature="0" />
    <path
       d="m -1777.5,912.51968 a 30,30 0 1 0 -60,0 30,30 0 1 0 60,0 z"
       style="fill:none;stroke:#000000"
       id="path1652"
       inkscape:connector-curvature="0" />
    <path
       d="m -834,912.51968 a 30,30 0 1 0 -60,0 30,30 0 1 0 60,0 z"
       style="fill:none;stroke:#000000"
       id="path1654"
       inkscape:connector-curvature="0" />
  </g>
  <g
     inkscape:groupmode="layer"
     inkscape:label="MODELSKETCH_VISIBLE"
     id="g1658"
     transform="translate(3615.5,5261.9803)" />
  <g
     inkscape:groupmode="layer"
     inkscape:label="MODELSKETCH_CONSTRUCTION"
     id="g1660"
     transform="translate(3615.5,5261.9803)" />
  <g
     inkscape:groupmode="layer"
     inkscape:label="HIDDEN_BASE_VIEW"
     id="g1662"
     transform="translate(3615.5,5261.9803)" />
  <g
     inkscape:groupmode="layer"
     inkscape:label="TANGENT_LINES"
     id="g1664"
     transform="translate(3615.5,5261.9803)" />
  <g
     inkscape:groupmode="layer"
     inkscape:label="TANGENT_HIDDEN"
     id="g1666"
     transform="translate(3615.5,5261.9803)" />
  <g
     inkscape:groupmode="layer"
     inkscape:label="INVISIBLE_LINES"
     id="g1668"
     transform="translate(3615.5,5261.9803)" />
  <g
     inkscape:groupmode="layer"
     inkscape:label="VIEW_HATCHES"
     id="g1670"
     transform="translate(3615.5,5261.9803)" />
  <g
     inkscape:groupmode="layer"
     inkscape:label="SECTION_JOG_LINES"
     id="g1672"
     transform="translate(3615.5,5261.9803)" />
</svg>
