<?xml version="1.0" encoding="UTF-8" standalone="no"?>
<svg
   xmlns:dc="http://purl.org/dc/elements/1.1/"
   xmlns:cc="http://creativecommons.org/ns#"
   xmlns:rdf="http://www.w3.org/1999/02/22-rdf-syntax-ns#"
   xmlns:svg="http://www.w3.org/2000/svg"
   xmlns="http://www.w3.org/2000/svg"
   xmlns:sodipodi="http://sodipodi.sourceforge.net/DTD/sodipodi-0.dtd"
   xmlns:inkscape="http://www.inkscape.org/namespaces/inkscape"
   width="212.65355"
   height="69.740158"
   version="1.1"
   id="svg675"
   sodipodi:docname="panel_C.svg"
   inkscape:version="0.92.4 (5da689c313, 2019-01-14)">
  <metadata
     id="metadata679">
    <rdf:RDF>
      <cc:Work
         rdf:about="">
        <dc:format>image/svg+xml</dc:format>
        <dc:type
           rdf:resource="http://purl.org/dc/dcmitype/StillImage" />
        <dc:title></dc:title>
      </cc:Work>
    </rdf:RDF>
  </metadata>
  <sodipodi:namedview
     pagecolor="#ffffff"
     bordercolor="#666666"
     borderopacity="1"
     objecttolerance="10"
     gridtolerance="10"
     guidetolerance="10"
     inkscape:pageopacity="0"
     inkscape:pageshadow="2"
     inkscape:window-width="640"
     inkscape:window-height="480"
     id="namedview677"
     showgrid="false"
     inkscape:zoom="0.21024131"
     inkscape:cx="503.17717"
     inkscape:cy="215.57063"
     inkscape:window-x="0"
     inkscape:window-y="0"
     inkscape:window-maximized="0"
     inkscape:current-layer="g673" />
  <desc
     id="desc506">C:\Users\Tracy\Downloads\C.dxf - scale = 1.000000, origin = (0.000000, 0.000000), method = manual</desc>
  <defs
     id="defs521">
    <marker
       id="DistanceX"
       orient="auto"
       refX="0"
       refY="0"
       style="overflow:visible">
      <path
         d="M 3,-3 -3,3 M 0,-5 V 5"
         style="stroke:#000000;stroke-width:0.5"
         id="path508"
         inkscape:connector-curvature="0" />
    </marker>
    <pattern
       height="8"
       id="Hatch"
       patternUnits="userSpaceOnUse"
       width="8"
       x="0"
       y="0">
      <path
         d="M8 4 l-4,4"
         linecap="square"
         stroke="#000000"
         stroke-width="0.25"
         id="path511" />
      <path
         d="M6 2 l-4,4"
         linecap="square"
         stroke="#000000"
         stroke-width="0.25"
         id="path513" />
      <path
         d="M4 0 l-4,4"
         linecap="square"
         stroke="#000000"
         stroke-width="0.25"
         id="path515" />
    </pattern>
    <symbol
       id="*Model_Space" />
    <symbol
       id="*Paper_Space" />
    <symbol
       id="*Paper_Space0" />
  </defs>
  <g
     inkscape:groupmode="layer"
     inkscape:label="0"
     id="g523"
     transform="translate(106.32677,-707.0903)" />
  <g
     inkscape:groupmode="layer"
     inkscape:label="SECTION_CUTTING_LINE"
     id="g525"
     transform="translate(106.32677,-707.0903)" />
  <g
     inkscape:groupmode="layer"
     inkscape:label="DETAIL_VIEW_BORDER"
     id="g527"
     transform="translate(106.32677,-707.0903)" />
  <g
     inkscape:groupmode="layer"
     inkscape:label="DETAIL_VIEW_PARENT_BORDER"
     id="g529"
     transform="translate(106.32677,-707.0903)" />
  <g
     inkscape:groupmode="layer"
     inkscape:label="TEXT"
     id="g531"
     transform="translate(106.32677,-707.0903)" />
  <g
     inkscape:groupmode="layer"
     inkscape:label="SKETCHED_GEOMETRY"
     id="g533"
     transform="translate(106.32677,-707.0903)" />
  <g
     inkscape:groupmode="layer"
     inkscape:label="VIRTUAL_SHARPS"
     id="g535"
     transform="translate(106.32677,-707.0903)" />
  <g
     inkscape:groupmode="layer"
     inkscape:label="CENTERLINES"
     id="g537"
     transform="translate(106.32677,-707.0903)" />
  <g
     inkscape:groupmode="layer"
     inkscape:label="CENTERMARKS"
     id="g539"
     transform="translate(106.32677,-707.0903)" />
  <g
     inkscape:groupmode="layer"
     inkscape:label="TABLES"
     id="g541"
     transform="translate(106.32677,-707.0903)" />
  <g
     inkscape:groupmode="layer"
     inkscape:label="IMAGES"
     id="g543"
     transform="translate(106.32677,-707.0903)" />
  <g
     inkscape:groupmode="layer"
     inkscape:label="ANNOTATION_LINES"
     id="g545"
     transform="translate(106.32677,-707.0903)" />
  <g
     inkscape:groupmode="layer"
     inkscape:label="ANNOTATION_TEXT"
     id="g547"
     transform="translate(106.32677,-707.0903)" />
  <g
     inkscape:groupmode="layer"
     inkscape:label="SIDE_THREAD_SYMBOLS"
     id="g549"
     transform="translate(106.32677,-707.0903)" />
  <g
     inkscape:groupmode="layer"
     inkscape:label="SIDE_THREAD_SYMBOLS_HIDDEN"
     id="g551"
     transform="translate(106.32677,-707.0903)" />
  <g
     inkscape:groupmode="layer"
     inkscape:label="SURFACE_THREAD_SYMBOLS"
     id="g553"
     transform="translate(106.32677,-707.0903)" />
  <g
     inkscape:groupmode="layer"
     inkscape:label="SURFACE_THREAD_SYMBOLS_ON_AXIS"
     id="g555"
     transform="translate(106.32677,-707.0903)" />
  <g
     inkscape:groupmode="layer"
     inkscape:label="SURFACE_THREAD_SYMBOLS_HIDDEN"
     id="g557"
     transform="translate(106.32677,-707.0903)" />
  <g
     inkscape:groupmode="layer"
     inkscape:label="BLIND_THREAD_SYMBOLS"
     id="g559"
     transform="translate(106.32677,-707.0903)" />
  <g
     inkscape:groupmode="layer"
     inkscape:label="BLIND_THREAD_SYMBOLS_HIDDEN"
     id="g561"
     transform="translate(106.32677,-707.0903)" />
  <g
     inkscape:groupmode="layer"
     inkscape:label="EXPLODE_LINES"
     id="g563"
     transform="translate(106.32677,-707.0903)" />
  <g
     inkscape:groupmode="layer"
     inkscape:label="BREAK_LINES"
     id="g565"
     transform="translate(106.32677,-707.0903)" />
  <g
     inkscape:groupmode="layer"
     inkscape:label="SHEETMETAL_BEND_LINES_UP"
     id="g567"
     transform="translate(106.32677,-707.0903)" />
  <g
     inkscape:groupmode="layer"
     inkscape:label="SHEETMETAL_BEND_LINES_DOWN"
     id="g569"
     transform="translate(106.32677,-707.0903)" />
  <g
     inkscape:groupmode="layer"
     inkscape:label="SHEETMETAL_BEND_TANGENT_LINES"
     id="g571"
     transform="translate(106.32677,-707.0903)" />
  <g
     inkscape:groupmode="layer"
     inkscape:label="SHEETMETAL_CUT_LINES"
     id="g573"
     transform="translate(106.32677,-707.0903)" />
  <g
     inkscape:groupmode="layer"
     inkscape:label="Hidden"
     id="g575"
     transform="translate(106.32677,-707.0903)" />
  <g
     inkscape:groupmode="layer"
     inkscape:label="Visible"
     id="g657"
     transform="translate(106.32677,-707.0903)">
    <path
       d="m 33.543307,744.6155 a 2.362205,2.362205 0 1 0 -4.724409,0 2.362205,2.362205 0 1 0 4.724409,0 z"
       style="fill:none;stroke:#000000"
       id="path577"
       inkscape:connector-curvature="0" />
    <path
       d="m 12.755906,723.82809 a 2.362205,2.362205 0 1 0 -4.72441,0 2.362205,2.362205 0 1 0 4.72441,0 z"
       style="fill:none;stroke:#000000"
       id="path579"
       inkscape:connector-curvature="0" />
    <path
       d="m 12.755906,744.6155 a 2.362205,2.362205 0 1 0 -4.72441,0 2.362205,2.362205 0 1 0 4.72441,0 z"
       style="fill:none;stroke:#000000"
       id="path581"
       inkscape:connector-curvature="0" />
    <path
       d="m -8.031496,723.82809 a 2.362205,2.362205 0 1 0 -4.72441,0 2.362205,2.362205 0 1 0 4.72441,0 z"
       style="fill:none;stroke:#000000"
       id="path583"
       inkscape:connector-curvature="0" />
    <path
       d="m 75.11811,744.6155 a 2.362205,2.362205 0 1 0 -4.724409,0 2.362205,2.362205 0 1 0 4.724409,0 z"
       style="fill:none;stroke:#000000"
       id="path585"
       inkscape:connector-curvature="0" />
    <path
       d="m 54.330709,723.82809 a 2.362205,2.362205 0 1 0 -4.72441,0 2.362205,2.362205 0 1 0 4.72441,0 z"
       style="fill:none;stroke:#000000"
       id="path587"
       inkscape:connector-curvature="0" />
    <path
       d="m 54.330709,744.6155 a 2.362205,2.362205 0 1 0 -4.72441,0 2.362205,2.362205 0 1 0 4.72441,0 z"
       style="fill:none;stroke:#000000"
       id="path589"
       inkscape:connector-curvature="0" />
    <path
       d="m 33.543307,723.82809 a 2.362205,2.362205 0 1 0 -4.724409,0 2.362205,2.362205 0 1 0 4.724409,0 z"
       style="fill:none;stroke:#000000"
       id="path591"
       inkscape:connector-curvature="0" />
    <path
       d="m -49.606299,744.6155 a 2.362205,2.362205 0 1 0 -4.72441,0 2.362205,2.362205 0 1 0 4.72441,0 z"
       style="fill:none;stroke:#000000"
       id="path593"
       inkscape:connector-curvature="0" />
    <path
       d="m -70.393701,723.82809 a 2.362205,2.362205 0 1 0 -4.724409,0 2.362205,2.362205 0 1 0 4.724409,0 z"
       style="fill:none;stroke:#000000"
       id="path595"
       inkscape:connector-curvature="0" />
    <path
       d="m -70.393701,744.6155 a 2.362205,2.362205 0 1 0 -4.724409,0 2.362205,2.362205 0 1 0 4.724409,0 z"
       style="fill:none;stroke:#000000"
       id="path597"
       inkscape:connector-curvature="0" />
    <path
       d="m -91.181102,723.82809 a 2.362205,2.362205 0 1 0 -4.72441,0 2.362205,2.362205 0 1 0 4.72441,0 z"
       style="fill:none;stroke:#000000"
       id="path599"
       inkscape:connector-curvature="0" />
    <path
       d="m -8.031496,744.6155 a 2.362205,2.362205 0 1 0 -4.72441,0 2.362205,2.362205 0 1 0 4.72441,0 z"
       style="fill:none;stroke:#000000"
       id="path601"
       inkscape:connector-curvature="0" />
    <path
       d="m -28.818898,723.82809 a 2.362205,2.362205 0 1 0 -4.724409,0 2.362205,2.362205 0 1 0 4.724409,0 z"
       style="fill:none;stroke:#000000"
       id="path603"
       inkscape:connector-curvature="0" />
    <path
       d="m -28.818898,744.6155 a 2.362205,2.362205 0 1 0 -4.724409,0 2.362205,2.362205 0 1 0 4.724409,0 z"
       style="fill:none;stroke:#000000"
       id="path605"
       inkscape:connector-curvature="0" />
    <path
       d="m -49.606299,723.82809 a 2.362205,2.362205 0 1 0 -4.72441,0 2.362205,2.362205 0 1 0 4.72441,0 z"
       style="fill:none;stroke:#000000"
       id="path607"
       inkscape:connector-curvature="0" />
    <path
       d="m 95.905512,723.82809 a 2.362205,2.362205 0 1 0 -4.72441,0 2.362205,2.362205 0 1 0 4.72441,0 z"
       style="fill:none;stroke:#000000"
       id="path609"
       inkscape:connector-curvature="0" />
    <path
       d="m 95.905512,744.6155 a 2.362205,2.362205 0 1 0 -4.72441,0 2.362205,2.362205 0 1 0 4.72441,0 z"
       style="fill:none;stroke:#000000"
       id="path611"
       inkscape:connector-curvature="0" />
    <path
       d="m 75.11811,723.82809 a 2.362205,2.362205 0 1 0 -4.724409,0 2.362205,2.362205 0 1 0 4.724409,0 z"
       style="fill:none;stroke:#000000"
       id="path613"
       inkscape:connector-curvature="0" />
    <path
       d="m -91.181102,744.6155 a 2.362205,2.362205 0 1 0 -4.72441,0 2.362205,2.362205 0 1 0 4.72441,0 z"
       style="fill:none;stroke:#000000"
       id="path615"
       inkscape:connector-curvature="0" />
    <path
       d="m -60.071867,722.70841 a 1.417323,1.417323 0 1 0 -2.834645,0 1.417323,1.417323 0 1 0 2.834645,0 z"
       style="fill:none;stroke:#000000"
       id="path617"
       inkscape:connector-curvature="0" />
    <path
       d="m -60.071867,746.09424 a 1.417323,1.417323 0 1 0 -2.834645,0 1.417323,1.417323 0 1 0 2.834645,0 z"
       style="fill:none;stroke:#000000"
       id="path619"
       inkscape:connector-curvature="0" />
    <path
       d="m 62.906512,722.70841 a 1.417323,1.417323 0 1 0 -2.834645,0 1.417323,1.417323 0 1 0 2.834645,0 z"
       style="fill:none;stroke:#000000"
       id="path621"
       inkscape:connector-curvature="0" />
    <path
       d="m 62.906512,746.09424 a 1.417323,1.417323 0 1 0 -2.834645,0 1.417323,1.417323 0 1 0 2.834645,0 z"
       style="fill:none;stroke:#000000"
       id="path623"
       inkscape:connector-curvature="0" />
    <path
       d="m -74.409449,714.14895 a 1.1811025,1.1811025 0 1 0 -2.362205,0 1.1811025,1.1811025 0 1 0 2.362205,0 z"
       style="fill:none;stroke:#000000"
       id="path625"
       inkscape:connector-curvature="0" />
    <path
       d="m -51.732283,714.14895 a 1.1811025,1.1811025 0 1 0 -2.362205,0 1.1811025,1.1811025 0 1 0 2.362205,0 z"
       style="fill:none;stroke:#000000"
       id="path627"
       inkscape:connector-curvature="0" />
    <path
       d="m -29.055118,714.14895 a 1.1811025,1.1811025 0 1 0 -2.362205,0 1.1811025,1.1811025 0 1 0 2.362205,0 z"
       style="fill:none;stroke:#000000"
       id="path629"
       inkscape:connector-curvature="0" />
    <path
       d="m 31.417323,714.14895 a 1.1811025,1.1811025 0 1 0 -2.362205,0 1.1811025,1.1811025 0 1 0 2.362205,0 z"
       style="fill:none;stroke:#000000"
       id="path631"
       inkscape:connector-curvature="0" />
    <path
       d="m 54.094488,714.14895 a 1.1811025,1.1811025 0 1 0 -2.362205,0 1.1811025,1.1811025 0 1 0 2.362205,0 z"
       style="fill:none;stroke:#000000"
       id="path633"
       inkscape:connector-curvature="0" />
    <path
       d="m 76.771654,714.14895 a 1.1811025,1.1811025 0 1 0 -2.362205,0 1.1811025,1.1811025 0 1 0 2.362205,0 z"
       style="fill:none;stroke:#000000"
       id="path635"
       inkscape:connector-curvature="0" />
    <path
       d="m -51.732283,768.95876 a 1.1811025,1.1811025 0 1 0 -2.362205,0 1.1811025,1.1811025 0 1 0 2.362205,0 z"
       style="fill:none;stroke:#000000"
       id="path637"
       inkscape:connector-curvature="0" />
    <path
       d="m -29.055118,768.95876 a 1.1811025,1.1811025 0 1 0 -2.362205,0 1.1811025,1.1811025 0 1 0 2.362205,0 z"
       style="fill:none;stroke:#000000"
       id="path639"
       inkscape:connector-curvature="0" />
    <path
       d="m -74.409449,768.95876 a 1.1811025,1.1811025 0 1 0 -2.362205,0 1.1811025,1.1811025 0 1 0 2.362205,0 z"
       style="fill:none;stroke:#000000"
       id="path641"
       inkscape:connector-curvature="0" />
    <path
       d="m 31.417323,768.95876 a 1.1811025,1.1811025 0 1 0 -2.362205,0 1.1811025,1.1811025 0 1 0 2.362205,0 z"
       style="fill:none;stroke:#000000"
       id="path643"
       inkscape:connector-curvature="0" />
    <path
       d="m 54.094488,768.95876 a 1.1811025,1.1811025 0 1 0 -2.362205,0 1.1811025,1.1811025 0 1 0 2.362205,0 z"
       style="fill:none;stroke:#000000"
       id="path645"
       inkscape:connector-curvature="0" />
    <path
       d="m 76.771654,768.95876 a 1.1811025,1.1811025 0 1 0 -2.362205,0 1.1811025,1.1811025 0 1 0 2.362205,0 z"
       style="fill:none;stroke:#000000"
       id="path647"
       inkscape:connector-curvature="0" />
    <path
       d="m -105.82677,707.5903 v 68.74016"
       style="fill:none;stroke:#000000"
       id="path649"
       inkscape:connector-curvature="0" />
    <path
       d="M -105.82677,776.33046 H 105.82677"
       style="fill:none;stroke:#000000"
       id="path651"
       inkscape:connector-curvature="0" />
    <path
       d="m 105.82677,707.5903 v 68.74016"
       style="fill:none;stroke:#000000"
       id="path653"
       inkscape:connector-curvature="0" />
    <path
       d="M -105.82677,707.5903 H 105.82677"
       style="fill:none;stroke:#000000"
       id="path655"
       inkscape:connector-curvature="0" />
  </g>
  <g
     inkscape:groupmode="layer"
     inkscape:label="ModelSketch_Visible"
     id="g659"
     transform="translate(106.32677,-707.0903)" />
  <g
     inkscape:groupmode="layer"
     inkscape:label="ModelSketch_Construction"
     id="g661"
     transform="translate(106.32677,-707.0903)" />
  <g
     inkscape:groupmode="layer"
     inkscape:label="HIDDEN_BASE_VIEW"
     id="g663"
     transform="translate(106.32677,-707.0903)" />
  <g
     inkscape:groupmode="layer"
     inkscape:label="TANGENT_LINES"
     id="g665"
     transform="translate(106.32677,-707.0903)" />
  <g
     inkscape:groupmode="layer"
     inkscape:label="TANGENT_HIDDEN"
     id="g667"
     transform="translate(106.32677,-707.0903)" />
  <g
     inkscape:groupmode="layer"
     inkscape:label="INVISIBLE_LINES"
     id="g669"
     transform="translate(106.32677,-707.0903)" />
  <g
     inkscape:groupmode="layer"
     inkscape:label="VIEW_HATCHES"
     id="g671"
     transform="translate(106.32677,-707.0903)" />
  <g
     inkscape:groupmode="layer"
     inkscape:label="SECTION_JOG_LINES"
     id="g673"
     transform="translate(106.32677,-707.0903)" />
</svg>
