<?xml version="1.0" encoding="UTF-8" standalone="no"?>
<svg
   xmlns:dc="http://purl.org/dc/elements/1.1/"
   xmlns:cc="http://creativecommons.org/ns#"
   xmlns:rdf="http://www.w3.org/1999/02/22-rdf-syntax-ns#"
   xmlns:svg="http://www.w3.org/2000/svg"
   xmlns="http://www.w3.org/2000/svg"
   xmlns:sodipodi="http://sodipodi.sourceforge.net/DTD/sodipodi-0.dtd"
   xmlns:inkscape="http://www.inkscape.org/namespaces/inkscape"
   width="143.32283"
   height="252.81102"
   version="1.1"
   id="svg1203"
   sodipodi:docname="panel_E.svg"
   inkscape:version="0.92.4 (5da689c313, 2019-01-14)">
  <metadata
     id="metadata1207">
    <rdf:RDF>
      <cc:Work
         rdf:about="">
        <dc:format>image/svg+xml</dc:format>
        <dc:type
           rdf:resource="http://purl.org/dc/dcmitype/StillImage" />
        <dc:title></dc:title>
      </cc:Work>
    </rdf:RDF>
  </metadata>
  <sodipodi:namedview
     pagecolor="#ffffff"
     bordercolor="#666666"
     borderopacity="1"
     objecttolerance="10"
     gridtolerance="10"
     guidetolerance="10"
     inkscape:pageopacity="0"
     inkscape:pageshadow="2"
     inkscape:window-width="1228"
     inkscape:window-height="1038"
     id="namedview1205"
     showgrid="false"
     inkscape:zoom="0.84096523"
     inkscape:cx="430.42265"
     inkscape:cy="-9.0128467"
     inkscape:window-x="0"
     inkscape:window-y="0"
     inkscape:window-maximized="0"
     inkscape:current-layer="g1201" />
  <desc
     id="desc936">C:\Users\Tracy\Downloads\E.dxf - scale = 1.000000, origin = (0.000000, 0.000000), method = manual</desc>
  <defs
     id="defs951">
    <marker
       id="DistanceX"
       orient="auto"
       refX="0"
       refY="0"
       style="overflow:visible">
      <path
         d="M 3,-3 -3,3 M 0,-5 V 5"
         style="stroke:#000000;stroke-width:0.5"
         id="path938"
         inkscape:connector-curvature="0" />
    </marker>
    <pattern
       height="8"
       id="Hatch"
       patternUnits="userSpaceOnUse"
       width="8"
       x="0"
       y="0">
      <path
         d="M8 4 l-4,4"
         linecap="square"
         stroke="#000000"
         stroke-width="0.25"
         id="path941" />
      <path
         d="M6 2 l-4,4"
         linecap="square"
         stroke="#000000"
         stroke-width="0.25"
         id="path943" />
      <path
         d="M4 0 l-4,4"
         linecap="square"
         stroke="#000000"
         stroke-width="0.25"
         id="path945" />
    </pattern>
    <symbol
       id="*Model_Space" />
    <symbol
       id="*Paper_Space" />
    <symbol
       id="*Paper_Space0" />
  </defs>
  <g
     inkscape:groupmode="layer"
     inkscape:label="0"
     id="g953"
     transform="translate(142.82283,-870.20866)" />
  <g
     inkscape:groupmode="layer"
     inkscape:label="SECTION_CUTTING_LINE"
     id="g955"
     transform="translate(142.82283,-870.20866)" />
  <g
     inkscape:groupmode="layer"
     inkscape:label="DETAIL_VIEW_BORDER"
     id="g957"
     transform="translate(142.82283,-870.20866)" />
  <g
     inkscape:groupmode="layer"
     inkscape:label="DETAIL_VIEW_PARENT_BORDER"
     id="g959"
     transform="translate(142.82283,-870.20866)" />
  <g
     inkscape:groupmode="layer"
     inkscape:label="TEXT"
     id="g961"
     transform="translate(142.82283,-870.20866)" />
  <g
     inkscape:groupmode="layer"
     inkscape:label="SKETCHED_GEOMETRY"
     id="g963"
     transform="translate(142.82283,-870.20866)" />
  <g
     inkscape:groupmode="layer"
     inkscape:label="VIRTUAL_SHARPS"
     id="g965"
     transform="translate(142.82283,-870.20866)" />
  <g
     inkscape:groupmode="layer"
     inkscape:label="CENTERLINES"
     id="g967"
     transform="translate(142.82283,-870.20866)" />
  <g
     inkscape:groupmode="layer"
     inkscape:label="CENTERMARKS"
     id="g969"
     transform="translate(142.82283,-870.20866)" />
  <g
     inkscape:groupmode="layer"
     inkscape:label="TABLES"
     id="g971"
     transform="translate(142.82283,-870.20866)" />
  <g
     inkscape:groupmode="layer"
     inkscape:label="IMAGES"
     id="g973"
     transform="translate(142.82283,-870.20866)" />
  <g
     inkscape:groupmode="layer"
     inkscape:label="ANNOTATION_LINES"
     id="g975"
     transform="translate(142.82283,-870.20866)" />
  <g
     inkscape:groupmode="layer"
     inkscape:label="ANNOTATION_TEXT"
     id="g977"
     transform="translate(142.82283,-870.20866)" />
  <g
     inkscape:groupmode="layer"
     inkscape:label="SIDE_THREAD_SYMBOLS"
     id="g979"
     transform="translate(142.82283,-870.20866)" />
  <g
     inkscape:groupmode="layer"
     inkscape:label="SIDE_THREAD_SYMBOLS_HIDDEN"
     id="g981"
     transform="translate(142.82283,-870.20866)" />
  <g
     inkscape:groupmode="layer"
     inkscape:label="SURFACE_THREAD_SYMBOLS"
     id="g983"
     transform="translate(142.82283,-870.20866)" />
  <g
     inkscape:groupmode="layer"
     inkscape:label="SURFACE_THREAD_SYMBOLS_ON_AXIS"
     id="g985"
     transform="translate(142.82283,-870.20866)" />
  <g
     inkscape:groupmode="layer"
     inkscape:label="SURFACE_THREAD_SYMBOLS_HIDDEN"
     id="g987"
     transform="translate(142.82283,-870.20866)" />
  <g
     inkscape:groupmode="layer"
     inkscape:label="BLIND_THREAD_SYMBOLS"
     id="g989"
     transform="translate(142.82283,-870.20866)" />
  <g
     inkscape:groupmode="layer"
     inkscape:label="BLIND_THREAD_SYMBOLS_HIDDEN"
     id="g991"
     transform="translate(142.82283,-870.20866)" />
  <g
     inkscape:groupmode="layer"
     inkscape:label="EXPLODE_LINES"
     id="g993"
     transform="translate(142.82283,-870.20866)" />
  <g
     inkscape:groupmode="layer"
     inkscape:label="BREAK_LINES"
     id="g995"
     transform="translate(142.82283,-870.20866)" />
  <g
     inkscape:groupmode="layer"
     inkscape:label="SHEETMETAL_BEND_LINES_UP"
     id="g997"
     transform="translate(142.82283,-870.20866)" />
  <g
     inkscape:groupmode="layer"
     inkscape:label="SHEETMETAL_BEND_LINES_DOWN"
     id="g999"
     transform="translate(142.82283,-870.20866)" />
  <g
     inkscape:groupmode="layer"
     inkscape:label="SHEETMETAL_BEND_TANGENT_LINES"
     id="g1001"
     transform="translate(142.82283,-870.20866)" />
  <g
     inkscape:groupmode="layer"
     inkscape:label="SHEETMETAL_CUT_LINES"
     id="g1003"
     transform="translate(142.82283,-870.20866)" />
  <g
     inkscape:groupmode="layer"
     inkscape:label="Hidden"
     id="g1005"
     transform="translate(142.82283,-870.20866)" />
  <g
     inkscape:groupmode="layer"
     inkscape:label="Visible"
     id="g1185"
     transform="translate(142.82283,-870.20866)">
    <path
       d="m -110.37402,892.67716 a 2.362205,2.362205 0 1 0 -4.72441,0 2.362205,2.362205 0 1 0 4.72441,0 z"
       style="fill:none;stroke:#000000"
       id="path1007"
       inkscape:connector-curvature="0" />
    <path
       d="m -89.586614,1100.5512 a 2.362205,2.362205 0 1 0 -4.72441,0 2.362205,2.362205 0 1 0 4.72441,0 z"
       style="fill:none;stroke:#000000"
       id="path1009"
       inkscape:connector-curvature="0" />
    <path
       d="m -89.586614,1079.7638 a 2.362205,2.362205 0 1 0 -4.72441,0 2.362205,2.362205 0 1 0 4.72441,0 z"
       style="fill:none;stroke:#000000"
       id="path1011"
       inkscape:connector-curvature="0" />
    <path
       d="m -89.586614,1058.9764 a 2.362205,2.362205 0 1 0 -4.72441,0 2.362205,2.362205 0 1 0 4.72441,0 z"
       style="fill:none;stroke:#000000"
       id="path1013"
       inkscape:connector-curvature="0" />
    <path
       d="m -110.37402,913.46457 a 2.362205,2.362205 0 1 0 -4.72441,0 2.362205,2.362205 0 1 0 4.72441,0 z"
       style="fill:none;stroke:#000000"
       id="path1015"
       inkscape:connector-curvature="0" />
    <path
       d="m -110.37402,934.25197 a 2.362205,2.362205 0 1 0 -4.72441,0 2.362205,2.362205 0 1 0 4.72441,0 z"
       style="fill:none;stroke:#000000"
       id="path1017"
       inkscape:connector-curvature="0" />
    <path
       d="m -110.37402,955.03937 a 2.362205,2.362205 0 1 0 -4.72441,0 2.362205,2.362205 0 1 0 4.72441,0 z"
       style="fill:none;stroke:#000000"
       id="path1019"
       inkscape:connector-curvature="0" />
    <path
       d="m -110.37402,975.82677 a 2.362205,2.362205 0 1 0 -4.72441,0 2.362205,2.362205 0 1 0 4.72441,0 z"
       style="fill:none;stroke:#000000"
       id="path1021"
       inkscape:connector-curvature="0" />
    <path
       d="m -89.586614,1038.189 a 2.362205,2.362205 0 1 0 -4.72441,0 2.362205,2.362205 0 1 0 4.72441,0 z"
       style="fill:none;stroke:#000000"
       id="path1023"
       inkscape:connector-curvature="0" />
    <path
       d="m -89.586614,1017.4016 a 2.362205,2.362205 0 1 0 -4.72441,0 2.362205,2.362205 0 1 0 4.72441,0 z"
       style="fill:none;stroke:#000000"
       id="path1025"
       inkscape:connector-curvature="0" />
    <path
       d="m -89.586614,996.61417 a 2.362205,2.362205 0 1 0 -4.72441,0 2.362205,2.362205 0 1 0 4.72441,0 z"
       style="fill:none;stroke:#000000"
       id="path1027"
       inkscape:connector-curvature="0" />
    <path
       d="m -89.586614,975.82677 a 2.362205,2.362205 0 1 0 -4.72441,0 2.362205,2.362205 0 1 0 4.72441,0 z"
       style="fill:none;stroke:#000000"
       id="path1029"
       inkscape:connector-curvature="0" />
    <path
       d="m -89.586614,955.03937 a 2.362205,2.362205 0 1 0 -4.72441,0 2.362205,2.362205 0 1 0 4.72441,0 z"
       style="fill:none;stroke:#000000"
       id="path1031"
       inkscape:connector-curvature="0" />
    <path
       d="m -89.586614,934.25197 a 2.362205,2.362205 0 1 0 -4.72441,0 2.362205,2.362205 0 1 0 4.72441,0 z"
       style="fill:none;stroke:#000000"
       id="path1033"
       inkscape:connector-curvature="0" />
    <path
       d="m -89.586614,913.46457 a 2.362205,2.362205 0 1 0 -4.72441,0 2.362205,2.362205 0 1 0 4.72441,0 z"
       style="fill:none;stroke:#000000"
       id="path1035"
       inkscape:connector-curvature="0" />
    <path
       d="m -89.586614,892.67716 a 2.362205,2.362205 0 1 0 -4.72441,0 2.362205,2.362205 0 1 0 4.72441,0 z"
       style="fill:none;stroke:#000000"
       id="path1037"
       inkscape:connector-curvature="0" />
    <path
       d="m -131.16142,1079.7638 a 2.362205,2.362205 0 1 0 -4.72441,0 2.362205,2.362205 0 1 0 4.72441,0 z"
       style="fill:none;stroke:#000000"
       id="path1039"
       inkscape:connector-curvature="0" />
    <path
       d="m -131.16142,1058.9764 a 2.362205,2.362205 0 1 0 -4.72441,0 2.362205,2.362205 0 1 0 4.72441,0 z"
       style="fill:none;stroke:#000000"
       id="path1041"
       inkscape:connector-curvature="0" />
    <path
       d="m -131.16142,1038.189 a 2.362205,2.362205 0 1 0 -4.72441,0 2.362205,2.362205 0 1 0 4.72441,0 z"
       style="fill:none;stroke:#000000"
       id="path1043"
       inkscape:connector-curvature="0" />
    <path
       d="m -131.16142,1017.4016 a 2.362205,2.362205 0 1 0 -4.72441,0 2.362205,2.362205 0 1 0 4.72441,0 z"
       style="fill:none;stroke:#000000"
       id="path1045"
       inkscape:connector-curvature="0" />
    <path
       d="m -131.16142,996.61417 a 2.362205,2.362205 0 1 0 -4.72441,0 2.362205,2.362205 0 1 0 4.72441,0 z"
       style="fill:none;stroke:#000000"
       id="path1047"
       inkscape:connector-curvature="0" />
    <path
       d="m -131.16142,975.82677 a 2.362205,2.362205 0 1 0 -4.72441,0 2.362205,2.362205 0 1 0 4.72441,0 z"
       style="fill:none;stroke:#000000"
       id="path1049"
       inkscape:connector-curvature="0" />
    <path
       d="m -131.16142,955.03937 a 2.362205,2.362205 0 1 0 -4.72441,0 2.362205,2.362205 0 1 0 4.72441,0 z"
       style="fill:none;stroke:#000000"
       id="path1051"
       inkscape:connector-curvature="0" />
    <path
       d="m -131.16142,934.25197 a 2.362205,2.362205 0 1 0 -4.72441,0 2.362205,2.362205 0 1 0 4.72441,0 z"
       style="fill:none;stroke:#000000"
       id="path1053"
       inkscape:connector-curvature="0" />
    <path
       d="m -110.37402,996.61417 a 2.362205,2.362205 0 1 0 -4.72441,0 2.362205,2.362205 0 1 0 4.72441,0 z"
       style="fill:none;stroke:#000000"
       id="path1055"
       inkscape:connector-curvature="0" />
    <path
       d="m -110.37402,1017.4016 a 2.362205,2.362205 0 1 0 -4.72441,0 2.362205,2.362205 0 1 0 4.72441,0 z"
       style="fill:none;stroke:#000000"
       id="path1057"
       inkscape:connector-curvature="0" />
    <path
       d="m -110.37402,1038.189 a 2.362205,2.362205 0 1 0 -4.72441,0 2.362205,2.362205 0 1 0 4.72441,0 z"
       style="fill:none;stroke:#000000"
       id="path1059"
       inkscape:connector-curvature="0" />
    <path
       d="m -110.37402,1058.9764 a 2.362205,2.362205 0 1 0 -4.72441,0 2.362205,2.362205 0 1 0 4.72441,0 z"
       style="fill:none;stroke:#000000"
       id="path1061"
       inkscape:connector-curvature="0" />
    <path
       d="m -110.37402,1079.7638 a 2.362205,2.362205 0 1 0 -4.72441,0 2.362205,2.362205 0 1 0 4.72441,0 z"
       style="fill:none;stroke:#000000"
       id="path1063"
       inkscape:connector-curvature="0" />
    <path
       d="m -110.37402,1100.5512 a 2.362205,2.362205 0 1 0 -4.72441,0 2.362205,2.362205 0 1 0 4.72441,0 z"
       style="fill:none;stroke:#000000"
       id="path1065"
       inkscape:connector-curvature="0" />
    <path
       d="m -131.16142,892.67716 a 2.362205,2.362205 0 1 0 -4.72441,0 2.362205,2.362205 0 1 0 4.72441,0 z"
       style="fill:none;stroke:#000000"
       id="path1067"
       inkscape:connector-curvature="0" />
    <path
       d="m -131.16142,913.46457 a 2.362205,2.362205 0 1 0 -4.72441,0 2.362205,2.362205 0 1 0 4.72441,0 z"
       style="fill:none;stroke:#000000"
       id="path1069"
       inkscape:connector-curvature="0" />
    <path
       d="m -27.224409,1079.7638 a 2.362205,2.362205 0 1 0 -4.72441,0 2.362205,2.362205 0 1 0 4.72441,0 z"
       style="fill:none;stroke:#000000"
       id="path1071"
       inkscape:connector-curvature="0" />
    <path
       d="m -27.224409,1100.5512 a 2.362205,2.362205 0 1 0 -4.72441,0 2.362205,2.362205 0 1 0 4.72441,0 z"
       style="fill:none;stroke:#000000"
       id="path1073"
       inkscape:connector-curvature="0" />
    <path
       d="m -48.011811,892.67716 a 2.362205,2.362205 0 1 0 -4.724409,0 2.362205,2.362205 0 1 0 4.724409,0 z"
       style="fill:none;stroke:#000000"
       id="path1075"
       inkscape:connector-curvature="0" />
    <path
       d="m -48.011811,913.46457 a 2.362205,2.362205 0 1 0 -4.724409,0 2.362205,2.362205 0 1 0 4.724409,0 z"
       style="fill:none;stroke:#000000"
       id="path1077"
       inkscape:connector-curvature="0" />
    <path
       d="m -48.011811,934.25197 a 2.362205,2.362205 0 1 0 -4.724409,0 2.362205,2.362205 0 1 0 4.724409,0 z"
       style="fill:none;stroke:#000000"
       id="path1079"
       inkscape:connector-curvature="0" />
    <path
       d="m -48.011811,955.03937 a 2.362205,2.362205 0 1 0 -4.724409,0 2.362205,2.362205 0 1 0 4.724409,0 z"
       style="fill:none;stroke:#000000"
       id="path1081"
       inkscape:connector-curvature="0" />
    <path
       d="m -48.011811,975.82677 a 2.362205,2.362205 0 1 0 -4.724409,0 2.362205,2.362205 0 1 0 4.724409,0 z"
       style="fill:none;stroke:#000000"
       id="path1083"
       inkscape:connector-curvature="0" />
    <path
       d="m -48.011811,996.61417 a 2.362205,2.362205 0 1 0 -4.724409,0 2.362205,2.362205 0 1 0 4.724409,0 z"
       style="fill:none;stroke:#000000"
       id="path1085"
       inkscape:connector-curvature="0" />
    <path
       d="m -27.224409,1058.9764 a 2.362205,2.362205 0 1 0 -4.72441,0 2.362205,2.362205 0 1 0 4.72441,0 z"
       style="fill:none;stroke:#000000"
       id="path1087"
       inkscape:connector-curvature="0" />
    <path
       d="m -27.224409,1038.189 a 2.362205,2.362205 0 1 0 -4.72441,0 2.362205,2.362205 0 1 0 4.72441,0 z"
       style="fill:none;stroke:#000000"
       id="path1089"
       inkscape:connector-curvature="0" />
    <path
       d="m -27.224409,1017.4016 a 2.362205,2.362205 0 1 0 -4.72441,0 2.362205,2.362205 0 1 0 4.72441,0 z"
       style="fill:none;stroke:#000000"
       id="path1091"
       inkscape:connector-curvature="0" />
    <path
       d="m -27.224409,996.61417 a 2.362205,2.362205 0 1 0 -4.72441,0 2.362205,2.362205 0 1 0 4.72441,0 z"
       style="fill:none;stroke:#000000"
       id="path1093"
       inkscape:connector-curvature="0" />
    <path
       d="m -27.224409,975.82677 a 2.362205,2.362205 0 1 0 -4.72441,0 2.362205,2.362205 0 1 0 4.72441,0 z"
       style="fill:none;stroke:#000000"
       id="path1095"
       inkscape:connector-curvature="0" />
    <path
       d="m -27.224409,955.03937 a 2.362205,2.362205 0 1 0 -4.72441,0 2.362205,2.362205 0 1 0 4.72441,0 z"
       style="fill:none;stroke:#000000"
       id="path1097"
       inkscape:connector-curvature="0" />
    <path
       d="m -27.224409,934.25197 a 2.362205,2.362205 0 1 0 -4.72441,0 2.362205,2.362205 0 1 0 4.72441,0 z"
       style="fill:none;stroke:#000000"
       id="path1099"
       inkscape:connector-curvature="0" />
    <path
       d="m -27.224409,913.46457 a 2.362205,2.362205 0 1 0 -4.72441,0 2.362205,2.362205 0 1 0 4.72441,0 z"
       style="fill:none;stroke:#000000"
       id="path1101"
       inkscape:connector-curvature="0" />
    <path
       d="m -68.799213,1100.5512 a 2.362205,2.362205 0 1 0 -4.724409,0 2.362205,2.362205 0 1 0 4.724409,0 z"
       style="fill:none;stroke:#000000"
       id="path1103"
       inkscape:connector-curvature="0" />
    <path
       d="m -68.799213,1079.7638 a 2.362205,2.362205 0 1 0 -4.724409,0 2.362205,2.362205 0 1 0 4.724409,0 z"
       style="fill:none;stroke:#000000"
       id="path1105"
       inkscape:connector-curvature="0" />
    <path
       d="m -68.799213,1058.9764 a 2.362205,2.362205 0 1 0 -4.724409,0 2.362205,2.362205 0 1 0 4.724409,0 z"
       style="fill:none;stroke:#000000"
       id="path1107"
       inkscape:connector-curvature="0" />
    <path
       d="m -68.799213,1038.189 a 2.362205,2.362205 0 1 0 -4.724409,0 2.362205,2.362205 0 1 0 4.724409,0 z"
       style="fill:none;stroke:#000000"
       id="path1109"
       inkscape:connector-curvature="0" />
    <path
       d="m -68.799213,1017.4016 a 2.362205,2.362205 0 1 0 -4.724409,0 2.362205,2.362205 0 1 0 4.724409,0 z"
       style="fill:none;stroke:#000000"
       id="path1111"
       inkscape:connector-curvature="0" />
    <path
       d="m -68.799213,996.61417 a 2.362205,2.362205 0 1 0 -4.724409,0 2.362205,2.362205 0 1 0 4.724409,0 z"
       style="fill:none;stroke:#000000"
       id="path1113"
       inkscape:connector-curvature="0" />
    <path
       d="m -68.799213,975.82677 a 2.362205,2.362205 0 1 0 -4.724409,0 2.362205,2.362205 0 1 0 4.724409,0 z"
       style="fill:none;stroke:#000000"
       id="path1115"
       inkscape:connector-curvature="0" />
    <path
       d="m -68.799213,955.03937 a 2.362205,2.362205 0 1 0 -4.724409,0 2.362205,2.362205 0 1 0 4.724409,0 z"
       style="fill:none;stroke:#000000"
       id="path1117"
       inkscape:connector-curvature="0" />
    <path
       d="m -48.011811,1017.4016 a 2.362205,2.362205 0 1 0 -4.724409,0 2.362205,2.362205 0 1 0 4.724409,0 z"
       style="fill:none;stroke:#000000"
       id="path1119"
       inkscape:connector-curvature="0" />
    <path
       d="m -48.011811,1038.189 a 2.362205,2.362205 0 1 0 -4.724409,0 2.362205,2.362205 0 1 0 4.724409,0 z"
       style="fill:none;stroke:#000000"
       id="path1121"
       inkscape:connector-curvature="0" />
    <path
       d="m -48.011811,1058.9764 a 2.362205,2.362205 0 1 0 -4.724409,0 2.362205,2.362205 0 1 0 4.724409,0 z"
       style="fill:none;stroke:#000000"
       id="path1123"
       inkscape:connector-curvature="0" />
    <path
       d="m -48.011811,1079.7638 a 2.362205,2.362205 0 1 0 -4.724409,0 2.362205,2.362205 0 1 0 4.724409,0 z"
       style="fill:none;stroke:#000000"
       id="path1125"
       inkscape:connector-curvature="0" />
    <path
       d="m -68.799213,934.25197 a 2.362205,2.362205 0 1 0 -4.724409,0 2.362205,2.362205 0 1 0 4.724409,0 z"
       style="fill:none;stroke:#000000"
       id="path1127"
       inkscape:connector-curvature="0" />
    <path
       d="m -68.799213,913.46457 a 2.362205,2.362205 0 1 0 -4.724409,0 2.362205,2.362205 0 1 0 4.724409,0 z"
       style="fill:none;stroke:#000000"
       id="path1129"
       inkscape:connector-curvature="0" />
    <path
       d="m -68.799213,892.67716 a 2.362205,2.362205 0 1 0 -4.724409,0 2.362205,2.362205 0 1 0 4.724409,0 z"
       style="fill:none;stroke:#000000"
       id="path1131"
       inkscape:connector-curvature="0" />
    <path
       d="m -48.011811,1100.5512 a 2.362205,2.362205 0 1 0 -4.724409,0 2.362205,2.362205 0 1 0 4.724409,0 z"
       style="fill:none;stroke:#000000"
       id="path1133"
       inkscape:connector-curvature="0" />
    <path
       d="m -6.437008,892.67716 a 2.362205,2.362205 0 1 0 -4.724409,0 2.362205,2.362205 0 1 0 4.724409,0 z"
       style="fill:none;stroke:#000000"
       id="path1135"
       inkscape:connector-curvature="0" />
    <path
       d="m -6.437008,913.46457 a 2.362205,2.362205 0 1 0 -4.724409,0 2.362205,2.362205 0 1 0 4.724409,0 z"
       style="fill:none;stroke:#000000"
       id="path1137"
       inkscape:connector-curvature="0" />
    <path
       d="m -6.437008,934.25197 a 2.362205,2.362205 0 1 0 -4.724409,0 2.362205,2.362205 0 1 0 4.724409,0 z"
       style="fill:none;stroke:#000000"
       id="path1139"
       inkscape:connector-curvature="0" />
    <path
       d="m -6.437008,955.03937 a 2.362205,2.362205 0 1 0 -4.724409,0 2.362205,2.362205 0 1 0 4.724409,0 z"
       style="fill:none;stroke:#000000"
       id="path1141"
       inkscape:connector-curvature="0" />
    <path
       d="m -6.437008,1058.9764 a 2.362205,2.362205 0 1 0 -4.724409,0 2.362205,2.362205 0 1 0 4.724409,0 z"
       style="fill:none;stroke:#000000"
       id="path1143"
       inkscape:connector-curvature="0" />
    <path
       d="m -6.437008,1079.7638 a 2.362205,2.362205 0 1 0 -4.724409,0 2.362205,2.362205 0 1 0 4.724409,0 z"
       style="fill:none;stroke:#000000"
       id="path1145"
       inkscape:connector-curvature="0" />
    <path
       d="m -6.437008,1100.5512 a 2.362205,2.362205 0 1 0 -4.724409,0 2.362205,2.362205 0 1 0 4.724409,0 z"
       style="fill:none;stroke:#000000"
       id="path1147"
       inkscape:connector-curvature="0" />
    <path
       d="m -27.224409,892.67716 a 2.362205,2.362205 0 1 0 -4.72441,0 2.362205,2.362205 0 1 0 4.72441,0 z"
       style="fill:none;stroke:#000000"
       id="path1149"
       inkscape:connector-curvature="0" />
    <path
       d="m -6.437008,1038.189 a 2.362205,2.362205 0 1 0 -4.724409,0 2.362205,2.362205 0 1 0 4.724409,0 z"
       style="fill:none;stroke:#000000"
       id="path1151"
       inkscape:connector-curvature="0" />
    <path
       d="m -6.437008,1017.4016 a 2.362205,2.362205 0 1 0 -4.724409,0 2.362205,2.362205 0 1 0 4.724409,0 z"
       style="fill:none;stroke:#000000"
       id="path1153"
       inkscape:connector-curvature="0" />
    <path
       d="m -6.437008,996.61417 a 2.362205,2.362205 0 1 0 -4.724409,0 2.362205,2.362205 0 1 0 4.724409,0 z"
       style="fill:none;stroke:#000000"
       id="path1155"
       inkscape:connector-curvature="0" />
    <path
       d="m -6.437008,975.82677 a 2.362205,2.362205 0 1 0 -4.724409,0 2.362205,2.362205 0 1 0 4.724409,0 z"
       style="fill:none;stroke:#000000"
       id="path1157"
       inkscape:connector-curvature="0" />
    <path
       d="m -131.16142,1100.5512 a 2.362205,2.362205 0 1 0 -4.72441,0 2.362205,2.362205 0 1 0 4.72441,0 z"
       style="fill:none;stroke:#000000"
       id="path1159"
       inkscape:connector-curvature="0" />
    <path
       d="M 0,870.70866 V 1122.5197"
       style="fill:none;stroke:#000000"
       id="path1161"
       inkscape:connector-curvature="0" />
    <path
       d="M -142.32283,870.70866 H 0"
       style="fill:none;stroke:#000000"
       id="path1163"
       inkscape:connector-curvature="0" />
    <path
       d="M -142.32283,870.70866 V 1122.5197"
       style="fill:none;stroke:#000000"
       id="path1165"
       inkscape:connector-curvature="0" />
    <path
       d="M -142.32283,1122.5197 H 0"
       style="fill:none;stroke:#000000"
       id="path1167"
       inkscape:connector-curvature="0" />
    <path
       d="m -69.744094,885.07194 a 1.417323,1.417323 0 1 0 -2.834646,0 1.417323,1.417323 0 1 0 2.834646,0 z"
       style="fill:none;stroke:#000000"
       id="path1169"
       inkscape:connector-curvature="0" />
    <path
       d="m -69.744094,1108.1564 a 1.417323,1.417323 0 1 0 -2.834646,0 1.417323,1.417323 0 1 0 2.834646,0 z"
       style="fill:none;stroke:#000000"
       id="path1171"
       inkscape:connector-curvature="0" />
    <path
       d="m -69.980315,878.97638 a 1.1811025,1.1811025 0 1 0 -2.362205,0 1.1811025,1.1811025 0 1 0 2.362205,0 z"
       style="fill:none;stroke:#000000"
       id="path1173"
       inkscape:connector-curvature="0" />
    <path
       d="m -29.055118,878.97638 a 1.1811025,1.1811025 0 1 0 -2.362205,0 1.1811025,1.1811025 0 1 0 2.362205,0 z"
       style="fill:none;stroke:#000000"
       id="path1175"
       inkscape:connector-curvature="0" />
    <path
       d="m -110.90551,878.97638 a 1.181105,1.181105 0 1 0 -2.36221,0 1.181105,1.181105 0 1 0 2.36221,0 z"
       style="fill:none;stroke:#000000"
       id="path1177"
       inkscape:connector-curvature="0" />
    <path
       d="m -110.90551,1114.252 a 1.181105,1.181105 0 1 0 -2.36221,0 1.181105,1.181105 0 1 0 2.36221,0 z"
       style="fill:none;stroke:#000000"
       id="path1179"
       inkscape:connector-curvature="0" />
    <path
       d="m -69.980315,1114.252 a 1.1811025,1.1811025 0 1 0 -2.362205,0 1.1811025,1.1811025 0 1 0 2.362205,0 z"
       style="fill:none;stroke:#000000"
       id="path1181"
       inkscape:connector-curvature="0" />
    <path
       d="m -29.055118,1114.252 a 1.1811025,1.1811025 0 1 0 -2.362205,0 1.1811025,1.1811025 0 1 0 2.362205,0 z"
       style="fill:none;stroke:#000000"
       id="path1183"
       inkscape:connector-curvature="0" />
  </g>
  <g
     inkscape:groupmode="layer"
     inkscape:label="ModelSketch_Visible"
     id="g1187"
     transform="translate(142.82283,-870.20866)" />
  <g
     inkscape:groupmode="layer"
     inkscape:label="ModelSketch_Construction"
     id="g1189"
     transform="translate(142.82283,-870.20866)" />
  <g
     inkscape:groupmode="layer"
     inkscape:label="HIDDEN_BASE_VIEW"
     id="g1191"
     transform="translate(142.82283,-870.20866)" />
  <g
     inkscape:groupmode="layer"
     inkscape:label="TANGENT_LINES"
     id="g1193"
     transform="translate(142.82283,-870.20866)" />
  <g
     inkscape:groupmode="layer"
     inkscape:label="TANGENT_HIDDEN"
     id="g1195"
     transform="translate(142.82283,-870.20866)" />
  <g
     inkscape:groupmode="layer"
     inkscape:label="INVISIBLE_LINES"
     id="g1197"
     transform="translate(142.82283,-870.20866)" />
  <g
     inkscape:groupmode="layer"
     inkscape:label="VIEW_HATCHES"
     id="g1199"
     transform="translate(142.82283,-870.20866)" />
  <g
     inkscape:groupmode="layer"
     inkscape:label="SECTION_JOG_LINES"
     id="g1201"
     transform="translate(142.82283,-870.20866)" />
</svg>
